shantell--extrabold_Italic.ufo
<glyph name="exclam" format="2">
	<unicode hex="0021"/>
	<advance width="309"/>
	<outline>
		<contour>
			<point x="291.4860242904" y="600" type="curve" smooth="yes" identifier="IIusTuEboJ"/>
			<point x="286.4860242904" y="568"/>
			<point x="274.4860242904" y="531"/>
			<point x="267.4860242904" y="487" type="curve" smooth="yes" identifier="epyk6eodNS"/>
			<point x="257.4860242904" y="425"/>
			<point x="252.4860242904" y="361"/>
			<point x="246.4860242904" y="322" type="curve" smooth="yes" identifier="MkYY3pGbcN"/>
			<point x="236.4860242904" y="264"/>
			<point x="204.4860242904" y="236"/>
			<point x="161.4860242904" y="236" type="curve" smooth="yes"/>
			<point x="114.4860242904" y="236"/>
			<point x="87.4860242904" y="256"/>
			<point x="84.4860242904" y="302" type="curve" smooth="yes"/>
			<point x="83.4860242904" y="358"/>
			<point x="85.4860242904" y="397"/>
			<point x="96.4860242904" y="461" type="curve" smooth="yes" identifier="kSHpLTSel9"/>
			<point x="104.4860242904" y="513"/>
			<point x="121.4860242904" y="571"/>
			<point x="130.4860242904" y="639" type="curve" smooth="yes"/>
			<point x="136.4860242904" y="684"/>
			<point x="158.4860242904" y="718"/>
			<point x="210.4860242904" y="718" type="curve" smooth="yes"/>
			<point x="272.4860242904" y="718"/>
			<point x="305.4860242904" y="684"/>
		</contour>
		<contour>
			<point x="126.4860242904" y="-13" type="curve" smooth="yes"/>
			<point x="183.4860242904" y="-13"/>
			<point x="217.4860242904" y="14"/>
			<point x="224.4860242904" y="57" type="curve" smooth="yes" identifier="y0eGantzuk"/>
			<point x="234.4860242904" y="112"/>
			<point x="204.4860242904" y="165"/>
			<point x="122.4860242904" y="165" type="curve" smooth="yes"/>
			<point x="69.4860242904" y="165"/>
			<point x="29.4860242904" y="136"/>
			<point x="19.4860242904" y="76" type="curve" smooth="yes" identifier="P7u4wzEuMx"/>
			<point x="9.4860242904" y="19"/>
			<point x="50.4860242904" y="-13"/>
		</contour>
	</outline>
</glyph>
<glyph name="quotedbl" format="2">
	<unicode hex="0022"/>
	<advance width="548"/>
	<outline>
		<contour>
			<point x="144.6429046317" y="347" type="curve" smooth="yes"/>
			<point x="183.6429046317" y="347"/>
			<point x="214.6429046317" y="368"/>
			<point x="235.6429046317" y="407" type="curve" smooth="yes"/>
			<point x="277.6429046317" y="488"/>
			<point x="302.6429046317" y="582"/>
			<point x="299.6429046317" y="647" type="curve" smooth="yes"/>
			<point x="297.6429046317" y="684"/>
			<point x="269.6429046317" y="715"/>
			<point x="212.6429046317" y="715" type="curve" smooth="yes"/>
			<point x="159.6429046317" y="715"/>
			<point x="127.6429046317" y="677"/>
			<point x="123.6429046317" y="621" type="curve" smooth="yes"/>
			<point x="121.6429046317" y="569"/>
			<point x="101.6429046317" y="505"/>
			<point x="79.6429046317" y="461" type="curve" smooth="yes"/>
			<point x="56.6429046317" y="416"/>
			<point x="87.6429046317" y="347"/>
		</contour>
		<contour>
			<point x="411.6429046317" y="347" type="curve" smooth="yes"/>
			<point x="449.6429046317" y="347"/>
			<point x="478.6429046317" y="368"/>
			<point x="499.6429046317" y="407" type="curve" smooth="yes"/>
			<point x="541.6429046317" y="488"/>
			<point x="566.6429046317" y="586"/>
			<point x="563.6429046317" y="651" type="curve" smooth="yes"/>
			<point x="561.6429046317" y="688"/>
			<point x="534.6429046317" y="715"/>
			<point x="479.6429046317" y="715" type="curve" smooth="yes"/>
			<point x="425.6429046317" y="715"/>
			<point x="398.6429046317" y="678"/>
			<point x="390.6429046317" y="621" type="curve" smooth="yes"/>
			<point x="384.6429046317" y="568"/>
			<point x="363.6429046317" y="505"/>
			<point x="342.6429046317" y="445" type="curve" smooth="yes"/>
			<point x="323.6429046317" y="389"/>
			<point x="355.6429046317" y="347"/>
		</contour>
	</outline>
</glyph>
<glyph name="numbersign" format="2">
	<unicode hex="0023"/>
	<advance width="1004"/>
	<outline>
		<contour>
			<point x="599.1162328296" y="710" type="curve" smooth="yes" identifier="qLqZjVhU12"/>
			<point x="572.1162328296" y="547"/>
			<point x="296.1162328296" y="130"/>
			<point x="266.1162328296" y="-50" type="curve" smooth="yes" identifier="A11XoNAlrA"/>
			<point x="257.1162328296" y="-100"/>
			<point x="209.1162328296" y="-139"/>
			<point x="167.1162328296" y="-138" type="curve" smooth="yes"/>
			<point x="113.1162328296" y="-137"/>
			<point x="76.1162328296" y="-98"/>
			<point x="89.1162328296" y="-21" type="curve" smooth="yes" identifier="qmGCtTydVz"/>
			<point x="116.1162328296" y="147"/>
			<point x="394.1162328296" y="566"/>
			<point x="420.1162328296" y="722" type="curve" smooth="yes" identifier="wPErjOwk09"/>
			<point x="431.1162328296" y="788"/>
			<point x="463.1162328296" y="819"/>
			<point x="512.1162328296" y="820" type="curve" smooth="yes"/>
			<point x="569.1162328296" y="821"/>
			<point x="609.1162328296" y="770"/>
		</contour>
		<contour>
			<point x="898.1162328296" y="769"/>
			<point x="947.1162328296" y="728"/>
			<point x="937.1162328296" y="665" type="curve" smooth="yes" identifier="KJgFPW0VVb"/>
			<point x="913.1162328296" y="520"/>
			<point x="652.1162328296" y="171"/>
			<point x="607.1162328296" y="-101" type="curve" smooth="yes" identifier="tWNYh1Wz2R"/>
			<point x="598.1162328296" y="-158"/>
			<point x="560.1162328296" y="-189"/>
			<point x="515.1162328296" y="-188" type="curve" smooth="yes"/>
			<point x="451.1162328296" y="-187"/>
			<point x="417.1162328296" y="-142"/>
			<point x="428.1162328296" y="-85" type="curve" smooth="yes"/>
			<point x="477.1162328296" y="183"/>
			<point x="735.1162328296" y="525"/>
			<point x="763.1162328296" y="688" type="curve" smooth="yes" identifier="IU8IscEngn"/>
			<point x="771.1162328296" y="739"/>
			<point x="797.1162328296" y="769"/>
			<point x="842.1162328296" y="769" type="curve" smooth="yes"/>
		</contour>
		<contour>
			<point x="112.1162328296" y="254" type="curve" smooth="yes"/>
			<point x="355.1162328296" y="254"/>
			<point x="650.1162328296" y="287"/>
			<point x="893.1162328296" y="287" type="curve" smooth="yes"/>
			<point x="952.1162328296" y="287"/>
			<point x="969.1162328296" y="266"/>
			<point x="964.1162328296" y="228" type="curve" smooth="yes"/>
			<point x="957.1162328296" y="174"/>
			<point x="904.1162328296" y="119"/>
			<point x="799.1162328296" y="115" type="curve" smooth="yes"/>
			<point x="600.1162328296" y="110"/>
			<point x="306.1162328296" y="58"/>
			<point x="132.1162328296" y="58" type="curve" smooth="yes"/>
			<point x="18.1162328296" y="58"/>
			<point x="-6.8837671704" y="117"/>
			<point x="6.1162328296" y="176" type="curve" smooth="yes"/>
			<point x="15.1162328296" y="219"/>
			<point x="62.1162328296" y="254"/>
		</contour>
		<contour>
			<point x="375.1162328296" y="613"/>
			<point x="409.1162328296" y="559"/>
			<point x="955.1162328296" y="559" type="curve" smooth="yes"/>
			<point x="1002.1162328296" y="559"/>
			<point x="1024.1162328296" y="535"/>
			<point x="1018.1162328296" y="491" type="curve" smooth="yes"/>
			<point x="1011.1162328296" y="444"/>
			<point x="964.1162328296" y="398"/>
			<point x="898.1162328296" y="398" type="curve" smooth="yes"/>
			<point x="668.1162328296" y="398"/>
			<point x="468.1162328296" y="405"/>
			<point x="303.1162328296" y="425" type="curve" smooth="yes"/>
			<point x="192.1162328296" y="437"/>
			<point x="177.1162328296" y="491"/>
			<point x="184.1162328296" y="536" type="curve" smooth="yes" identifier="360Tejjtya"/>
			<point x="192.1162328296" y="581"/>
			<point x="222.1162328296" y="613"/>
			<point x="284.1162328296" y="613" type="curve" smooth="yes"/>
		</contour>
	</outline>
</glyph>
<glyph name="dollar" format="2">
	<unicode hex="0024"/>
	<advance width="700"/>
	<outline>
		<contour>
			<point x="257.0809192104" y="-9" type="curve" smooth="yes"/>
			<point x="489.0809192104" y="-9"/>
			<point x="613.0809192104" y="47"/>
			<point x="635.0809192104" y="179" type="curve" smooth="yes" identifier="HfUxiCejyD"/>
			<point x="673.0809192104" y="409"/>
			<point x="250.0809192104" y="390"/>
			<point x="260.0809192104" y="451" type="curve" smooth="yes" identifier="mJOqL4bdPi"/>
			<point x="269.0809192104" y="504"/>
			<point x="385.0809192104" y="529"/>
			<point x="615.0809192104" y="540" type="curve" smooth="yes"/>
			<point x="663.0809192104" y="542"/>
			<point x="698.0809192104" y="576"/>
			<point x="704.0809192104" y="615" type="curve" smooth="yes" identifier="pa6rtYG38R"/>
			<point x="713.0809192104" y="664"/>
			<point x="692.0809192104" y="710"/>
			<point x="607.0809192104" y="710" type="curve" smooth="yes"/>
			<point x="455.0809192104" y="710"/>
			<point x="110.0809192104" y="639"/>
			<point x="80.0809192104" y="455" type="curve" smooth="yes" identifier="o1tX1g60eJ"/>
			<point x="44.0809192104" y="243"/>
			<point x="460.0809192104" y="279"/>
			<point x="466.0809192104" y="172" type="curve"/>
			<point x="395.0809192104" y="158"/>
			<point x="355.0809192104" y="158"/>
			<point x="259.0809192104" y="158" type="curve" smooth="yes"/>
			<point x="170.0809192104" y="158"/>
			<point x="154.0809192104" y="185"/>
			<point x="112.0809192104" y="185" type="curve" smooth="yes"/>
			<point x="62.0809192104" y="185"/>
			<point x="46.0809192104" y="164"/>
			<point x="40.0809192104" y="129" type="curve" smooth="yes" identifier="jc3u2ebkSU"/>
			<point x="29.0809192104" y="59"/>
			<point x="102.0809192104" y="-9"/>
		</contour>
		<contour>
			<point x="369.0809192104" y="300" type="curve" smooth="yes"/>
			<point x="401.0809192104" y="300"/>
			<point x="423.0809192104" y="322"/>
			<point x="437.0809192104" y="356" type="curve" smooth="yes"/>
			<point x="485.0809192104" y="473"/>
			<point x="529.0809192104" y="636"/>
			<point x="524.0809192104" y="750" type="curve" smooth="yes"/>
			<point x="521.0809192104" y="785"/>
			<point x="489.0809192104" y="811"/>
			<point x="449.0809192104" y="811" type="curve" smooth="yes"/>
			<point x="399.0809192104" y="811"/>
			<point x="350.0809192104" y="765"/>
			<point x="350.0809192104" y="717" type="curve" smooth="yes"/>
			<point x="350.0809192104" y="630"/>
			<point x="343.0809192104" y="511"/>
			<point x="324.0809192104" y="403" type="curve" smooth="yes"/>
			<point x="312.0809192104" y="336"/>
			<point x="314.0809192104" y="299"/>
		</contour>
		<contour>
			<point x="357.0809192104" y="340" type="curve" smooth="yes"/>
			<point x="324.0809192104" y="340"/>
			<point x="294.0809192104" y="320"/>
			<point x="280.0809192104" y="278" type="curve" smooth="yes"/>
			<point x="230.0809192104" y="128"/>
			<point x="213.0809192104" y="64"/>
			<point x="206.0809192104" y="-65" type="curve" smooth="yes"/>
			<point x="205.0809192104" y="-97"/>
			<point x="235.0809192104" y="-138"/>
			<point x="305.0809192104" y="-138" type="curve" smooth="yes"/>
			<point x="342.0809192104" y="-138"/>
			<point x="363.0809192104" y="-113"/>
			<point x="372.0809192104" y="-51" type="curve" smooth="yes"/>
			<point x="382.0809192104" y="42"/>
			<point x="387.0809192104" y="159"/>
			<point x="401.0809192104" y="245" type="curve" smooth="yes"/>
			<point x="409.0809192104" y="305"/>
			<point x="394.0809192104" y="340"/>
		</contour>
	</outline>
</glyph>
<glyph name="percent" format="2">
	<unicode hex="0025"/>
	<advance width="995"/>
	<outline>
		<contour>
			<point x="819.6279143174" y="523" type="curve" smooth="yes"/>
			<point x="643.6279143174" y="384"/>
			<point x="500.6279143174" y="243"/>
			<point x="348.6279143174" y="37" type="curve" smooth="yes"/>
			<point x="320.6279143174" y="-1"/>
			<point x="290.6279143174" y="-21"/>
			<point x="258.6279143174" y="-21" type="curve" smooth="yes"/>
			<point x="197.6279143174" y="-21"/>
			<point x="161.6279143174" y="57"/>
			<point x="210.6279143174" y="119" type="curve" smooth="yes"/>
			<point x="371.6279143174" y="331"/>
			<point x="583.6279143174" y="543"/>
			<point x="736.6279143174" y="666" type="curve" smooth="yes"/>
			<point x="780.6279143174" y="702"/>
			<point x="814.6279143174" y="715"/>
			<point x="843.6279143174" y="715" type="curve" smooth="yes"/>
			<point x="913.6279143174" y="715"/>
			<point x="925.6279143174" y="606"/>
		</contour>
		<contour>
			<point x="264.6279143174" y="347" type="curve" smooth="yes"/>
			<point x="373.6279143174" y="347"/>
			<point x="469.6279143174" y="428"/>
			<point x="487.6279143174" y="536" type="curve" smooth="yes" identifier="nxfChUZnFk"/>
			<point x="505.6279143174" y="642"/>
			<point x="445.6279143174" y="708"/>
			<point x="321.6279143174" y="708" type="curve" smooth="yes"/>
			<point x="267.6279143174" y="708"/>
			<point x="229.6279143174" y="675"/>
			<point x="222.6279143174" y="628" type="curve" smooth="yes" identifier="JuNLYWVhUp"/>
			<point x="213.6279143174" y="575"/>
			<point x="251.6279143174" y="556"/>
			<point x="297.6279143174" y="556" type="curve" smooth="yes"/>
			<point x="311.6279143174" y="556"/>
			<point x="318.6279143174" y="547"/>
			<point x="316.6279143174" y="534" type="curve" smooth="yes" identifier="SYDRmRN8iD"/>
			<point x="313.6279143174" y="517"/>
			<point x="300.6279143174" y="504"/>
			<point x="285.6279143174" y="504" type="curve" smooth="yes"/>
			<point x="267.6279143174" y="504"/>
			<point x="257.6279143174" y="514"/>
			<point x="259.6279143174" y="529" type="curve" smooth="yes" identifier="mY0dv8b1cs"/>
			<point x="261.6279143174" y="538"/>
			<point x="270.6279143174" y="553"/>
			<point x="294.6279143174" y="567" type="curve" smooth="yes"/>
			<point x="321.6279143174" y="581"/>
			<point x="342.6279143174" y="611"/>
			<point x="346.6279143174" y="638" type="curve" smooth="yes" identifier="MmYPJQLs4P"/>
			<point x="353.6279143174" y="679"/>
			<point x="327.6279143174" y="716"/>
			<point x="291.6279143174" y="716" type="curve" smooth="yes"/>
			<point x="189.6279143174" y="716"/>
			<point x="100.6279143174" y="634"/>
			<point x="83.6279143174" y="536" type="curve" smooth="yes" identifier="B1ceorZGlg"/>
			<point x="65.6279143174" y="426"/>
			<point x="141.6279143174" y="347"/>
		</contour>
		<contour>
			<point x="721.6279143174" y="-13" type="curve" smooth="yes"/>
			<point x="840.6279143174" y="-13"/>
			<point x="929.6279143174" y="65"/>
			<point x="948.6279143174" y="179" type="curve" smooth="yes" identifier="8qzDqmxlMI"/>
			<point x="967.6279143174" y="295"/>
			<point x="903.6279143174" y="368"/>
			<point x="771.6279143174" y="368" type="curve" smooth="yes"/>
			<point x="716.6279143174" y="368"/>
			<point x="679.6279143174" y="341"/>
			<point x="671.6279143174" y="293" type="curve" smooth="yes" identifier="G37JDcZxSE"/>
			<point x="661.6279143174" y="234"/>
			<point x="687.6279143174" y="216"/>
			<point x="727.6279143174" y="216" type="curve" smooth="yes"/>
			<point x="761.6279143174" y="216"/>
			<point x="780.6279143174" y="199"/>
			<point x="776.6279143174" y="173" type="curve" smooth="yes" identifier="VuhjtEYqcR"/>
			<point x="773.6279143174" y="157"/>
			<point x="759.6279143174" y="144"/>
			<point x="742.6279143174" y="144" type="curve" smooth="yes"/>
			<point x="723.6279143174" y="144"/>
			<point x="714.6279143174" y="156"/>
			<point x="716.6279143174" y="169" type="curve" smooth="yes" identifier="F3wZ6GHxqS"/>
			<point x="719.6279143174" y="188"/>
			<point x="734.6279143174" y="202"/>
			<point x="768.6279143174" y="208" type="curve" smooth="yes"/>
			<point x="785.6279143174" y="211"/>
			<point x="797.6279143174" y="238"/>
			<point x="803.6279143174" y="278" type="curve" smooth="yes" identifier="k9Q4cQyquL"/>
			<point x="809.6279143174" y="315"/>
			<point x="786.6279143174" y="336"/>
			<point x="745.6279143174" y="336" type="curve" smooth="yes"/>
			<point x="653.6279143174" y="336"/>
			<point x="555.6279143174" y="262"/>
			<point x="538.6279143174" y="161" type="curve" smooth="yes" identifier="Lxz40JpFFT"/>
			<point x="522.6279143174" y="66"/>
			<point x="578.6279143174" y="-13"/>
		</contour>
	</outline>
</glyph>
<glyph name="ampersand" format="2">
	<unicode hex="0026"/>
	<advance width="713"/>
	<outline>
		<contour>
			<point x="471.8965409854" y="508"/>
			<point x="445.8965409854" y="540"/>
			<point x="355.8965409854" y="540" type="curve" smooth="yes"/>
			<point x="290.8965409854" y="540"/>
			<point x="252.8965409854" y="520"/>
			<point x="247.8965409854" y="490" type="curve" smooth="yes" identifier="D2WX4FQQOm"/>
			<point x="242.8965409854" y="462"/>
			<point x="254.8965409854" y="445"/>
			<point x="408.8965409854" y="365" type="curve" smooth="yes"/>
			<point x="649.8965409854" y="239"/>
			<point x="662.8965409854" y="155"/>
			<point x="641.8965409854" y="33" type="curve" smooth="yes" identifier="gC5P0nvYUX"/>
			<point x="628.8965409854" y="-46"/>
			<point x="572.8965409854" y="-166"/>
			<point x="473.8965409854" y="-166" type="curve" smooth="yes"/>
			<point x="427.8965409854" y="-166"/>
			<point x="403.8965409854" y="-140"/>
			<point x="411.8965409854" y="-93" type="curve" smooth="yes" identifier="fITDFV8eWB"/>
			<point x="420.8965409854" y="-39"/>
			<point x="460.8965409854" y="-34"/>
			<point x="471.8965409854" y="28" type="curve" smooth="yes" identifier="7DojlNj0Ik"/>
			<point x="481.8965409854" y="92"/>
			<point x="450.8965409854" y="144"/>
			<point x="247.8965409854" y="253" type="curve" smooth="yes"/>
			<point x="75.8965409854" y="346"/>
			<point x="65.8965409854" y="420"/>
			<point x="77.8965409854" y="494" type="curve" smooth="yes" identifier="UVw30uJJRz"/>
			<point x="95.8965409854" y="600"/>
			<point x="188.8965409854" y="710"/>
			<point x="379.8965409854" y="710" type="curve" smooth="yes"/>
			<point x="458.8965409854" y="710"/>
			<point x="515.8965409854" y="698"/>
			<point x="571.8965409854" y="671" type="curve" smooth="yes"/>
			<point x="600.8965409854" y="656"/>
			<point x="613.8965409854" y="625"/>
			<point x="608.8965409854" y="592" type="curve" smooth="yes" identifier="eniyKFLvCt"/>
			<point x="600.8965409854" y="546"/>
			<point x="553.8965409854" y="508"/>
			<point x="508.8965409854" y="508" type="curve" smooth="yes"/>
		</contour>
		<contour>
			<point x="258.8965409854" y="284" type="curve" smooth="yes"/>
			<point x="224.8965409854" y="248"/>
			<point x="213.8965409854" y="231"/>
			<point x="209.8965409854" y="202" type="curve" smooth="yes" identifier="X6S7qA3k2d"/>
			<point x="203.8965409854" y="168"/>
			<point x="229.8965409854" y="151"/>
			<point x="259.8965409854" y="151" type="curve" smooth="yes"/>
			<point x="348.8965409854" y="151"/>
			<point x="433.8965409854" y="232"/>
			<point x="564.8965409854" y="411" type="curve" smooth="yes"/>
			<point x="583.8965409854" y="438"/>
			<point x="598.8965409854" y="455"/>
			<point x="625.8965409854" y="455" type="curve" smooth="yes"/>
			<point x="670.8965409854" y="455"/>
			<point x="707.8965409854" y="419"/>
			<point x="697.8965409854" y="362" type="curve" smooth="yes" identifier="GfAQm1zPHG"/>
			<point x="695.8965409854" y="348"/>
			<point x="683.8965409854" y="317"/>
			<point x="655.8965409854" y="283" type="curve" smooth="yes"/>
			<point x="452.8965409854" y="33"/>
			<point x="355.8965409854" y="-10"/>
			<point x="218.8965409854" y="-10" type="curve" smooth="yes"/>
			<point x="101.8965409854" y="-10"/>
			<point x="15.8965409854" y="62"/>
			<point x="35.8965409854" y="182" type="curve" smooth="yes" identifier="JFtyRd0oRb"/>
			<point x="50.8965409854" y="269"/>
			<point x="100.8965409854" y="326"/>
			<point x="161.8965409854" y="362" type="curve" smooth="yes"/>
			<point x="200.8965409854" y="385"/>
			<point x="236.8965409854" y="389"/>
			<point x="265.8965409854" y="364" type="curve" smooth="yes"/>
			<point x="281.8965409854" y="350"/>
			<point x="279.8965409854" y="306"/>
		</contour>
	</outline>
</glyph>
<glyph name="quotesingle" format="2">
	<unicode hex="0027"/>
	<advance width="281"/>
	<outline>
		<contour>
			<point x="145.2375575702" y="347" type="curve" smooth="yes"/>
			<point x="183.2375575702" y="347"/>
			<point x="212.2375575702" y="368"/>
			<point x="233.2375575702" y="407" type="curve" smooth="yes"/>
			<point x="275.2375575702" y="489"/>
			<point x="300.2375575702" y="584"/>
			<point x="297.2375575702" y="650" type="curve" smooth="yes"/>
			<point x="294.2375575702" y="685"/>
			<point x="269.2375575702" y="715"/>
			<point x="217.2375575702" y="715" type="curve" smooth="yes"/>
			<point x="165.2375575702" y="715"/>
			<point x="126.2375575702" y="678"/>
			<point x="125.2375575702" y="625" type="curve" smooth="yes"/>
			<point x="125.2375575702" y="570"/>
			<point x="102.2375575702" y="507"/>
			<point x="80.2375575702" y="461" type="curve" smooth="yes"/>
			<point x="58.2375575702" y="415"/>
			<point x="88.2375575702" y="347"/>
		</contour>
	</outline>
</glyph>
<glyph name="parenleft" format="2">
	<unicode hex="0028"/>
	<advance width="499"/>
	<outline>
		<contour>
			<point x="486.5967355596" y="656" type="curve" smooth="yes"/>
			<point x="367.5967355596" y="538"/>
			<point x="244.5967355596" y="376"/>
			<point x="212.5967355596" y="186" type="curve" smooth="yes" identifier="JLo5mYaoTK"/>
			<point x="185.5967355596" y="24"/>
			<point x="241.5967355596" y="-84"/>
			<point x="354.5967355596" y="-124" type="curve" smooth="yes"/>
			<point x="396.5967355596" y="-139"/>
			<point x="410.5967355596" y="-152"/>
			<point x="405.5967355596" y="-183" type="curve" smooth="yes" identifier="O3dTHUXtIm"/>
			<point x="396.5967355596" y="-232"/>
			<point x="340.5967355596" y="-263"/>
			<point x="294.5967355596" y="-263" type="curve" smooth="yes"/>
			<point x="273.5967355596" y="-263"/>
			<point x="259.5967355596" y="-261"/>
			<point x="217.5967355596" y="-243" type="curve" smooth="yes"/>
			<point x="91.5967355596" y="-187"/>
			<point x="-4.4032644404" y="-59"/>
			<point x="36.5967355596" y="186" type="curve" smooth="yes" identifier="clMfb5cog1"/>
			<point x="75.5967355596" y="418"/>
			<point x="220.5967355596" y="620"/>
			<point x="375.5967355596" y="773" type="curve" smooth="yes"/>
			<point x="402.5967355596" y="801"/>
			<point x="429.5967355596" y="811"/>
			<point x="454.5967355596" y="811" type="curve" smooth="yes"/>
			<point x="499.5967355596" y="811"/>
			<point x="537.5967355596" y="765"/>
			<point x="530.5967355596" y="720" type="curve" smooth="yes" identifier="601GfR2OLq"/>
			<point x="527.5967355596" y="700"/>
			<point x="514.5967355596" y="683"/>
		</contour>
	</outline>
</glyph>
<glyph name="parenright" format="2">
	<unicode hex="0029"/>
	<advance width="494"/>
	<outline>
		<contour>
			<point x="3.822428566" y="-129" type="curve" smooth="yes"/>
			<point x="141.822428566" y="-26"/>
			<point x="242.822428566" y="102"/>
			<point x="269.822428566" y="267" type="curve" smooth="yes" identifier="yFxfQy93ow"/>
			<point x="300.822428566" y="450"/>
			<point x="251.822428566" y="568"/>
			<point x="150.822428566" y="643" type="curve" smooth="yes"/>
			<point x="110.822428566" y="673"/>
			<point x="93.822428566" y="704"/>
			<point x="99.822428566" y="739" type="curve" smooth="yes" identifier="nf5tQ0Earp"/>
			<point x="106.822428566" y="782"/>
			<point x="149.822428566" y="812"/>
			<point x="198.822428566" y="812" type="curve" smooth="yes"/>
			<point x="235.822428566" y="812"/>
			<point x="253.822428566" y="807"/>
			<point x="281.822428566" y="787" type="curve" smooth="yes"/>
			<point x="413.822428566" y="693"/>
			<point x="485.822428566" y="507"/>
			<point x="445.822428566" y="267" type="curve" smooth="yes" identifier="ZBz4H1zSDz"/>
			<point x="411.822428566" y="58"/>
			<point x="286.822428566" y="-119"/>
			<point x="122.822428566" y="-223" type="curve" smooth="yes"/>
			<point x="83.822428566" y="-248"/>
			<point x="48.822428566" y="-259"/>
			<point x="22.822428566" y="-259" type="curve" smooth="yes"/>
			<point x="-12.177571434" y="-259"/>
			<point x="-51.177571434" y="-242"/>
			<point x="-44.177571434" y="-196" type="curve" smooth="yes" identifier="kSli3rztwk"/>
			<point x="-39.177571434" y="-168"/>
			<point x="-24.177571434" y="-151"/>
		</contour>
	</outline>
</glyph>
<glyph name="asterisk" format="2">
	<unicode hex="002A"/>
	<advance width="516"/>
	<outline>
		<contour>
			<point x="362.2568596427" y="766"/>
			<point x="395.2568596427" y="708"/>
			<point x="372.2568596427" y="570" type="curve" smooth="yes" identifier="Mtjgaslmki"/>
			<point x="360.2568596427" y="499"/>
			<point x="337.2568596427" y="385"/>
			<point x="339.2568596427" y="298" type="curve" smooth="yes"/>
			<point x="339.2568596427" y="254"/>
			<point x="317.2568596427" y="226"/>
			<point x="269.2568596427" y="226" type="curve" smooth="yes"/>
			<point x="234.2568596427" y="226"/>
			<point x="218.2568596427" y="246"/>
			<point x="217.2568596427" y="274" type="curve" smooth="yes"/>
			<point x="213.2568596427" y="367"/>
			<point x="239.2568596427" y="493"/>
			<point x="252.2568596427" y="570" type="curve" smooth="yes" identifier="lzNMYkbH4j"/>
			<point x="270.2568596427" y="677"/>
			<point x="239.2568596427" y="680"/>
			<point x="246.2568596427" y="721" type="curve" smooth="yes" identifier="Eexll5gPzl"/>
			<point x="251.2568596427" y="749"/>
			<point x="269.2568596427" y="766"/>
			<point x="304.2568596427" y="766" type="curve" smooth="yes"/>
		</contour>
		<contour>
			<point x="497.2568596427" y="596" type="curve" smooth="yes"/>
			<point x="428.2568596427" y="519"/>
			<point x="265.2568596427" y="440"/>
			<point x="185.2568596427" y="341" type="curve" smooth="yes"/>
			<point x="168.2568596427" y="321"/>
			<point x="153.2568596427" y="314"/>
			<point x="132.2568596427" y="314" type="curve" smooth="yes"/>
			<point x="100.2568596427" y="314"/>
			<point x="75.2568596427" y="343"/>
			<point x="80.2568596427" y="375" type="curve" smooth="yes" identifier="6zGf2FcRc7"/>
			<point x="82.2568596427" y="386"/>
			<point x="85.2568596427" y="399"/>
			<point x="109.2568596427" y="424" type="curve" smooth="yes"/>
			<point x="183.2568596427" y="505"/>
			<point x="363.2568596427" y="604"/>
			<point x="420.2568596427" y="671" type="curve" smooth="yes"/>
			<point x="440.2568596427" y="695"/>
			<point x="458.2568596427" y="708"/>
			<point x="482.2568596427" y="708" type="curve" smooth="yes"/>
			<point x="518.2568596427" y="708"/>
			<point x="530.2568596427" y="682"/>
			<point x="524.2568596427" y="651" type="curve" smooth="yes" identifier="qLZVeRADI9"/>
			<point x="521.2568596427" y="628"/>
			<point x="511.2568596427" y="612"/>
		</contour>
		<contour>
			<point x="178.2568596427" y="639" type="curve" smooth="yes"/>
			<point x="244.2568596427" y="600"/>
			<point x="381.2568596427" y="552"/>
			<point x="489.2568596427" y="488" type="curve" smooth="yes"/>
			<point x="508.2568596427" y="478"/>
			<point x="516.2568596427" y="459"/>
			<point x="512.2568596427" y="434" type="curve" smooth="yes" identifier="6WHWw37qrx"/>
			<point x="507.2568596427" y="402"/>
			<point x="485.2568596427" y="373"/>
			<point x="449.2568596427" y="373" type="curve" smooth="yes"/>
			<point x="430.2568596427" y="373"/>
			<point x="423.2568596427" y="377"/>
			<point x="387.2568596427" y="398" type="curve" smooth="yes"/>
			<point x="305.2568596427" y="446"/>
			<point x="167.2568596427" y="496"/>
			<point x="103.2568596427" y="536" type="curve" smooth="yes"/>
			<point x="68.2568596427" y="559"/>
			<point x="64.2568596427" y="591"/>
			<point x="68.2568596427" y="612" type="curve" smooth="yes" identifier="QvRrJOWCp0"/>
			<point x="73.2568596427" y="644"/>
			<point x="95.2568596427" y="660"/>
			<point x="123.2568596427" y="660" type="curve" smooth="yes"/>
			<point x="143.2568596427" y="660"/>
			<point x="152.2568596427" y="654"/>
		</contour>
	</outline>
</glyph>
<glyph name="plus" format="2">
	<unicode hex="002B"/>
	<advance width="700"/>
	<outline>
		<contour>
			<point x="469.6551724138" y="480" type="curve" smooth="yes" identifier="SGn2vzflHN"/>
			<point x="449.6551724138" y="359"/>
			<point x="405.6551724138" y="174"/>
			<point x="394.6551724138" y="110" type="curve" smooth="yes" identifier="hPRcGPRpZz"/>
			<point x="385.6551724138" y="52"/>
			<point x="351.6551724138" y="24"/>
			<point x="305.6551724138" y="24" type="curve" smooth="yes"/>
			<point x="261.6551724138" y="24"/>
			<point x="229.6551724138" y="53"/>
			<point x="234.6551724138" y="116" type="curve" smooth="yes"/>
			<point x="250.6551724138" y="296"/>
			<point x="293.6551724138" y="395"/>
			<point x="312.6551724138" y="543" type="curve" smooth="yes"/>
			<point x="318.6551724138" y="588"/>
			<point x="338.6551724138" y="618"/>
			<point x="387.6551724138" y="618" type="curve" smooth="yes"/>
			<point x="452.6551724138" y="618"/>
			<point x="485.6551724138" y="578"/>
		</contour>
		<contour>
			<point x="273.6551724138" y="274"/>
			<point x="189.6551724138" y="216"/>
			<point x="115.6551724138" y="216" type="curve" smooth="yes"/>
			<point x="65.6551724138" y="216"/>
			<point x="44.6551724138" y="255"/>
			<point x="52.6551724138" y="301" type="curve" smooth="yes" identifier="2jF8tGNX4s"/>
			<point x="59.6551724138" y="341"/>
			<point x="77.6551724138" y="373"/>
			<point x="150.6551724138" y="389" type="curve" smooth="yes"/>
			<point x="274.6551724138" y="416"/>
			<point x="419.6551724138" y="425"/>
			<point x="537.6551724138" y="425" type="curve" smooth="yes"/>
			<point x="616.6551724138" y="425"/>
			<point x="656.6551724138" y="389"/>
			<point x="646.6551724138" y="332" type="curve" smooth="yes" identifier="de8igHimwe"/>
			<point x="641.6551724138" y="298"/>
			<point x="622.6551724138" y="274"/>
			<point x="568.6551724138" y="274" type="curve" smooth="yes"/>
		</contour>
	</outline>
</glyph>
<glyph name="comma" format="2">
	<unicode hex="002C"/>
	<advance width="322"/>
	<outline>
		<contour>
			<point x="256.9317215105" y="161"/>
			<point x="216.9317215105" y="204"/>
			<point x="142.9317215105" y="204" type="curve" smooth="yes"/>
			<point x="88.9317215105" y="204"/>
			<point x="57.9317215105" y="168"/>
			<point x="48.9317215105" y="113" type="curve" smooth="yes" identifier="OdZ85lQqrv"/>
			<point x="43.9317215105" y="86"/>
			<point x="41.9317215105" y="13"/>
			<point x="0.9317215105" y="-64" type="curve" smooth="yes"/>
			<point x="-14.0682784895" y="-93"/>
			<point x="-22.0682784895" y="-112"/>
			<point x="-25.0682784895" y="-130" type="curve" smooth="yes" identifier="2nJsdH1gWa"/>
			<point x="-30.0682784895" y="-162"/>
			<point x="-15.0682784895" y="-180"/>
			<point x="22.9317215105" y="-180" type="curve" smooth="yes"/>
			<point x="67.9317215105" y="-180"/>
			<point x="121.9317215105" y="-145"/>
			<point x="154.9317215105" y="-103" type="curve" smooth="yes"/>
			<point x="198.9317215105" y="-47"/>
			<point x="234.9317215105" y="29"/>
			<point x="245.9317215105" y="98" type="curve" smooth="yes" identifier="U7tcL7DJIu"/>
		</contour>
	</outline>
</glyph>
<glyph name="hyphen" format="2">
	<unicode hex="002D"/>
	<advance width="531"/>
	<outline>
		<contour>
			<point x="192.8424511681" y="176" type="curve" smooth="yes"/>
			<point x="225.8424511681" y="176"/>
			<point x="280.8424511681" y="186"/>
			<point x="426.8424511681" y="186" type="curve" smooth="yes"/>
			<point x="457.8424511681" y="186"/>
			<point x="478.8424511681" y="207"/>
			<point x="484.8424511681" y="240" type="curve" smooth="yes" identifier="7Vc0x0gpZc"/>
			<point x="491.8424511681" y="281"/>
			<point x="459.8424511681" y="349"/>
			<point x="340.8424511681" y="349" type="curve" smooth="yes"/>
			<point x="257.8424511681" y="349"/>
			<point x="176.8424511681" y="349"/>
			<point x="88.8424511681" y="323" type="curve" smooth="yes"/>
			<point x="58.8424511681" y="315"/>
			<point x="50.8424511681" y="301"/>
			<point x="46.8424511681" y="279" type="curve" smooth="yes" identifier="eJIuJpnoeZ"/>
			<point x="38.8424511681" y="229"/>
			<point x="87.8424511681" y="176"/>
		</contour>
	</outline>
</glyph>
<glyph name="period" format="2">
	<unicode hex="002E"/>
	<advance width="329"/>
	<outline>
		<contour>
			<point x="141.3489691939" y="-16" type="curve" smooth="yes"/>
			<point x="205.3489691939" y="-16"/>
			<point x="244.3489691939" y="18"/>
			<point x="252.3489691939" y="65" type="curve" smooth="yes" identifier="0Ka4DwyX7L"/>
			<point x="262.3489691939" y="128"/>
			<point x="233.3489691939" y="197"/>
			<point x="129.3489691939" y="197" type="curve" smooth="yes"/>
			<point x="70.3489691939" y="197"/>
			<point x="28.3489691939" y="159"/>
			<point x="19.3489691939" y="101" type="curve" smooth="yes" identifier="glAqnlOpli"/>
			<point x="6.3489691939" y="22"/>
			<point x="47.3489691939" y="-16"/>
		</contour>
	</outline>
</glyph>
<glyph name="slash" format="2">
	<unicode hex="002F"/>
	<advance width="455"/>
	<outline>
		<contour>
			<point x="551.4742506515" y="813"/>
			<point x="589.4742506515" y="736"/>
			<point x="528.4742506515" y="646" type="curve" smooth="yes"/>
			<point x="365.4742506515" y="399"/>
			<point x="243.4742506515" y="150"/>
			<point x="155.4742506515" y="-165" type="curve" smooth="yes"/>
			<point x="139.4742506515" y="-222"/>
			<point x="102.4742506515" y="-253"/>
			<point x="52.4742506515" y="-253" type="curve" smooth="yes"/>
			<point x="-10.5257493485" y="-253"/>
			<point x="-37.5257493485" y="-202"/>
			<point x="-19.5257493485" y="-138" type="curve" smooth="yes"/>
			<point x="69.4742506515" y="177"/>
			<point x="242.4742506515" y="543"/>
			<point x="370.4742506515" y="729" type="curve" smooth="yes"/>
			<point x="410.4742506515" y="787"/>
			<point x="448.4742506515" y="814"/>
			<point x="490.4742506515" y="814" type="curve" smooth="yes"/>
		</contour>
	</outline>
</glyph>
<glyph name="zero" format="2">
	<unicode hex="0030"/>
	<advance width="700"/>
	<outline>
		<contour>
			<point x="343.036425957" y="487" type="curve" smooth="yes"/>
			<point x="252.036425957" y="431"/>
			<point x="212.036425957" y="364"/>
			<point x="196.036425957" y="270" type="curve" smooth="yes" identifier="4fAOvdvdSy"/>
			<point x="185.036425957" y="206"/>
			<point x="218.036425957" y="160"/>
			<point x="299.036425957" y="160" type="curve" smooth="yes"/>
			<point x="390.036425957" y="160"/>
			<point x="504.036425957" y="251"/>
			<point x="531.036425957" y="417" type="curve" smooth="yes" identifier="FDXciXRLti"/>
			<point x="543.036425957" y="485"/>
			<point x="526.036425957" y="539"/>
			<point x="447.036425957" y="539" type="curve" smooth="yes"/>
			<point x="367.036425957" y="539"/>
			<point x="326.036425957" y="507"/>
			<point x="283.036425957" y="475" type="curve" smooth="yes"/>
			<point x="261.036425957" y="459"/>
			<point x="239.036425957" y="446"/>
			<point x="220.036425957" y="446" type="curve" smooth="yes"/>
			<point x="153.036425957" y="446"/>
			<point x="136.036425957" y="508"/>
			<point x="142.036425957" y="548" type="curve" smooth="yes" identifier="DSxygj4VB8"/>
			<point x="153.036425957" y="612"/>
			<point x="277.036425957" y="711"/>
			<point x="475.036425957" y="711" type="curve" smooth="yes"/>
			<point x="669.036425957" y="711"/>
			<point x="735.036425957" y="599"/>
			<point x="704.036425957" y="417" type="curve" smooth="yes" identifier="IIxGOXRs45"/>
			<point x="656.036425957" y="128"/>
			<point x="449.036425957" y="-11"/>
			<point x="272.036425957" y="-11" type="curve" smooth="yes"/>
			<point x="95.036425957" y="-11"/>
			<point x="-9.963574043" y="74"/>
			<point x="23.036425957" y="270" type="curve" smooth="yes" identifier="DawBBWDyjW"/>
			<point x="62.036425957" y="502"/>
			<point x="254.036425957" y="623"/>
			<point x="327.036425957" y="623" type="curve" smooth="yes"/>
			<point x="376.036425957" y="623"/>
			<point x="391.036425957" y="603"/>
			<point x="382.036425957" y="549" type="curve" smooth="yes" identifier="BTSOFc4F89"/>
			<point x="379.036425957" y="528"/>
			<point x="364.036425957" y="500"/>
		</contour>
	</outline>
</glyph>
<glyph name="one" format="2">
	<unicode hex="0031"/>
	<advance width="700"/>
	<outline>
		<contour>
			<point x="155.1566355056" y="167" type="curve" smooth="yes"/>
			<point x="229.1566355056" y="167"/>
			<point x="421.1566355056" y="174"/>
			<point x="533.1566355056" y="174" type="curve" smooth="yes"/>
			<point x="627.1566355056" y="174"/>
			<point x="656.1566355056" y="134"/>
			<point x="649.1566355056" y="79" type="curve" smooth="yes"/>
			<point x="643.1566355056" y="33"/>
			<point x="608.1566355056" y="0"/>
			<point x="517.1566355056" y="0" type="curve" smooth="yes"/>
			<point x="295.1566355056" y="0"/>
			<point x="202.1566355056" y="-9"/>
			<point x="153.1566355056" y="-9" type="curve" smooth="yes"/>
			<point x="33.1566355056" y="-9"/>
			<point x="18.1566355056" y="44"/>
			<point x="27.1566355056" y="95" type="curve" smooth="yes" identifier="aCzUHDm4VJ"/>
			<point x="34.1566355056" y="137"/>
			<point x="73.1566355056" y="167"/>
		</contour>
		<contour>
			<point x="229.1566355056" y="611" type="curve" smooth="yes"/>
			<point x="306.1566355056" y="619"/>
			<point x="374.1566355056" y="648"/>
			<point x="422.1566355056" y="686" type="curve" smooth="yes"/>
			<point x="444.1566355056" y="703"/>
			<point x="468.1566355056" y="716"/>
			<point x="500.1566355056" y="716" type="curve" smooth="yes"/>
			<point x="572.1566355056" y="716"/>
			<point x="613.1566355056" y="650"/>
			<point x="579.1566355056" y="579" type="curve" smooth="yes"/>
			<point x="501.1566355056" y="399"/>
			<point x="472.1566355056" y="199"/>
			<point x="466.1566355056" y="163" type="curve" smooth="yes" identifier="tfYP4ky7qV"/>
			<point x="460.1566355056" y="125"/>
			<point x="432.1566355056" y="96"/>
			<point x="389.1566355056" y="96" type="curve" smooth="yes"/>
			<point x="322.1566355056" y="96"/>
			<point x="291.1566355056" y="149"/>
			<point x="302.1566355056" y="215" type="curve" smooth="yes" identifier="RbfhHVycNc"/>
			<point x="320.1566355056" y="324"/>
			<point x="354.1566355056" y="436"/>
			<point x="391.1566355056" y="537" type="curve"/>
			<point x="419.1566355056" y="509" type="line"/>
			<point x="373.1566355056" y="475"/>
			<point x="295.1566355056" y="451"/>
			<point x="232.1566355056" y="451" type="curve" smooth="yes"/>
			<point x="162.1566355056" y="451"/>
			<point x="138.1566355056" y="498"/>
			<point x="146.1566355056" y="544" type="curve" smooth="yes" identifier="VmKk4IGfmk"/>
			<point x="151.1566355056" y="577"/>
			<point x="177.1566355056" y="605"/>
		</contour>
	</outline>
</glyph>
<glyph name="two" format="2">
	<unicode hex="0032"/>
	<advance width="700"/>
	<outline>
		<contour>
			<point x="160.5480777591" y="608" type="curve" smooth="yes"/>
			<point x="270.5480777591" y="677"/>
			<point x="365.5480777591" y="713"/>
			<point x="454.5480777591" y="713" type="curve" smooth="yes"/>
			<point x="614.5480777591" y="713"/>
			<point x="661.5480777591" y="625"/>
			<point x="640.5480777591" y="499" type="curve" smooth="yes" identifier="XXR6TuiZDf"/>
			<point x="624.5480777591" y="401"/>
			<point x="560.5480777591" y="303"/>
			<point x="267.5480777591" y="126" type="curve"/>
			<point x="231.5480777591" y="171" type="line"/>
			<point x="256.5480777591" y="164"/>
			<point x="282.5480777591" y="162"/>
			<point x="307.5480777591" y="162" type="curve" smooth="yes"/>
			<point x="360.5480777591" y="162"/>
			<point x="440.5480777591" y="174"/>
			<point x="533.5480777591" y="174" type="curve" smooth="yes"/>
			<point x="635.5480777591" y="174"/>
			<point x="663.5480777591" y="132"/>
			<point x="653.5480777591" y="74" type="curve" smooth="yes" identifier="V0KxVVVGIs"/>
			<point x="647.5480777591" y="35"/>
			<point x="610.5480777591" y="0"/>
			<point x="556.5480777591" y="0" type="curve" smooth="yes"/>
			<point x="323.5480777591" y="0"/>
			<point x="181.5480777591" y="-20"/>
			<point x="109.5480777591" y="-20" type="curve" smooth="yes"/>
			<point x="38.5480777591" y="-20"/>
			<point x="14.5480777591" y="29"/>
			<point x="25.5480777591" y="97" type="curve" smooth="yes" identifier="V67RMJBPsZ"/>
			<point x="32.5480777591" y="139"/>
			<point x="50.5480777591" y="157"/>
			<point x="70.5480777591" y="169" type="curve" smooth="yes"/>
			<point x="340.5480777591" y="326"/>
			<point x="452.5480777591" y="411"/>
			<point x="467.5480777591" y="499" type="curve" smooth="yes" identifier="rBzT3YrAgN"/>
			<point x="471.5480777591" y="523"/>
			<point x="459.5480777591" y="538"/>
			<point x="425.5480777591" y="538" type="curve" smooth="yes"/>
			<point x="311.5480777591" y="538"/>
			<point x="225.5480777591" y="446"/>
			<point x="175.5480777591" y="446" type="curve" smooth="yes"/>
			<point x="129.5480777591" y="446"/>
			<point x="99.5480777591" y="488"/>
			<point x="107.5480777591" y="536" type="curve" smooth="yes" identifier="Mg6EG1o2Py"/>
			<point x="113.5480777591" y="568"/>
			<point x="126.5480777591" y="586"/>
		</contour>
	</outline>
</glyph>
<glyph name="three" format="2">
	<unicode hex="0033"/>
	<advance width="700"/>
	<outline>
		<contour>
			<point x="447.5956300804" y="712" type="curve" smooth="yes"/>
			<point x="611.5956300804" y="712"/>
			<point x="677.5956300804" y="641"/>
			<point x="659.5956300804" y="532" type="curve" smooth="yes" identifier="dPzj9khSHc"/>
			<point x="647.5956300804" y="462"/>
			<point x="591.5956300804" y="389"/>
			<point x="440.5956300804" y="365" type="curve"/>
			<point x="440.5956300804" y="404" type="line"/>
			<point x="643.5956300804" y="402"/>
			<point x="678.5956300804" y="326"/>
			<point x="662.5956300804" y="228" type="curve" smooth="yes" identifier="1pXQhLQV2W"/>
			<point x="634.5956300804" y="59"/>
			<point x="442.5956300804" y="-12"/>
			<point x="211.5956300804" y="-12" type="curve"/>
			<point x="46.5956300804" y="-12"/>
			<point x="14.5956300804" y="42"/>
			<point x="27.5956300804" y="121" type="curve" smooth="yes" identifier="9NwNrGNIAL"/>
			<point x="34.5956300804" y="165"/>
			<point x="58.5956300804" y="201"/>
			<point x="101.5956300804" y="201" type="curve" smooth="yes"/>
			<point x="142.5956300804" y="201"/>
			<point x="139.5956300804" y="161"/>
			<point x="213.5956300804" y="161" type="curve" smooth="yes"/>
			<point x="372.5956300804" y="161"/>
			<point x="482.5956300804" y="187"/>
			<point x="491.5956300804" y="239" type="curve" smooth="yes" identifier="Pbu229KGnD"/>
			<point x="496.5956300804" y="272"/>
			<point x="461.5956300804" y="282"/>
			<point x="294.5956300804" y="282" type="curve" smooth="yes"/>
			<point x="241.5956300804" y="282"/>
			<point x="222.5956300804" y="328"/>
			<point x="230.5956300804" y="377" type="curve" smooth="yes" identifier="RhA2eAU64U"/>
			<point x="234.5956300804" y="403"/>
			<point x="249.5956300804" y="421"/>
			<point x="280.5956300804" y="427" type="curve" smooth="yes"/>
			<point x="404.5956300804" y="452"/>
			<point x="469.5956300804" y="481"/>
			<point x="476.5956300804" y="522" type="curve" smooth="yes" identifier="9xwfejv9WR"/>
			<point x="479.5956300804" y="540"/>
			<point x="469.5956300804" y="547"/>
			<point x="430.5956300804" y="547" type="curve" smooth="yes"/>
			<point x="267.5956300804" y="547"/>
			<point x="216.5956300804" y="475"/>
			<point x="155.5956300804" y="475" type="curve" smooth="yes"/>
			<point x="127.5956300804" y="475"/>
			<point x="83.5956300804" y="510"/>
			<point x="91.5956300804" y="556" type="curve" smooth="yes" identifier="8djZ0WS4pX"/>
			<point x="101.5956300804" y="620"/>
			<point x="266.5956300804" y="712"/>
		</contour>
	</outline>
</glyph>
<glyph name="four" format="2">
	<unicode hex="0034"/>
	<advance width="700"/>
	<outline>
		<contour>
			<point x="310.0977670191" y="157" type="curve" smooth="yes" identifier="J01Ezu3D34"/>
			<point x="336.0977670191" y="315"/>
			<point x="406.0977670191" y="461"/>
			<point x="422.0977670191" y="559" type="curve" smooth="yes" identifier="24rQPWysgK"/>
			<point x="425.0977670191" y="574"/>
			<point x="424.0977670191" y="586"/>
			<point x="417.0977670191" y="610" type="curve"/>
			<point x="460.0977670191" y="553" type="line"/>
			<point x="355.0977670191" y="494"/>
			<point x="256.0977670191" y="391"/>
			<point x="182.0977670191" y="269" type="curve"/>
			<point x="140.0977670191" y="339" type="line"/>
			<point x="171.0977670191" y="326"/>
			<point x="179.0977670191" y="323"/>
			<point x="204.0977670191" y="323" type="curve" smooth="yes"/>
			<point x="333.0977670191" y="323"/>
			<point x="447.0977670191" y="367"/>
			<point x="621.0977670191" y="367" type="curve" smooth="yes"/>
			<point x="670.0977670191" y="367"/>
			<point x="701.0977670191" y="315"/>
			<point x="692.0977670191" y="259" type="curve" smooth="yes" identifier="AYuJqLbDBa"/>
			<point x="686.0977670191" y="221"/>
			<point x="663.0977670191" y="192"/>
			<point x="618.0977670191" y="192" type="curve" smooth="yes"/>
			<point x="408.0977670191" y="192"/>
			<point x="280.0977670191" y="147"/>
			<point x="113.0977670191" y="147" type="curve" smooth="yes"/>
			<point x="42.0977670191" y="147"/>
			<point x="6.0977670191" y="204"/>
			<point x="14.0977670191" y="252" type="curve" smooth="yes" identifier="g9RnM5igY1"/>
			<point x="22.0977670191" y="301"/>
			<point x="39.0977670191" y="356"/>
			<point x="103.0977670191" y="437" type="curve" smooth="yes"/>
			<point x="241.0977670191" y="614"/>
			<point x="417.0977670191" y="715"/>
			<point x="491.0977670191" y="715" type="curve" smooth="yes"/>
			<point x="584.0977670191" y="715"/>
			<point x="615.0977670191" y="643"/>
			<point x="605.0977670191" y="581" type="curve" smooth="yes" identifier="B785MhVCLD"/>
			<point x="579.0977670191" y="427"/>
			<point x="511.0977670191" y="312"/>
			<point x="484.0977670191" y="148" type="curve" smooth="yes" identifier="4LUFBoHOho"/>
			<point x="476.0977670191" y="100"/>
			<point x="482.0977670191" y="79"/>
			<point x="478.0977670191" y="53" type="curve" smooth="yes" identifier="q5Ghqbartg"/>
			<point x="471.0977670191" y="13"/>
			<point x="431.0977670191" y="-11"/>
			<point x="377.0977670191" y="-11" type="curve" smooth="yes"/>
			<point x="309.0977670191" y="-11"/>
			<point x="290.0977670191" y="39"/>
		</contour>
	</outline>
</glyph>
<glyph name="five" format="2">
	<unicode hex="0035"/>
	<advance width="700"/>
	<outline>
		<contour>
			<point x="648.1633310191" y="543" type="curve" smooth="yes"/>
			<point x="485.1633310191" y="543"/>
			<point x="406.1633310191" y="524"/>
			<point x="215.1633310191" y="527" type="curve"/>
			<point x="292.1633310191" y="578" type="line"/>
			<point x="273.1633310191" y="549"/>
			<point x="268.1633310191" y="537"/>
			<point x="265.1633310191" y="517" type="curve" smooth="yes" identifier="mzQuNPWiUS"/>
			<point x="261.1633310191" y="495"/>
			<point x="269.1633310191" y="489"/>
			<point x="416.1633310191" y="466" type="curve" smooth="yes"/>
			<point x="623.1633310191" y="429"/>
			<point x="660.1633310191" y="372"/>
			<point x="641.1633310191" y="257" type="curve" smooth="yes" identifier="aks7NLCezn"/>
			<point x="614.1633310191" y="99"/>
			<point x="438.1633310191" y="-12"/>
			<point x="197.1633310191" y="-12" type="curve" smooth="yes"/>
			<point x="78.1633310191" y="-12"/>
			<point x="33.1633310191" y="40"/>
			<point x="46.1633310191" y="118" type="curve" smooth="yes" identifier="MPYwk1fi3X"/>
			<point x="53.1633310191" y="161"/>
			<point x="80.1633310191" y="195"/>
			<point x="125.1633310191" y="195" type="curve" smooth="yes"/>
			<point x="160.1633310191" y="195"/>
			<point x="158.1633310191" y="158"/>
			<point x="216.1633310191" y="158" type="curve" smooth="yes"/>
			<point x="312.1633310191" y="158"/>
			<point x="446.1633310191" y="193"/>
			<point x="456.1633310191" y="255" type="curve" smooth="yes" identifier="1N4V4z8g0n"/>
			<point x="461.1633310191" y="281"/>
			<point x="453.1633310191" y="298"/>
			<point x="374.1633310191" y="312" type="curve" smooth="yes"/>
			<point x="107.1633310191" y="361"/>
			<point x="67.1633310191" y="392"/>
			<point x="86.1633310191" y="507" type="curve" smooth="yes" identifier="5NxQonGjxA"/>
			<point x="93.1633310191" y="544"/>
			<point x="109.1633310191" y="591"/>
			<point x="138.1633310191" y="647" type="curve" smooth="yes"/>
			<point x="155.1633310191" y="683"/>
			<point x="172.1633310191" y="700"/>
			<point x="208.1633310191" y="700" type="curve" smooth="yes"/>
			<point x="398.1633310191" y="700"/>
			<point x="468.1633310191" y="716"/>
			<point x="610.1633310191" y="716" type="curve" smooth="yes"/>
			<point x="696.1633310191" y="716"/>
			<point x="733.1633310191" y="662"/>
			<point x="720.1633310191" y="603" type="curve" smooth="yes"/>
			<point x="713.1633310191" y="567"/>
			<point x="684.1633310191" y="543"/>
		</contour>
	</outline>
</glyph>
<glyph name="six" format="2">
	<unicode hex="0036"/>
	<advance width="700"/>
	<outline>
		<contour>
			<point x="513.1136913516" y="549" type="curve" smooth="yes"/>
			<point x="350.1136913516" y="445"/>
			<point x="220.1136913516" y="348"/>
			<point x="203.1136913516" y="244" type="curve" smooth="yes" identifier="FEZFnNN2XI"/>
			<point x="192.1136913516" y="180"/>
			<point x="254.1136913516" y="160"/>
			<point x="345.1136913516" y="160" type="curve" smooth="yes"/>
			<point x="431.1136913516" y="160"/>
			<point x="489.1136913516" y="192"/>
			<point x="495.1136913516" y="231" type="curve" smooth="yes" identifier="70yxU16qSG"/>
			<point x="500.1136913516" y="260"/>
			<point x="478.1136913516" y="288"/>
			<point x="403.1136913516" y="288" type="curve" smooth="yes"/>
			<point x="318.1136913516" y="288"/>
			<point x="293.1136913516" y="267"/>
			<point x="248.1136913516" y="267" type="curve" smooth="yes"/>
			<point x="206.1136913516" y="267"/>
			<point x="196.1136913516" y="287"/>
			<point x="200.1136913516" y="313" type="curve" smooth="yes" identifier="VUubGOvBre"/>
			<point x="207.1136913516" y="356"/>
			<point x="316.1136913516" y="437"/>
			<point x="473.1136913516" y="437" type="curve" smooth="yes"/>
			<point x="615.1136913516" y="437"/>
			<point x="689.1136913516" y="344"/>
			<point x="669.1136913516" y="225" type="curve" smooth="yes" identifier="dCbVvJgF8C"/>
			<point x="646.1136913516" y="87"/>
			<point x="508.1136913516" y="-10"/>
			<point x="312.1136913516" y="-10" type="curve" smooth="yes"/>
			<point x="85.1136913516" y="-10"/>
			<point x="-2.8863086484" y="91"/>
			<point x="22.1136913516" y="239" type="curve" smooth="yes" identifier="TLOZHAXNLL"/>
			<point x="46.1136913516" y="384"/>
			<point x="184.1136913516" y="536"/>
			<point x="397.1136913516" y="675" type="curve" smooth="yes"/>
			<point x="446.1136913516" y="707"/>
			<point x="464.1136913516" y="710"/>
			<point x="489.1136913516" y="710" type="curve" smooth="yes"/>
			<point x="543.1136913516" y="710"/>
			<point x="577.1136913516" y="664"/>
			<point x="569.1136913516" y="617" type="curve" smooth="yes" identifier="7tB5jVR0NS"/>
			<point x="565.1136913516" y="592"/>
			<point x="557.1136913516" y="576"/>
		</contour>
	</outline>
</glyph>
<glyph name="seven" format="2">
	<unicode hex="0037"/>
	<advance width="700"/>
	<outline>
		<contour>
			<point x="190.0973679503" y="366" type="curve" smooth="yes"/>
			<point x="304.0973679503" y="366"/>
			<point x="409.0973679503" y="394"/>
			<point x="579.0973679503" y="394" type="curve" smooth="yes"/>
			<point x="658.0973679503" y="394"/>
			<point x="697.0973679503" y="347"/>
			<point x="687.0973679503" y="289" type="curve" smooth="yes" identifier="6oMWQO5UXx"/>
			<point x="681.0973679503" y="253"/>
			<point x="652.0973679503" y="229"/>
			<point x="606.0973679503" y="229" type="curve" smooth="yes"/>
			<point x="383.0973679503" y="229"/>
			<point x="298.0973679503" y="201"/>
			<point x="200.0973679503" y="201" type="curve" smooth="yes"/>
			<point x="143.0973679503" y="201"/>
			<point x="109.0973679503" y="248"/>
			<point x="118.0973679503" y="298" type="curve" smooth="yes" identifier="h6x6lsl3Ii"/>
			<point x="125.0973679503" y="342"/>
			<point x="148.0973679503" y="366"/>
		</contour>
		<contour>
			<point x="116.0973679503" y="645" type="curve" smooth="yes"/>
			<point x="222.0973679503" y="682"/>
			<point x="371.0973679503" y="710"/>
			<point x="451.0973679503" y="710" type="curve" smooth="yes"/>
			<point x="628.0973679503" y="710"/>
			<point x="683.0973679503" y="635"/>
			<point x="664.0973679503" y="525" type="curve" smooth="yes" identifier="TDqohCPbWh"/>
			<point x="638.0973679503" y="365"/>
			<point x="436.0973679503" y="235"/>
			<point x="409.0973679503" y="70" type="curve" smooth="yes" identifier="Jjha6AkTp5"/>
			<point x="398.0973679503" y="9"/>
			<point x="377.0973679503" y="-9"/>
			<point x="329.0973679503" y="-9" type="curve" smooth="yes"/>
			<point x="271.0973679503" y="-9"/>
			<point x="227.0973679503" y="20"/>
			<point x="238.0973679503" y="83" type="curve" smooth="yes" identifier="FWvkcmHshE"/>
			<point x="264.0973679503" y="240"/>
			<point x="473.0973679503" y="436"/>
			<point x="484.0973679503" y="506" type="curve" smooth="yes" identifier="w70SHmwiSB"/>
			<point x="489.0973679503" y="535"/>
			<point x="475.0973679503" y="546"/>
			<point x="431.0973679503" y="546" type="curve" smooth="yes"/>
			<point x="272.0973679503" y="546"/>
			<point x="196.0973679503" y="494"/>
			<point x="148.0973679503" y="494" type="curve" smooth="yes"/>
			<point x="107.0973679503" y="494"/>
			<point x="70.0973679503" y="547"/>
			<point x="78.0973679503" y="593" type="curve" smooth="yes" identifier="M5yCuzDULB"/>
			<point x="81.0973679503" y="615"/>
			<point x="95.0973679503" y="638"/>
		</contour>
	</outline>
</glyph>
<glyph name="eight" format="2">
	<unicode hex="0038"/>
	<advance width="700"/>
	<outline>
		<contour>
			<point x="444.2530322353" y="544" type="curve" smooth="yes"/>
			<point x="287.2530322353" y="549"/>
			<point x="252.2530322353" y="535"/>
			<point x="250.2530322353" y="522" type="curve" smooth="yes" identifier="wWW1zKtNLA"/>
			<point x="244.2530322353" y="489"/>
			<point x="332.2530322353" y="465"/>
			<point x="440.2530322353" y="427" type="curve" smooth="yes"/>
			<point x="642.2530322353" y="355"/>
			<point x="672.2530322353" y="315"/>
			<point x="657.2530322353" y="222" type="curve" smooth="yes" identifier="VTudC0sMKx"/>
			<point x="636.2530322353" y="99"/>
			<point x="523.2530322353" y="-12"/>
			<point x="273.2530322353" y="-12" type="curve" smooth="yes"/>
			<point x="71.2530322353" y="-12"/>
			<point x="9.2530322353" y="75"/>
			<point x="28.2530322353" y="172" type="curve" smooth="yes"/>
			<point x="43.2530322353" y="250"/>
			<point x="89.2530322353" y="305"/>
			<point x="333.2530322353" y="422" type="curve" smooth="yes"/>
			<point x="499.2530322353" y="501"/>
			<point x="539.2530322353" y="539"/>
			<point x="557.2530322353" y="583" type="curve" smooth="yes"/>
			<point x="573.2530322353" y="619"/>
			<point x="592.2530322353" y="642"/>
			<point x="627.2530322353" y="642" type="curve" smooth="yes"/>
			<point x="679.2530322353" y="642"/>
			<point x="715.2530322353" y="595"/>
			<point x="705.2530322353" y="535" type="curve" smooth="yes" identifier="vwAVSqmyjp"/>
			<point x="696.2530322353" y="480"/>
			<point x="642.2530322353" y="413"/>
			<point x="475.2530322353" y="330" type="curve" smooth="yes"/>
			<point x="226.2530322353" y="205"/>
			<point x="207.2530322353" y="188"/>
			<point x="201.2530322353" y="153" type="curve" smooth="yes" identifier="Dk8WU8MRRP"/>
			<point x="198.2530322353" y="132"/>
			<point x="192.2530322353" y="102"/>
			<point x="206.2530322353" y="58" type="curve"/>
			<point x="132.2530322353" y="184" type="line"/>
			<point x="192.2530322353" y="158"/>
			<point x="239.2530322353" y="159"/>
			<point x="299.2530322353" y="159" type="curve" smooth="yes"/>
			<point x="389.2530322353" y="159"/>
			<point x="466.2530322353" y="174"/>
			<point x="474.2530322353" y="225" type="curve" smooth="yes" identifier="ptLgy04hhk"/>
			<point x="478.2530322353" y="247"/>
			<point x="467.2530322353" y="271"/>
			<point x="333.2530322353" y="307" type="curve" smooth="yes"/>
			<point x="99.2530322353" y="371"/>
			<point x="60.2530322353" y="428"/>
			<point x="77.2530322353" y="522" type="curve" smooth="yes"/>
			<point x="99.2530322353" y="642"/>
			<point x="201.2530322353" y="711"/>
			<point x="410.2530322353" y="711" type="curve" smooth="yes"/>
			<point x="494.2530322353" y="711"/>
			<point x="531.2530322353" y="656"/>
			<point x="521.2530322353" y="605" type="curve" smooth="yes"/>
			<point x="514.2530322353" y="571"/>
			<point x="479.2530322353" y="543"/>
		</contour>
	</outline>
</glyph>
<glyph name="nine" format="2">
	<unicode hex="0039"/>
	<advance width="700"/>
	<outline>
		<contour>
			<point x="505.2434264463" y="525" type="curve" smooth="yes"/>
			<point x="544.2434264463" y="525"/>
			<point x="567.2434264463" y="558"/>
			<point x="572.2434264463" y="590" type="curve" smooth="yes" identifier="WiCKMuTmOD"/>
			<point x="585.2434264463" y="664"/>
			<point x="538.2434264463" y="710"/>
			<point x="443.2434264463" y="710" type="curve" smooth="yes"/>
			<point x="214.2434264463" y="710"/>
			<point x="83.2434264463" y="570"/>
			<point x="62.2434264463" y="442" type="curve" smooth="yes" identifier="koFBaCnj60"/>
			<point x="42.2434264463" y="322"/>
			<point x="115.2434264463" y="240"/>
			<point x="267.2434264463" y="240" type="curve" smooth="yes"/>
			<point x="390.2434264463" y="240"/>
			<point x="486.2434264463" y="290"/>
			<point x="585.2434264463" y="414" type="curve"/>
			<point x="471.2434264463" y="361" type="line"/>
			<point x="452.2434264463" y="243"/>
			<point x="439.2434264463" y="148"/>
			<point x="438.2434264463" y="83" type="curve" smooth="yes"/>
			<point x="438.2434264463" y="29"/>
			<point x="476.2434264463" y="-9"/>
			<point x="535.2434264463" y="-9" type="curve" smooth="yes"/>
			<point x="580.2434264463" y="-9"/>
			<point x="608.2434264463" y="14"/>
			<point x="617.2434264463" y="67" type="curve" smooth="yes" identifier="JFGvVxAm3W"/>
			<point x="623.2434264463" y="105"/>
			<point x="614.2434264463" y="152"/>
			<point x="636.2434264463" y="283" type="curve" smooth="yes" identifier="pO6kdZHFMF"/>
			<point x="645.2434264463" y="335"/>
			<point x="655.2434264463" y="388"/>
			<point x="673.2434264463" y="481" type="curve"/>
			<point x="719.2434264463" y="601"/>
			<point x="697.2434264463" y="666"/>
			<point x="600.2434264463" y="666" type="curve" smooth="yes"/>
			<point x="565.2434264463" y="666"/>
			<point x="537.2434264463" y="642"/>
			<point x="530.2434264463" y="600" type="curve" smooth="yes" identifier="Dt68Bh4r2X"/>
			<point x="505.2434264463" y="448"/>
			<point x="405.2434264463" y="403"/>
			<point x="297.2434264463" y="403" type="curve" smooth="yes"/>
			<point x="249.2434264463" y="403"/>
			<point x="236.2434264463" y="422"/>
			<point x="241.2434264463" y="448" type="curve" smooth="yes" identifier="93ywJeEPtJ"/>
			<point x="247.2434264463" y="485"/>
			<point x="297.2434264463" y="539"/>
			<point x="415.2434264463" y="539" type="curve" smooth="yes"/>
			<point x="461.2434264463" y="539"/>
			<point x="479.2434264463" y="525"/>
		</contour>
	</outline>
</glyph>
<glyph name="colon" format="2">
	<unicode hex="003A"/>
	<advance width="320"/>
	<outline>
		<contour>
			<point x="172.3264662994" y="315" type="curve" smooth="yes"/>
			<point x="249.3264662994" y="315"/>
			<point x="297.3264662994" y="358"/>
			<point x="305.3264662994" y="408" type="curve" smooth="yes" identifier="dhAq0nd2IL"/>
			<point x="315.3264662994" y="469"/>
			<point x="287.3264662994" y="528"/>
			<point x="190.3264662994" y="528" type="curve" smooth="yes"/>
			<point x="132.3264662994" y="528"/>
			<point x="80.3264662994" y="494"/>
			<point x="70.3264662994" y="432" type="curve" smooth="yes" identifier="ON9Xd9FcOi"/>
			<point x="57.3264662994" y="356"/>
			<point x="95.3264662994" y="315"/>
		</contour>
		<contour>
			<point x="128.3264662994" y="-14" type="curve" smooth="yes"/>
			<point x="198.3264662994" y="-14"/>
			<point x="242.3264662994" y="29"/>
			<point x="250.3264662994" y="79" type="curve" smooth="yes" identifier="e6HruckEe0"/>
			<point x="260.3264662994" y="140"/>
			<point x="231.3264662994" y="199"/>
			<point x="131.3264662994" y="199" type="curve" smooth="yes"/>
			<point x="76.3264662994" y="199"/>
			<point x="25.3264662994" y="165"/>
			<point x="15.3264662994" y="103" type="curve" smooth="yes" identifier="pNiCx503pr"/>
			<point x="2.3264662994" y="27"/>
			<point x="44.3264662994" y="-14"/>
		</contour>
	</outline>
</glyph>
<glyph name="semicolon" format="2">
	<unicode hex="003B"/>
	<advance width="318"/>
	<outline>
		<contour>
			<point x="168.4155102129" y="335" type="curve" smooth="yes"/>
			<point x="251.4155102129" y="335"/>
			<point x="302.4155102129" y="378"/>
			<point x="310.4155102129" y="428" type="curve" smooth="yes" identifier="EhNKxF0teJ"/>
			<point x="319.4155102129" y="479"/>
			<point x="297.4155102129" y="528"/>
			<point x="222.4155102129" y="528" type="curve" smooth="yes"/>
			<point x="148.4155102129" y="528"/>
			<point x="82.4155102129" y="490"/>
			<point x="70.4155102129" y="422" type="curve" smooth="yes" identifier="yUonItDj5X"/>
			<point x="61.4155102129" y="364"/>
			<point x="93.4155102129" y="335"/>
		</contour>
		<component base="comma"/>
	</outline>
</glyph>
<glyph name="less" format="2">
	<unicode hex="003C"/>
	<advance width="700"/>
	<outline>
		<contour>
			<point x="592.3336452606" y="445" type="curve" smooth="yes"/>
			<point x="447.3336452606" y="409"/>
			<point x="318.3336452606" y="361"/>
			<point x="221.3336452606" y="304" type="curve"/>
			<point x="232.3336452606" y="373" type="line"/>
			<point x="312.3336452606" y="302"/>
			<point x="426.3336452606" y="268"/>
			<point x="576.3336452606" y="246" type="curve" smooth="yes"/>
			<point x="638.3336452606" y="238"/>
			<point x="669.3336452606" y="219"/>
			<point x="659.3336452606" y="163" type="curve" smooth="yes" identifier="CfRjkex7Sq"/>
			<point x="651.3336452606" y="112"/>
			<point x="603.3336452606" y="86"/>
			<point x="562.3336452606" y="86" type="curve" smooth="yes"/>
			<point x="521.3336452606" y="86"/>
			<point x="497.3336452606" y="89"/>
			<point x="459.3336452606" y="96" type="curve" smooth="yes"/>
			<point x="281.3336452606" y="125"/>
			<point x="154.3336452606" y="185"/>
			<point x="74.3336452606" y="269" type="curve" smooth="yes"/>
			<point x="50.3336452606" y="294"/>
			<point x="41.3336452606" y="321"/>
			<point x="46.3336452606" y="351" type="curve" smooth="yes" identifier="UNsyo5qyHj"/>
			<point x="51.3336452606" y="376"/>
			<point x="65.3336452606" y="400"/>
			<point x="103.3336452606" y="426" type="curve" smooth="yes"/>
			<point x="215.3336452606" y="503"/>
			<point x="387.3336452606" y="567"/>
			<point x="506.3336452606" y="601" type="curve" smooth="yes"/>
			<point x="544.3336452606" y="612"/>
			<point x="567.3336452606" y="615"/>
			<point x="591.3336452606" y="615" type="curve" smooth="yes"/>
			<point x="664.3336452606" y="615"/>
			<point x="697.3336452606" y="572"/>
			<point x="689.3336452606" y="521" type="curve" smooth="yes" identifier="iiXaOtRWSf"/>
			<point x="681.3336452606" y="472"/>
			<point x="658.3336452606" y="462"/>
		</contour>
	</outline>
	<guideline x="120.4155102129" y="361" angle="0" identifier="VLAmwIKhLM"/>
</glyph>
<glyph name="equal" format="2">
	<unicode hex="003D"/>
	<advance width="700"/>
	<outline>
		<contour>
			<point x="298.1552483093" y="400"/>
			<point x="226.1552483093" y="372"/>
			<point x="159.1552483093" y="372" type="curve" smooth="yes"/>
			<point x="102.1552483093" y="372"/>
			<point x="78.1552483093" y="413"/>
			<point x="85.1552483093" y="457" type="curve" smooth="yes" identifier="1jmJtbmHDF"/>
			<point x="92.1552483093" y="496"/>
			<point x="120.1552483093" y="525"/>
			<point x="200.1552483093" y="537" type="curve" smooth="yes"/>
			<point x="307.1552483093" y="553"/>
			<point x="387.1552483093" y="560"/>
			<point x="474.1552483093" y="560" type="curve" smooth="yes"/>
			<point x="625.1552483093" y="560"/>
			<point x="689.1552483093" y="529"/>
			<point x="679.1552483093" y="468" type="curve" smooth="yes" identifier="Pk2WtMi7kx"/>
			<point x="672.1552483093" y="428"/>
			<point x="646.1552483093" y="400"/>
			<point x="566.1552483093" y="400" type="curve" smooth="yes"/>
		</contour>
		<contour>
			<point x="258.1552483093" y="168"/>
			<point x="203.1552483093" y="106"/>
			<point x="116.1552483093" y="106" type="curve" smooth="yes"/>
			<point x="54.1552483093" y="106"/>
			<point x="20.1552483093" y="140"/>
			<point x="28.1552483093" y="189" type="curve" smooth="yes" identifier="fYZGGCB5Rr"/>
			<point x="34.1552483093" y="223"/>
			<point x="58.1552483093" y="253"/>
			<point x="138.1552483093" y="271" type="curve" smooth="yes"/>
			<point x="271.1552483093" y="299"/>
			<point x="393.1552483093" y="315"/>
			<point x="508.1552483093" y="315" type="curve" smooth="yes"/>
			<point x="590.1552483093" y="315"/>
			<point x="633.1552483093" y="290"/>
			<point x="624.1552483093" y="233" type="curve" smooth="yes" identifier="5ZeH6rV0cr"/>
			<point x="617.1552483093" y="195"/>
			<point x="592.1552483093" y="168"/>
			<point x="519.1552483093" y="168" type="curve" smooth="yes"/>
		</contour>
	</outline>
</glyph>
<glyph name="greater" format="2">
	<unicode hex="003E"/>
	<advance width="700"/>
	<outline>
		<contour>
			<point x="144.2" y="255" type="curve" smooth="yes"/>
			<point x="289.2" y="291"/>
			<point x="418.2" y="339"/>
			<point x="516.2" y="396" type="curve"/>
			<point x="504.2" y="327" type="line"/>
			<point x="424.2" y="398"/>
			<point x="311.2" y="432"/>
			<point x="161.2" y="454" type="curve" smooth="yes"/>
			<point x="99.2" y="462"/>
			<point x="68.2" y="481"/>
			<point x="77.2" y="537" type="curve" smooth="yes" identifier="OW2aORB1ex"/>
			<point x="85.2" y="585"/>
			<point x="125.2" y="613"/>
			<point x="178.2" y="613" type="curve" smooth="yes"/>
			<point x="217.2" y="613"/>
			<point x="241.2" y="611"/>
			<point x="278.2" y="604" type="curve" smooth="yes"/>
			<point x="456.2" y="575"/>
			<point x="583.2" y="515"/>
			<point x="663.2" y="431" type="curve" smooth="yes"/>
			<point x="687.2" y="406"/>
			<point x="695.2" y="379"/>
			<point x="690.2" y="349" type="curve" smooth="yes" identifier="OJjCGSBH4p"/>
			<point x="686.2" y="324"/>
			<point x="672.2" y="300"/>
			<point x="634.2" y="274" type="curve" smooth="yes"/>
			<point x="522.2" y="197"/>
			<point x="349.2" y="133"/>
			<point x="230.2" y="99" type="curve" smooth="yes"/>
			<point x="193.2" y="88"/>
			<point x="169.2" y="85"/>
			<point x="145.2" y="85" type="curve" smooth="yes"/>
			<point x="73.2" y="85"/>
			<point x="41.2" y="127"/>
			<point x="49.2" y="177" type="curve" smooth="yes" identifier="1Q3IYNwLLH"/>
			<point x="57.2" y="221"/>
			<point x="80.2" y="238"/>
		</contour>
	</outline>
</glyph>
<glyph name="question" format="2">
	<unicode hex="003F"/>
	<advance width="541"/>
	<outline>
		<contour>
			<point x="125.7944788679" y="678" type="curve" smooth="yes"/>
			<point x="180.7944788679" y="705"/>
			<point x="265.7944788679" y="720"/>
			<point x="327.7944788679" y="720" type="curve" smooth="yes"/>
			<point x="496.7944788679" y="720"/>
			<point x="574.7944788679" y="651"/>
			<point x="555.7944788679" y="533" type="curve" smooth="yes" identifier="Icj0itFn8P"/>
			<point x="542.7944788679" y="454"/>
			<point x="483.7944788679" y="408"/>
			<point x="415.7944788679" y="379" type="curve" smooth="yes"/>
			<point x="340.7944788679" y="345"/>
			<point x="326.7944788679" y="336"/>
			<point x="324.7944788679" y="327" type="curve" smooth="yes" identifier="pfUtxlqyJZ"/>
			<point x="323.7944788679" y="319"/>
			<point x="338.7944788679" y="305"/>
			<point x="334.7944788679" y="283" type="curve" smooth="yes" identifier="QT4aNPYh8A"/>
			<point x="330.7944788679" y="259"/>
			<point x="304.7944788679" y="231"/>
			<point x="262.7944788679" y="231" type="curve" smooth="yes"/>
			<point x="185.7944788679" y="231"/>
			<point x="148.7944788679" y="287"/>
			<point x="158.7944788679" y="350" type="curve" smooth="yes" identifier="FTSm11IjEA"/>
			<point x="166.7944788679" y="394"/>
			<point x="198.7944788679" y="432"/>
			<point x="291.7944788679" y="469" type="curve" smooth="yes"/>
			<point x="362.7944788679" y="497"/>
			<point x="371.7944788679" y="509"/>
			<point x="373.7944788679" y="523" type="curve" smooth="yes" identifier="wgBHJPEYnP"/>
			<point x="376.7944788679" y="540"/>
			<point x="360.7944788679" y="550"/>
			<point x="310.7944788679" y="550" type="curve" smooth="yes"/>
			<point x="210.7944788679" y="550"/>
			<point x="178.7944788679" y="516"/>
			<point x="132.7944788679" y="516" type="curve" smooth="yes"/>
			<point x="86.7944788679" y="516"/>
			<point x="53.7944788679" y="543"/>
			<point x="63.7944788679" y="599" type="curve" smooth="yes" identifier="9Y5lmgFDmf"/>
			<point x="69.7944788679" y="636"/>
			<point x="89.7944788679" y="661"/>
		</contour>
		<contour>
			<point x="210.7944788679" y="-13" type="curve" smooth="yes"/>
			<point x="274.7944788679" y="-13"/>
			<point x="312.7944788679" y="18"/>
			<point x="320.7944788679" y="67" type="curve" smooth="yes" identifier="pAKxqP7uCU"/>
			<point x="328.7944788679" y="117"/>
			<point x="298.7944788679" y="165"/>
			<point x="216.7944788679" y="165" type="curve" smooth="yes"/>
			<point x="163.7944788679" y="165"/>
			<point x="123.7944788679" y="136"/>
			<point x="113.7944788679" y="76" type="curve" smooth="yes" identifier="B3KhboZ8yG"/>
			<point x="103.7944788679" y="19"/>
			<point x="140.7944788679" y="-13"/>
		</contour>
	</outline>
</glyph>
<glyph name="at" format="2">
	<unicode hex="0040"/>
	<advance width="924"/>
	<outline>
		<contour>
			<point x="556.0347781275" y="297" type="curve" smooth="yes"/>
			<point x="496.0347781275" y="278"/>
			<point x="451.0347781275" y="240"/>
			<point x="445.0347781275" y="206" type="curve" smooth="yes" identifier="6uLJynKDaA"/>
			<point x="442.0347781275" y="188"/>
			<point x="447.0347781275" y="172"/>
			<point x="459.0347781275" y="160" type="curve"/>
			<point x="353.0347781275" y="259" type="line"/>
			<point x="374.0347781275" y="245"/>
			<point x="390.0347781275" y="242"/>
			<point x="408.0347781275" y="242" type="curve" smooth="yes"/>
			<point x="424.0347781275" y="242"/>
			<point x="434.0347781275" y="255"/>
			<point x="463.0347781275" y="283" type="curve" smooth="yes"/>
			<point x="499.0347781275" y="320"/>
			<point x="537.0347781275" y="345"/>
			<point x="589.0347781275" y="345" type="curve" smooth="yes"/>
			<point x="624.0347781275" y="345"/>
			<point x="653.0347781275" y="332"/>
			<point x="670.0347781275" y="300" type="curve" smooth="yes"/>
			<point x="693.0347781275" y="254"/>
			<point x="703.0347781275" y="254"/>
			<point x="711.0347781275" y="254" type="curve"/>
			<point x="716.0347781275" y="254"/>
			<point x="721.0347781275" y="262"/>
			<point x="722.0347781275" y="268" type="curve" smooth="yes" identifier="2d1pJMDohE"/>
			<point x="739.0347781275" y="373"/>
			<point x="682.0347781275" y="543"/>
			<point x="562.0347781275" y="543" type="curve" smooth="yes"/>
			<point x="401.0347781275" y="543"/>
			<point x="227.0347781275" y="397"/>
			<point x="202.0347781275" y="248" type="curve" smooth="yes" identifier="8SD3uFyMdG"/>
			<point x="174.0347781275" y="79"/>
			<point x="314.0347781275" y="-5"/>
			<point x="471.0347781275" y="-5" type="curve" smooth="yes"/>
			<point x="618.0347781275" y="-5"/>
			<point x="671.0347781275" y="35"/>
			<point x="732.0347781275" y="35" type="curve" smooth="yes"/>
			<point x="776.0347781275" y="35"/>
			<point x="796.0347781275" y="18"/>
			<point x="789.0347781275" y="-24" type="curve" smooth="yes" identifier="ruhfBmSTHg"/>
			<point x="781.0347781275" y="-70"/>
			<point x="742.0347781275" y="-115"/>
			<point x="690.0347781275" y="-135" type="curve" smooth="yes"/>
			<point x="624.0347781275" y="-162"/>
			<point x="555.0347781275" y="-174"/>
			<point x="443.0347781275" y="-174" type="curve" smooth="yes"/>
			<point x="182.0347781275" y="-174"/>
			<point x="-9.9652218725" y="-13"/>
			<point x="33.0347781275" y="248" type="curve" smooth="yes" identifier="scW9IfqTV5"/>
			<point x="71.0347781275" y="477"/>
			<point x="338.0347781275" y="713"/>
			<point x="591.0347781275" y="713" type="curve" smooth="yes"/>
			<point x="837.0347781275" y="713"/>
			<point x="917.0347781275" y="425"/>
			<point x="891.0347781275" y="268" type="curve" smooth="yes" identifier="pCW04NX9it"/>
			<point x="870.0347781275" y="147"/>
			<point x="788.0347781275" y="85"/>
			<point x="704.0347781275" y="85" type="curve" smooth="yes"/>
			<point x="663.0347781275" y="85"/>
			<point x="611.0347781275" y="92"/>
			<point x="579.0347781275" y="133" type="curve" smooth="yes"/>
			<point x="551.0347781275" y="169"/>
			<point x="535.0347781275" y="183"/>
			<point x="498.0347781275" y="191" type="curve"/>
			<point x="582.0347781275" y="201" type="line"/>
			<point x="538.0347781275" y="132"/>
			<point x="483.0347781275" y="92"/>
			<point x="405.0347781275" y="92" type="curve" smooth="yes"/>
			<point x="330.0347781275" y="92"/>
			<point x="280.0347781275" y="138"/>
			<point x="295.0347781275" y="228" type="curve" smooth="yes" identifier="sS67y45rXd"/>
			<point x="314.0347781275" y="343"/>
			<point x="448.0347781275" y="451"/>
			<point x="525.0347781275" y="451" type="curve" smooth="yes"/>
			<point x="588.0347781275" y="451"/>
			<point x="627.0347781275" y="421"/>
			<point x="619.0347781275" y="370" type="curve" smooth="yes" identifier="bGpmWYWZO0"/>
			<point x="613.0347781275" y="335"/>
			<point x="575.0347781275" y="303"/>
		</contour>
	</outline>
</glyph>
<glyph name="A" format="2">
	<unicode hex="0041"/>
	<advance width="780"/>
	<outline>
		<contour>
			<point x="626.3484349287" y="-11" type="curve" smooth="yes"/>
			<point x="674.3484349287" y="-11"/>
			<point x="701.3484349287" y="10"/>
			<point x="707.3484349287" y="51" type="curve" smooth="yes" identifier="kgcn3Vo1LQ"/>
			<point x="718.3484349287" y="111"/>
			<point x="660.3484349287" y="175"/>
			<point x="670.3484349287" y="357" type="curve" smooth="yes"/>
			<point x="684.3484349287" y="610"/>
			<point x="656.3484349287" y="711"/>
			<point x="508.3484349287" y="711" type="curve" smooth="yes"/>
			<point x="413.3484349287" y="711"/>
			<point x="314.3484349287" y="642"/>
			<point x="246.3484349287" y="543" type="curve"/>
			<point x="317.3484349287" y="566" type="line"/>
			<point x="297.3484349287" y="605"/>
			<point x="265.3484349287" y="616"/>
			<point x="236.3484349287" y="616" type="curve" smooth="yes"/>
			<point x="202.3484349287" y="616"/>
			<point x="184.3484349287" y="600"/>
			<point x="180.3484349287" y="575" type="curve" smooth="yes" identifier="Q0FGCncfWl"/>
			<point x="158.3484349287" y="444"/>
			<point x="91.3484349287" y="332"/>
			<point x="63.3484349287" y="160" type="curve" smooth="yes" identifier="rVMFBTfIUv"/>
			<point x="42.3484349287" y="39"/>
			<point x="71.3484349287" y="-8"/>
			<point x="140.3484349287" y="-8" type="curve" smooth="yes"/>
			<point x="181.3484349287" y="-8"/>
			<point x="203.3484349287" y="10"/>
			<point x="215.3484349287" y="57" type="curve" smooth="yes"/>
			<point x="302.3484349287" y="354"/>
			<point x="414.3484349287" y="538"/>
			<point x="472.3484349287" y="538" type="curve" smooth="yes"/>
			<point x="490.3484349287" y="538"/>
			<point x="496.3484349287" y="530"/>
			<point x="487.3484349287" y="362" type="curve" smooth="yes"/>
			<point x="483.3484349287" y="260"/>
			<point x="483.3484349287" y="121"/>
			<point x="523.3484349287" y="54" type="curve" smooth="yes"/>
			<point x="550.3484349287" y="6"/>
			<point x="580.3484349287" y="-11"/>
		</contour>
		<contour>
			<point x="118.3484349287" y="160" type="curve" smooth="yes"/>
			<point x="223.3484349287" y="160"/>
			<point x="406.3484349287" y="198"/>
			<point x="613.3484349287" y="198" type="curve" smooth="yes"/>
			<point x="689.3484349287" y="198"/>
			<point x="747.3484349287" y="239"/>
			<point x="756.3484349287" y="296" type="curve" smooth="yes" identifier="KstmfvaBDg"/>
			<point x="764.3484349287" y="342"/>
			<point x="742.3484349287" y="372"/>
			<point x="653.3484349287" y="372" type="curve" smooth="yes"/>
			<point x="424.3484349287" y="372"/>
			<point x="239.3484349287" y="343"/>
			<point x="93.3484349287" y="305" type="curve" smooth="yes"/>
			<point x="49.3484349287" y="293"/>
			<point x="26.3484349287" y="270"/>
			<point x="21.3484349287" y="240" type="curve" smooth="yes" identifier="NQyHIek6Wt"/>
			<point x="13.3484349287" y="192"/>
			<point x="40.3484349287" y="160"/>
		</contour>
	</outline>
	<anchor name="top" x="497.9859425824" y="700"/>
	<anchor name="bottom" x="381.3484349287" y="0"/>
	<anchor name="ring" x="497.8193175714" y="699"/>
	<anchor name="ogonek" x="659.3484349287" y="0"/>
</glyph>
<glyph name="B" format="2">
	<unicode hex="0042"/>
	<advance width="633"/>
	<outline>
		<contour>
			<point x="226.7441810374" y="153"/>
			<point x="215.7441810374" y="197"/>
			<point x="240.7441810374" y="347" type="curve" smooth="yes" identifier="s97pgWx5NI"/>
			<point x="253.7441810374" y="425"/>
			<point x="260.7441810374" y="456"/>
			<point x="280.7441810374" y="535" type="curve" smooth="yes"/>
			<point x="293.7441810374" y="580"/>
			<point x="263.7441810374" y="629"/>
			<point x="210.7441810374" y="629" type="curve" smooth="yes"/>
			<point x="186.7441810374" y="629"/>
			<point x="150.7441810374" y="613"/>
			<point x="135.7441810374" y="579" type="curve" smooth="yes"/>
			<point x="96.7441810374" y="484"/>
			<point x="82.7441810374" y="438"/>
			<point x="64.7441810374" y="331" type="curve" smooth="yes" identifier="0TOAaZl8L0"/>
			<point x="34.7441810374" y="148"/>
			<point x="81.7441810374" y="-18"/>
			<point x="208.7441810374" y="-18" type="curve" smooth="yes"/>
			<point x="338.7441810374" y="-18"/>
			<point x="535.7441810374" y="47"/>
			<point x="564.7441810374" y="222" type="curve" smooth="yes" identifier="AaxVx9Oeow"/>
			<point x="575.7441810374" y="289"/>
			<point x="539.7441810374" y="362"/>
			<point x="399.7441810374" y="378" type="curve"/>
			<point x="399.7441810374" y="323" type="line"/>
			<point x="583.7441810374" y="386"/>
			<point x="630.7441810374" y="463"/>
			<point x="640.7441810374" y="525" type="curve" smooth="yes" identifier="9I6oAJgOQw"/>
			<point x="664.7441810374" y="668"/>
			<point x="503.7441810374" y="712"/>
			<point x="285.7441810374" y="712" type="curve" smooth="yes"/>
			<point x="148.7441810374" y="712"/>
			<point x="92.7441810374" y="668"/>
			<point x="79.7441810374" y="589" type="curve" smooth="yes" identifier="coDnvXZ7sd"/>
			<point x="73.7441810374" y="550"/>
			<point x="90.7441810374" y="524"/>
			<point x="132.7441810374" y="524" type="curve" smooth="yes"/>
			<point x="152.7441810374" y="524"/>
			<point x="202.7441810374" y="528"/>
			<point x="248.7441810374" y="528" type="curve" smooth="yes"/>
			<point x="447.7441810374" y="528"/>
			<point x="460.7441810374" y="522"/>
			<point x="456.7441810374" y="501" type="curve" smooth="yes" identifier="lnVu10yYKe"/>
			<point x="450.7441810374" y="462"/>
			<point x="251.7441810374" y="398"/>
			<point x="197.7441810374" y="383" type="curve" smooth="yes"/>
			<point x="175.7441810374" y="377"/>
			<point x="153.7441810374" y="355"/>
			<point x="150.7441810374" y="336" type="curve" smooth="yes" identifier="i0MrPRqVLp"/>
			<point x="143.7441810374" y="293"/>
			<point x="164.7441810374" y="262"/>
			<point x="201.7441810374" y="263" type="curve" smooth="yes"/>
			<point x="338.7441810374" y="266"/>
			<point x="399.7441810374" y="252"/>
			<point x="391.7441810374" y="205" type="curve" smooth="yes" identifier="0FNSwB5onr"/>
			<point x="387.7441810374" y="180"/>
			<point x="302.7441810374" y="153"/>
			<point x="254.7441810374" y="153" type="curve" smooth="yes"/>
		</contour>
	</outline>
	<anchor name="top" x="388.2272286208" y="700"/>
	<anchor name="bottom" x="228.5897209671" y="0"/>
</glyph>
<glyph name="C" format="2">
	<unicode hex="0043"/>
	<advance width="621"/>
	<outline>
		<contour>
			<point x="300.0589992648" y="-10" type="curve" smooth="yes"/>
			<point x="456.0589992648" y="-10"/>
			<point x="548.0589992648" y="60"/>
			<point x="563.0589992648" y="148" type="curve" smooth="yes" identifier="7HHrm0Zt7g"/>
			<point x="570.0589992648" y="190"/>
			<point x="557.0589992648" y="216"/>
			<point x="515.0589992648" y="216" type="curve" smooth="yes"/>
			<point x="463.0589992648" y="216"/>
			<point x="444.0589992648" y="157"/>
			<point x="339.0589992648" y="157" type="curve" smooth="yes"/>
			<point x="258.0589992648" y="157"/>
			<point x="216.0589992648" y="209"/>
			<point x="232.0589992648" y="304" type="curve" smooth="yes" identifier="ae7iV0dBCo"/>
			<point x="250.0589992648" y="411"/>
			<point x="342.0589992648" y="524"/>
			<point x="448.0589992648" y="524" type="curve" smooth="yes"/>
			<point x="474.0589992648" y="524"/>
			<point x="478.0589992648" y="517"/>
			<point x="475.0589992648" y="500" type="curve" smooth="yes" identifier="iVDqCwa6I4"/>
			<point x="471.0589992648" y="477"/>
			<point x="487.0589992648" y="459"/>
			<point x="516.0589992648" y="459" type="curve" smooth="yes"/>
			<point x="580.0589992648" y="459"/>
			<point x="623.0589992648" y="521"/>
			<point x="634.0589992648" y="591" type="curve" smooth="yes" identifier="ndCChkckFf"/>
			<point x="647.0589992648" y="667"/>
			<point x="613.0589992648" y="711"/>
			<point x="510.0589992648" y="711" type="curve" smooth="yes"/>
			<point x="310.0589992648" y="711"/>
			<point x="92.0589992648" y="519"/>
			<point x="57.0589992648" y="304" type="curve" smooth="yes" identifier="FA42XQ33T9"/>
			<point x="26.0589992648" y="121"/>
			<point x="115.0589992648" y="-10"/>
		</contour>
	</outline>
	<anchor name="top" x="452.5420468482" y="700"/>
	<anchor name="bottom" x="288.9045391945" y="0"/>
</glyph>
<glyph name="D" format="2">
	<unicode hex="0044"/>
	<advance width="722"/>
	<outline>
		<contour>
			<point x="187.4071117435" y="-10" type="curve" smooth="yes"/>
			<point x="390.4071117435" y="-10"/>
			<point x="668.4071117435" y="168"/>
			<point x="710.4071117435" y="422" type="curve" smooth="yes" identifier="PKUIfVk1ct"/>
			<point x="737.4071117435" y="580"/>
			<point x="640.4071117435" y="709"/>
			<point x="426.4071117435" y="709" type="curve" smooth="yes"/>
			<point x="327.4071117435" y="709"/>
			<point x="204.4071117435" y="689"/>
			<point x="131.4071117435" y="670" type="curve" smooth="yes"/>
			<point x="96.4071117435" y="661"/>
			<point x="77.4071117435" y="632"/>
			<point x="73.4071117435" y="607" type="curve" smooth="yes" identifier="6JDOVyZ54Y"/>
			<point x="64.4071117435" y="551"/>
			<point x="98.4071117435" y="494"/>
			<point x="180.4071117435" y="494" type="curve" smooth="yes"/>
			<point x="234.4071117435" y="494"/>
			<point x="288.4071117435" y="532"/>
			<point x="404.4071117435" y="532" type="curve" smooth="yes"/>
			<point x="508.4071117435" y="532"/>
			<point x="542.4071117435" y="485"/>
			<point x="530.4071117435" y="414" type="curve" smooth="yes" identifier="Gmw7Vld7IQ"/>
			<point x="511.4071117435" y="299"/>
			<point x="386.4071117435" y="186"/>
			<point x="158.4071117435" y="145" type="curve"/>
			<point x="273.4071117435" y="118" type="line"/>
			<point x="258.4071117435" y="159"/>
			<point x="258.4071117435" y="190"/>
			<point x="264.4071117435" y="227" type="curve" smooth="yes" identifier="5OvHHl14fD"/>
			<point x="277.4071117435" y="309"/>
			<point x="302.4071117435" y="427"/>
			<point x="312.4071117435" y="519" type="curve" smooth="yes"/>
			<point x="317.4071117435" y="559"/>
			<point x="283.4071117435" y="591"/>
			<point x="235.4071117435" y="591" type="curve" smooth="yes"/>
			<point x="174.4071117435" y="591"/>
			<point x="149.4071117435" y="574"/>
			<point x="141.4071117435" y="532" type="curve" smooth="yes"/>
			<point x="118.4071117435" y="422"/>
			<point x="102.4071117435" y="324"/>
			<point x="83.4071117435" y="208" type="curve" smooth="yes" identifier="9NtwiNzsBv"/>
			<point x="65.4071117435" y="100"/>
			<point x="105.4071117435" y="-10"/>
		</contour>
	</outline>
	<anchor name="top" x="458.890159327" y="700"/>
	<anchor name="bottom" x="198.2526516733" y="0"/>
</glyph>
<glyph name="E" format="2">
	<unicode hex="0045"/>
	<advance width="704"/>
	<outline>
		<contour>
			<point x="140.5030390849" y="523" type="curve" smooth="yes"/>
			<point x="104.5030390849" y="437"/>
			<point x="85.5030390849" y="353"/>
			<point x="75.5030390849" y="293" type="curve" smooth="yes" identifier="3Twybvoova"/>
			<point x="48.5030390849" y="130"/>
			<point x="119.5030390849" y="-7"/>
			<point x="318.5030390849" y="-7" type="curve" smooth="yes"/>
			<point x="514.5030390849" y="-7"/>
			<point x="628.5030390849" y="45"/>
			<point x="644.5030390849" y="139" type="curve" smooth="yes" identifier="cT8gK2jbps"/>
			<point x="650.5030390849" y="177"/>
			<point x="641.5030390849" y="201"/>
			<point x="591.5030390849" y="201" type="curve" smooth="yes"/>
			<point x="549.5030390849" y="201"/>
			<point x="469.5030390849" y="168"/>
			<point x="347.5030390849" y="168" type="curve" smooth="yes"/>
			<point x="273.5030390849" y="168"/>
			<point x="239.5030390849" y="222"/>
			<point x="250.5030390849" y="291" type="curve" smooth="yes" identifier="E95jjbw6Tu"/>
			<point x="269.5030390849" y="402"/>
			<point x="309.5030390849" y="500"/>
			<point x="316.5030390849" y="542" type="curve" smooth="yes" identifier="ZWKIc3l7zB"/>
			<point x="323.5030390849" y="583"/>
			<point x="283.5030390849" y="606"/>
			<point x="258.5030390849" y="606" type="curve" smooth="yes"/>
			<point x="207.5030390849" y="606"/>
			<point x="163.5030390849" y="577"/>
		</contour>
		<contour>
			<point x="198.5030390849" y="235" type="curve" smooth="yes"/>
			<point x="270.5030390849" y="251"/>
			<point x="345.5030390849" y="264"/>
			<point x="480.5030390849" y="272" type="curve" smooth="yes"/>
			<point x="537.5030390849" y="276"/>
			<point x="584.5030390849" y="312"/>
			<point x="595.5030390849" y="378" type="curve" smooth="yes" identifier="6re2am3iqM"/>
			<point x="604.5030390849" y="432"/>
			<point x="590.5030390849" y="444"/>
			<point x="520.5030390849" y="444" type="curve" smooth="yes"/>
			<point x="379.5030390849" y="439"/>
			<point x="301.5030390849" y="425"/>
			<point x="233.5030390849" y="410" type="curve" smooth="yes"/>
			<point x="195.5030390849" y="401"/>
			<point x="161.5030390849" y="364"/>
			<point x="154.5030390849" y="322" type="curve" smooth="yes" identifier="Yf7NEADGQr"/>
			<point x="145.5030390849" y="269"/>
			<point x="149.5030390849" y="225"/>
		</contour>
		<contour>
			<point x="222.5030390849" y="502" type="curve" smooth="yes"/>
			<point x="282.5030390849" y="502"/>
			<point x="477.5030390849" y="545"/>
			<point x="674.5030390849" y="545" type="curve" smooth="yes"/>
			<point x="705.5030390849" y="545"/>
			<point x="719.5030390849" y="568"/>
			<point x="723.5030390849" y="597" type="curve" smooth="yes" identifier="mdZAEhXxRw"/>
			<point x="734.5030390849" y="661"/>
			<point x="677.5030390849" y="712"/>
			<point x="566.5030390849" y="712" type="curve" smooth="yes"/>
			<point x="480.5030390849" y="712"/>
			<point x="305.5030390849" y="698"/>
			<point x="157.5030390849" y="652" type="curve" smooth="yes"/>
			<point x="121.5030390849" y="641"/>
			<point x="111.5030390849" y="622"/>
			<point x="106.5030390849" y="597" type="curve" smooth="yes" identifier="WBnuDbi5v9"/>
			<point x="98.5030390849" y="546"/>
			<point x="136.5030390849" y="502"/>
		</contour>
	</outline>
	<anchor name="top" x="460.1405467385" y="700"/>
	<anchor name="bottom" x="343.5030390849" y="0"/>
	<anchor name="ogonek" x="587.5007896753" y="54"/>
</glyph>
<glyph name="F" format="2">
	<unicode hex="0046"/>
	<advance width="594"/>
	<outline>
		<contour>
			<point x="253.5915599321" y="270" type="curve" smooth="yes" identifier="uZBw82Shx5"/>
			<point x="279.5915599321" y="428"/>
			<point x="303.5915599321" y="492"/>
			<point x="308.5915599321" y="525" type="curve" smooth="yes" identifier="SGX5Gi96o2"/>
			<point x="314.5915599321" y="556"/>
			<point x="302.5915599321" y="589"/>
			<point x="251.5915599321" y="589" type="curve" smooth="yes"/>
			<point x="197.5915599321" y="589"/>
			<point x="156.5915599321" y="555"/>
			<point x="133.5915599321" y="491" type="curve" smooth="yes"/>
			<point x="114.5915599321" y="437"/>
			<point x="97.5915599321" y="381"/>
			<point x="83.5915599321" y="294" type="curve" smooth="yes" identifier="jlaDHzmg1x"/>
			<point x="63.5915599321" y="174"/>
			<point x="72.5915599321" y="101"/>
			<point x="98.5915599321" y="55" type="curve" smooth="yes"/>
			<point x="126.5915599321" y="3"/>
			<point x="173.5915599321" y="-13"/>
			<point x="205.5915599321" y="-13" type="curve" smooth="yes"/>
			<point x="248.5915599321" y="-13"/>
			<point x="272.5915599321" y="13"/>
			<point x="278.5915599321" y="46" type="curve" smooth="yes" identifier="63ozkft8d7"/>
			<point x="288.5915599321" y="111"/>
			<point x="228.5915599321" y="122"/>
		</contour>
		<contour>
			<point x="526.5915599321" y="536" type="curve" smooth="yes"/>
			<point x="582.5915599321" y="536"/>
			<point x="608.5915599321" y="561"/>
			<point x="615.5915599321" y="601" type="curve" smooth="yes" identifier="Jr7At6JrmY"/>
			<point x="625.5915599321" y="662"/>
			<point x="570.5915599321" y="708"/>
			<point x="500.5915599321" y="708" type="curve" smooth="yes"/>
			<point x="379.5915599321" y="708"/>
			<point x="246.5915599321" y="685"/>
			<point x="136.5915599321" y="657" type="curve" smooth="yes"/>
			<point x="98.5915599321" y="647"/>
			<point x="76.5915599321" y="625"/>
			<point x="71.5915599321" y="594" type="curve" smooth="yes" identifier="utLJov0aHc"/>
			<point x="62.5915599321" y="543"/>
			<point x="90.5915599321" y="490"/>
			<point x="185.5915599321" y="490" type="curve" smooth="yes"/>
			<point x="227.5915599321" y="490"/>
			<point x="339.5915599321" y="536"/>
		</contour>
		<contour>
			<point x="186.5915599321" y="181" type="curve" smooth="yes"/>
			<point x="240.5915599321" y="195"/>
			<point x="356.5915599321" y="212"/>
			<point x="441.5915599321" y="218" type="curve" smooth="yes"/>
			<point x="495.5915599321" y="222"/>
			<point x="551.5915599321" y="255"/>
			<point x="562.5915599321" y="319" type="curve" smooth="yes" identifier="vYH1h3fgFv"/>
			<point x="569.5915599321" y="362"/>
			<point x="554.5915599321" y="387"/>
			<point x="497.5915599321" y="387" type="curve" smooth="yes"/>
			<point x="388.5915599321" y="387"/>
			<point x="280.5915599321" y="372"/>
			<point x="201.5915599321" y="354" type="curve" smooth="yes"/>
			<point x="161.5915599321" y="344"/>
			<point x="112.5915599321" y="293"/>
			<point x="105.5915599321" y="250" type="curve" smooth="yes" identifier="MxUxfTwlHy"/>
			<point x="97.5915599321" y="204"/>
			<point x="120.5915599321" y="165"/>
		</contour>
	</outline>
	<anchor name="top" x="394.2290675858" y="700"/>
	<anchor name="bottom" x="216.5915599321" y="0"/>
</glyph>
<glyph name="G" format="2">
	<unicode hex="0047"/>
	<advance width="818"/>
	<outline>
		<contour>
			<point x="428.3498348457" y="246" type="curve" smooth="yes"/>
			<point x="483.3498348457" y="246"/>
			<point x="549.3498348457" y="273"/>
			<point x="713.3498348457" y="273" type="curve" smooth="yes"/>
			<point x="779.3498348457" y="273"/>
			<point x="815.3498348457" y="320"/>
			<point x="824.3498348457" y="371" type="curve" smooth="yes" identifier="7I2JKeUUCa"/>
			<point x="831.3498348457" y="416"/>
			<point x="816.3498348457" y="439"/>
			<point x="719.3498348457" y="439" type="curve" smooth="yes"/>
			<point x="603.3498348457" y="437"/>
			<point x="512.3498348457" y="424"/>
			<point x="430.3498348457" y="400" type="curve" smooth="yes"/>
			<point x="375.3498348457" y="385"/>
			<point x="358.3498348457" y="368"/>
			<point x="352.3498348457" y="333" type="curve" smooth="yes" identifier="sQqGJrHl3z"/>
			<point x="344.3498348457" y="282"/>
			<point x="380.3498348457" y="246"/>
		</contour>
		<contour>
			<point x="652.3498348457" y="-118" type="curve" smooth="yes"/>
			<point x="693.3498348457" y="-118"/>
			<point x="724.3498348457" y="-95"/>
			<point x="731.3498348457" y="-54" type="curve" smooth="yes" identifier="yq33BYFPvM"/>
			<point x="735.3498348457" y="-30"/>
			<point x="733.3498348457" y="-20"/>
			<point x="719.3498348457" y="28" type="curve" smooth="yes"/>
			<point x="697.3498348457" y="95"/>
			<point x="695.3498348457" y="147"/>
			<point x="719.3498348457" y="289" type="curve" smooth="yes" identifier="ZOPYwlbuaX"/>
			<point x="723.3498348457" y="313"/>
			<point x="710.3498348457" y="322"/>
			<point x="674.3498348457" y="322" type="curve" smooth="yes"/>
			<point x="629.3498348457" y="322"/>
			<point x="595.3498348457" y="312"/>
			<point x="562.3498348457" y="277" type="curve" smooth="yes"/>
			<point x="488.3498348457" y="198"/>
			<point x="386.3498348457" y="162"/>
			<point x="293.3498348457" y="162" type="curve" smooth="yes"/>
			<point x="240.3498348457" y="162"/>
			<point x="218.3498348457" y="192"/>
			<point x="228.3498348457" y="254" type="curve" smooth="yes" identifier="XoYPDq7wPl"/>
			<point x="247.3498348457" y="364"/>
			<point x="383.3498348457" y="514"/>
			<point x="501.3498348457" y="514" type="curve" smooth="yes"/>
			<point x="540.3498348457" y="514"/>
			<point x="518.3498348457" y="477"/>
			<point x="565.3498348457" y="477" type="curve" smooth="yes"/>
			<point x="630.3498348457" y="477"/>
			<point x="685.3498348457" y="539"/>
			<point x="696.3498348457" y="608" type="curve" smooth="yes" identifier="vIFt7JRjff"/>
			<point x="706.3498348457" y="667"/>
			<point x="676.3498348457" y="708"/>
			<point x="585.3498348457" y="708" type="curve" smooth="yes"/>
			<point x="348.3498348457" y="708"/>
			<point x="77.3498348457" y="479"/>
			<point x="36.3498348457" y="237" type="curve" smooth="yes" identifier="kf7FQHOVKC"/>
			<point x="12.3498348457" y="88"/>
			<point x="88.3498348457" y="-10"/>
			<point x="247.3498348457" y="-10" type="curve" smooth="yes"/>
			<point x="358.3498348457" y="-10"/>
			<point x="476.3498348457" y="27"/>
			<point x="573.3498348457" y="100" type="curve"/>
			<point x="528.3498348457" y="124" type="line"/>
			<point x="527.3498348457" y="32"/>
			<point x="537.3498348457" y="-8"/>
			<point x="553.3498348457" y="-48" type="curve" smooth="yes"/>
			<point x="575.3498348457" y="-94"/>
			<point x="600.3498348457" y="-118"/>
		</contour>
	</outline>
	<anchor name="top" x="524.8328824292" y="700"/>
	<anchor name="bottom" x="357.1953747755" y="0"/>
</glyph>
<glyph name="H" format="2">
	<unicode hex="0048"/>
	<advance width="715"/>
	<outline>
		<contour>
			<point x="145.5121630974" y="-12" type="curve" smooth="yes"/>
			<point x="191.5121630974" y="-12"/>
			<point x="224.5121630974" y="15"/>
			<point x="232.5121630974" y="61" type="curve" smooth="yes" identifier="dCTN3PfmjA"/>
			<point x="254.5121630974" y="193"/>
			<point x="282.5121630974" y="385"/>
			<point x="315.5121630974" y="580" type="curve" smooth="yes" identifier="WtwEoaqYbI"/>
			<point x="330.5121630974" y="670"/>
			<point x="292.5121630974" y="709"/>
			<point x="231.5121630974" y="709" type="curve" smooth="yes"/>
			<point x="173.5121630974" y="709"/>
			<point x="142.5121630974" y="681"/>
			<point x="131.5121630974" y="612" type="curve" smooth="yes" identifier="FR5u9NUI7Z"/>
			<point x="122.5121630974" y="558"/>
			<point x="88.5121630974" y="259"/>
			<point x="57.5121630974" y="119" type="curve" smooth="yes"/>
			<point x="37.5121630974" y="31"/>
			<point x="79.5121630974" y="-12"/>
		</contour>
		<contour>
			<point x="536.5121630974" y="-10" type="curve" smooth="yes"/>
			<point x="584.5121630974" y="-10"/>
			<point x="609.5121630974" y="15"/>
			<point x="616.5121630974" y="57" type="curve" smooth="yes" identifier="4Um3dpkTtD"/>
			<point x="627.5121630974" y="118"/>
			<point x="612.5121630974" y="146"/>
			<point x="627.5121630974" y="233" type="curve" smooth="yes" identifier="NTujjLYWit"/>
			<point x="641.5121630974" y="316"/>
			<point x="669.5121630974" y="448"/>
			<point x="686.5121630974" y="554" type="curve" smooth="yes" identifier="04uYRIuhx5"/>
			<point x="703.5121630974" y="655"/>
			<point x="669.5121630974" y="704"/>
			<point x="611.5121630974" y="704" type="curve" smooth="yes"/>
			<point x="557.5121630974" y="704"/>
			<point x="529.5121630974" y="672"/>
			<point x="519.5121630974" y="613" type="curve" smooth="yes" identifier="g2wxrep0dM"/>
			<point x="506.5121630974" y="534"/>
			<point x="478.5121630974" y="417"/>
			<point x="449.5121630974" y="239" type="curve" smooth="yes" identifier="2wBagzOlN0"/>
			<point x="422.5121630974" y="77"/>
			<point x="450.5121630974" y="-10"/>
		</contour>
		<contour>
			<point x="191.5121630974" y="236" type="curve" smooth="yes"/>
			<point x="252.5121630974" y="236"/>
			<point x="356.5121630974" y="266"/>
			<point x="628.5121630974" y="266" type="curve" smooth="yes"/>
			<point x="659.5121630974" y="266"/>
			<point x="681.5121630974" y="289"/>
			<point x="687.5121630974" y="324" type="curve" smooth="yes" identifier="LhzE3YK7zO"/>
			<point x="697.5121630974" y="382"/>
			<point x="645.5121630974" y="429"/>
			<point x="542.5121630974" y="429" type="curve" smooth="yes"/>
			<point x="392.5121630974" y="429"/>
			<point x="237.5121630974" y="427"/>
			<point x="87.5121630974" y="383" type="curve" smooth="yes"/>
			<point x="57.5121630974" y="375"/>
			<point x="49.5121630974" y="359"/>
			<point x="45.5121630974" y="334" type="curve" smooth="yes" identifier="VFmxarPNt5"/>
			<point x="36.5121630974" y="283"/>
			<point x="65.5121630974" y="236"/>
		</contour>
	</outline>
	<anchor name="top" x="433.1496707511" y="700"/>
	<anchor name="bottom" x="316.5121630974" y="0"/>
</glyph>
<glyph name="I" format="2">
	<unicode hex="0049"/>
	<advance width="565"/>
	<outline>
		<contour>
			<point x="135.5657469385" y="-11" type="curve" smooth="yes"/>
			<point x="172.5657469385" y="-11"/>
			<point x="258.5657469385" y="0"/>
			<point x="360.5657469385" y="0" type="curve" smooth="yes"/>
			<point x="454.5657469385" y="0"/>
			<point x="501.5657469385" y="41"/>
			<point x="509.5657469385" y="91" type="curve" smooth="yes" identifier="suufRqyml7"/>
			<point x="516.5657469385" y="132"/>
			<point x="498.5657469385" y="164"/>
			<point x="396.5657469385" y="164" type="curve" smooth="yes"/>
			<point x="263.5657469385" y="164"/>
			<point x="235.5657469385" y="170"/>
			<point x="73.5657469385" y="152" type="curve" smooth="yes"/>
			<point x="28.5657469385" y="147"/>
			<point x="3.5657469385" y="122"/>
			<point x="-1.4342530615" y="88" type="curve" smooth="yes" identifier="KEjI5GeHGs"/>
			<point x="-11.4342530615" y="31"/>
			<point x="25.5657469385" y="-11"/>
		</contour>
		<contour>
			<point x="176.5657469385" y="519" type="curve" smooth="yes"/>
			<point x="225.5657469385" y="519"/>
			<point x="297.5657469385" y="531"/>
			<point x="444.5657469385" y="531" type="curve" smooth="yes"/>
			<point x="522.5657469385" y="531"/>
			<point x="588.5657469385" y="572"/>
			<point x="599.5657469385" y="635" type="curve" smooth="yes" identifier="Epzi2noNzP"/>
			<point x="608.5657469385" y="690"/>
			<point x="576.5657469385" y="710"/>
			<point x="491.5657469385" y="710" type="curve" smooth="yes"/>
			<point x="416.5657469385" y="710"/>
			<point x="304.5657469385" y="702"/>
			<point x="181.5657469385" y="687" type="curve" smooth="yes"/>
			<point x="129.5657469385" y="681"/>
			<point x="93.5657469385" y="653"/>
			<point x="85.5657469385" y="608" type="curve" smooth="yes" identifier="o9s3TfvirX"/>
			<point x="77.5657469385" y="560"/>
			<point x="97.5657469385" y="519"/>
		</contour>
		<contour>
			<point x="277.5657469385" y="120" type="curve" smooth="yes"/>
			<point x="318.5657469385" y="120"/>
			<point x="345.5657469385" y="143"/>
			<point x="352.5657469385" y="189" type="curve" smooth="yes" identifier="u0dMvfKTiB"/>
			<point x="375.5657469385" y="327"/>
			<point x="411.5657469385" y="437"/>
			<point x="420.5657469385" y="495" type="curve" smooth="yes" identifier="HdGjdyrgXP"/>
			<point x="429.5657469385" y="545"/>
			<point x="386.5657469385" y="585"/>
			<point x="327.5657469385" y="585" type="curve" smooth="yes"/>
			<point x="276.5657469385" y="585"/>
			<point x="256.5657469385" y="558"/>
			<point x="247.5657469385" y="504" type="curve" smooth="yes" identifier="MxZJD4eH2E"/>
			<point x="233.5657469385" y="422"/>
			<point x="200.5657469385" y="310"/>
			<point x="181.5657469385" y="197" type="curve" smooth="yes" identifier="xkfYoNUZhW"/>
			<point x="173.5657469385" y="150"/>
			<point x="211.5657469385" y="120"/>
		</contour>
	</outline>
	<anchor name="top" x="365.2032545921" y="700"/>
	<anchor name="bottom" x="248.5657469385" y="0"/>
	<anchor name="ogonek" x="438.2317471134" y="16"/>
</glyph>
<glyph name="J" format="2">
	<unicode hex="004A"/>
	<advance width="648"/>
	<outline>
		<contour>
			<point x="249.3863102143" y="-12" type="curve" smooth="yes"/>
			<point x="439.3863102143" y="-12"/>
			<point x="553.3863102143" y="68"/>
			<point x="583.3863102143" y="246" type="curve" smooth="yes" identifier="4c7Zh1rW9R"/>
			<point x="598.3863102143" y="336"/>
			<point x="587.3863102143" y="502"/>
			<point x="568.3863102143" y="591" type="curve" smooth="yes"/>
			<point x="555.3863102143" y="656"/>
			<point x="517.3863102143" y="674"/>
			<point x="443.3863102143" y="676" type="curve" smooth="yes"/>
			<point x="409.3863102143" y="676"/>
			<point x="375.3863102143" y="644"/>
			<point x="383.3863102143" y="607" type="curve" smooth="yes"/>
			<point x="407.3863102143" y="514"/>
			<point x="423.3863102143" y="356"/>
			<point x="409.3863102143" y="272" type="curve" smooth="yes" identifier="Nz9Zbhgbpl"/>
			<point x="396.3863102143" y="195"/>
			<point x="363.3863102143" y="161"/>
			<point x="278.3863102143" y="161" type="curve" smooth="yes"/>
			<point x="204.3863102143" y="161"/>
			<point x="187.3863102143" y="183"/>
			<point x="191.3863102143" y="204" type="curve" smooth="yes" identifier="YIkLV5keuw"/>
			<point x="196.3863102143" y="234"/>
			<point x="226.3863102143" y="258"/>
			<point x="231.3863102143" y="289" type="curve" smooth="yes" identifier="SibcM4gzmz"/>
			<point x="236.3863102143" y="316"/>
			<point x="221.3863102143" y="330"/>
			<point x="188.3863102143" y="330" type="curve" smooth="yes"/>
			<point x="83.3863102143" y="330"/>
			<point x="27.3863102143" y="232"/>
			<point x="16.3863102143" y="171" type="curve" smooth="yes" identifier="Fkb9Zl7Air"/>
			<point x="-2.6136897857" y="57"/>
			<point x="93.3863102143" y="-12"/>
		</contour>
		<contour>
			<point x="263.3863102143" y="526" type="curve" smooth="yes"/>
			<point x="343.3863102143" y="526"/>
			<point x="473.3863102143" y="544"/>
			<point x="604.3863102143" y="544" type="curve" smooth="yes"/>
			<point x="650.3863102143" y="544"/>
			<point x="677.3863102143" y="565"/>
			<point x="684.3863102143" y="604" type="curve" smooth="yes" identifier="E7xAkOTX9y"/>
			<point x="698.3863102143" y="693"/>
			<point x="614.3863102143" y="712"/>
			<point x="536.3863102143" y="712" type="curve" smooth="yes"/>
			<point x="436.3863102143" y="712"/>
			<point x="383.3863102143" y="700"/>
			<point x="311.3863102143" y="700" type="curve" smooth="yes"/>
			<point x="270.3863102143" y="700"/>
			<point x="232.3863102143" y="713"/>
			<point x="183.3863102143" y="713" type="curve" smooth="yes"/>
			<point x="151.3863102143" y="713"/>
			<point x="129.3863102143" y="691"/>
			<point x="123.3863102143" y="657" type="curve" smooth="yes" identifier="vAmaa9Uyo0"/>
			<point x="107.3863102143" y="561"/>
			<point x="197.3863102143" y="526"/>
		</contour>
	</outline>
	<anchor name="top" x="413.8693577978" y="700"/>
	<anchor name="bottom" x="267.2318501441" y="0"/>
</glyph>
<glyph name="K" format="2">
	<unicode hex="004B"/>
	<advance width="684"/>
	<outline>
		<contour>
			<point x="118.3292235406" y="-12" type="curve" smooth="yes"/>
			<point x="165.3292235406" y="-12"/>
			<point x="199.3292235406" y="13"/>
			<point x="206.3292235406" y="56" type="curve" smooth="yes" identifier="OMRk4DKQOr"/>
			<point x="213.3292235406" y="99"/>
			<point x="208.3292235406" y="131"/>
			<point x="218.3292235406" y="193" type="curve" smooth="yes" identifier="6JhA8HAtXz"/>
			<point x="241.3292235406" y="332"/>
			<point x="287.3292235406" y="467"/>
			<point x="301.3292235406" y="552" type="curve" smooth="yes" identifier="4ADvy9zsiG"/>
			<point x="312.3292235406" y="617"/>
			<point x="313.3292235406" y="711"/>
			<point x="212.3292235406" y="711" type="curve" smooth="yes"/>
			<point x="160.3292235406" y="711"/>
			<point x="139.3292235406" y="688"/>
			<point x="132.3292235406" y="650" type="curve" smooth="yes" identifier="C2WIpb3ZN8"/>
			<point x="127.3292235406" y="620"/>
			<point x="134.3292235406" y="598"/>
			<point x="123.3292235406" y="537" type="curve" smooth="yes" identifier="7YHEW66xl6"/>
			<point x="112.3292235406" y="471"/>
			<point x="68.3292235406" y="339"/>
			<point x="43.3292235406" y="187" type="curve" smooth="yes" identifier="kL6u7e03n9"/>
			<point x="19.3292235406" y="40"/>
			<point x="34.3292235406" y="-12"/>
		</contour>
		<contour>
			<point x="568.3292235406" y="-11" type="curve" smooth="yes"/>
			<point x="626.3292235406" y="-11"/>
			<point x="654.3292235406" y="21"/>
			<point x="663.3292235406" y="72" type="curve" smooth="yes" identifier="jpfdKFdD5l"/>
			<point x="671.3292235406" y="120"/>
			<point x="654.3292235406" y="151"/>
			<point x="613.3292235406" y="163" type="curve" smooth="yes"/>
			<point x="498.3292235406" y="197"/>
			<point x="382.3292235406" y="289"/>
			<point x="388.3292235406" y="324" type="curve" smooth="yes" identifier="8VAPSRbZoX"/>
			<point x="395.3292235406" y="364"/>
			<point x="497.3292235406" y="467"/>
			<point x="586.3292235406" y="521" type="curve" smooth="yes"/>
			<point x="645.3292235406" y="556"/>
			<point x="668.3292235406" y="584"/>
			<point x="675.3292235406" y="627" type="curve" smooth="yes" identifier="BTiPP290kO"/>
			<point x="686.3292235406" y="691"/>
			<point x="657.3292235406" y="713"/>
			<point x="611.3292235406" y="713" type="curve" smooth="yes"/>
			<point x="584.3292235406" y="713"/>
			<point x="553.3292235406" y="704"/>
			<point x="521.3292235406" y="680" type="curve" smooth="yes"/>
			<point x="393.3292235406" y="586"/>
			<point x="237.3292235406" y="424"/>
			<point x="215.3292235406" y="292" type="curve" smooth="yes" identifier="3b0sqRORwd"/>
			<point x="193.3292235406" y="162"/>
			<point x="454.3292235406" y="-11"/>
		</contour>
	</outline>
	<anchor name="top" x="404.9667311943" y="700"/>
	<anchor name="bottom" x="288.3292235406" y="0"/>
</glyph>
<glyph name="L" format="2">
	<unicode hex="004C"/>
	<advance width="536"/>
	<outline>
		<contour>
			<point x="245.9049323617" y="-9" type="curve" smooth="yes"/>
			<point x="308.9049323617" y="-9"/>
			<point x="385.9049323617" y="6"/>
			<point x="434.9049323617" y="42" type="curve" smooth="yes"/>
			<point x="474.9049323617" y="72"/>
			<point x="493.9049323617" y="111"/>
			<point x="500.9049323617" y="153" type="curve" smooth="yes" identifier="qWyI99Bico"/>
			<point x="506.9049323617" y="188"/>
			<point x="490.9049323617" y="222"/>
			<point x="458.9049323617" y="222" type="curve" smooth="yes"/>
			<point x="420.9049323617" y="222"/>
			<point x="379.9049323617" y="164"/>
			<point x="280.9049323617" y="164" type="curve" smooth="yes"/>
			<point x="218.9049323617" y="164"/>
			<point x="199.9049323617" y="185"/>
			<point x="207.9049323617" y="234" type="curve" smooth="yes" identifier="wXTT1d7Ebd"/>
			<point x="217.9049323617" y="293"/>
			<point x="293.9049323617" y="441"/>
			<point x="315.9049323617" y="570" type="curve" smooth="yes" identifier="RnnvRZGiU4"/>
			<point x="325.9049323617" y="630"/>
			<point x="304.9049323617" y="710"/>
			<point x="232.9049323617" y="710" type="curve" smooth="yes"/>
			<point x="184.9049323617" y="710"/>
			<point x="160.9049323617" y="680"/>
			<point x="153.9049323617" y="638" type="curve" smooth="yes" identifier="lmjbFqDO9w"/>
			<point x="136.9049323617" y="533"/>
			<point x="63.9049323617" y="401"/>
			<point x="38.9049323617" y="251" type="curve" smooth="yes" identifier="27ybVcFuxr"/>
			<point x="10.9049323617" y="83"/>
			<point x="82.9049323617" y="-9"/>
		</contour>
	</outline>
	<anchor name="top" x="257.5424400154" y="700"/>
	<anchor name="bottom" x="246.9049323617" y="0"/>
</glyph>
<glyph name="M" format="2">
	<unicode hex="004D"/>
	<advance width="1050"/>
	<outline>
		<contour>
			<point x="265.0161116869" y="529" type="curve"/>
			<point x="237.0161116869" y="513" type="line"/>
			<point x="301.0161116869" y="624"/>
			<point x="377.0161116869" y="709"/>
			<point x="451.0161116869" y="709" type="curve" smooth="yes"/>
			<point x="516.0161116869" y="709"/>
			<point x="545.0161116869" y="668"/>
			<point x="552.0161116869" y="504" type="curve" smooth="yes"/>
			<point x="558.0161116869" y="363"/>
			<point x="546.0161116869" y="298"/>
			<point x="568.0161116869" y="215" type="curve"/>
			<point x="509.0161116869" y="253" type="line"/>
			<point x="554.0161116869" y="338"/>
			<point x="602.0161116869" y="468"/>
			<point x="666.0161116869" y="565" type="curve" smooth="yes"/>
			<point x="719.0161116869" y="643"/>
			<point x="778.0161116869" y="716"/>
			<point x="862.0161116869" y="716" type="curve" smooth="yes"/>
			<point x="951.0161116869" y="716"/>
			<point x="995.0161116869" y="649"/>
			<point x="986.0161116869" y="486" type="curve" smooth="yes"/>
			<point x="977.0161116869" y="338"/>
			<point x="972.0161116869" y="194"/>
			<point x="993.0161116869" y="104" type="curve" smooth="yes"/>
			<point x="1008.0161116869" y="42"/>
			<point x="975.0161116869" y="-9"/>
			<point x="907.0161116869" y="-9" type="curve" smooth="yes"/>
			<point x="853.0161116869" y="-9"/>
			<point x="823.0161116869" y="17"/>
			<point x="804.0161116869" y="67" type="curve" smooth="yes"/>
			<point x="773.0161116869" y="150"/>
			<point x="791.0161116869" y="309"/>
			<point x="797.0161116869" y="407" type="curve" smooth="yes"/>
			<point x="801.0161116869" y="462"/>
			<point x="800.0161116869" y="510"/>
			<point x="780.0161116869" y="555" type="curve"/>
			<point x="836.0161116869" y="528" type="line"/>
			<point x="748.0161116869" y="444"/>
			<point x="703.0161116869" y="279"/>
			<point x="578.0161116869" y="51" type="curve" smooth="yes"/>
			<point x="554.0161116869" y="5"/>
			<point x="528.0161116869" y="-10"/>
			<point x="489.0161116869" y="-10" type="curve" smooth="yes"/>
			<point x="450.0161116869" y="-10"/>
			<point x="431.0161116869" y="4"/>
			<point x="417.0161116869" y="37" type="curve" smooth="yes"/>
			<point x="390.0161116869" y="101"/>
			<point x="381.0161116869" y="180"/>
			<point x="382.0161116869" y="300" type="curve" smooth="yes"/>
			<point x="383.0161116869" y="379"/>
			<point x="385.0161116869" y="431"/>
			<point x="370.0161116869" y="487" type="curve"/>
			<point x="384.0161116869" y="485" type="line"/>
			<point x="282.0161116869" y="361"/>
			<point x="239.0161116869" y="226"/>
			<point x="201.0161116869" y="67" type="curve" smooth="yes"/>
			<point x="187.0161116869" y="9"/>
			<point x="156.0161116869" y="-12"/>
			<point x="111.0161116869" y="-12" type="curve" smooth="yes"/>
			<point x="40.0161116869" y="-12"/>
			<point x="18.0161116869" y="45"/>
			<point x="51.0161116869" y="243" type="curve" smooth="yes" identifier="v0T65XGZbA"/>
			<point x="63.0161116869" y="313"/>
			<point x="83.0161116869" y="382"/>
			<point x="93.0161116869" y="444" type="curve" smooth="yes" identifier="ofPfwxsqE6"/>
			<point x="101.0161116869" y="490"/>
			<point x="96.0161116869" y="536"/>
			<point x="102.0161116869" y="572" type="curve" smooth="yes" identifier="CoAxIsI7uf"/>
			<point x="109.0161116869" y="613"/>
			<point x="131.0161116869" y="642"/>
			<point x="180.0161116869" y="642" type="curve" smooth="yes"/>
			<point x="245.0161116869" y="642"/>
			<point x="274.0161116869" y="581"/>
		</contour>
	</outline>
	<anchor name="top" x="627.6536193406" y="700"/>
	<anchor name="bottom" x="491.0161116869" y="0"/>
</glyph>
<glyph name="N" format="2">
	<unicode hex="004E"/>
	<advance width="801"/>
	<outline>
		<contour>
			<point x="85.2278543277" y="-18" type="curve" smooth="yes"/>
			<point x="133.2278543277" y="-18"/>
			<point x="164.2278543277" y="4"/>
			<point x="180.2278543277" y="41" type="curve" smooth="yes"/>
			<point x="212.2278543277" y="114"/>
			<point x="240.2278543277" y="217"/>
			<point x="261.2278543277" y="342" type="curve" smooth="yes" identifier="rrzYYS2AJs"/>
			<point x="269.2278543277" y="392"/>
			<point x="272.2278543277" y="420"/>
			<point x="272.2278543277" y="488" type="curve"/>
			<point x="240.2278543277" y="482" type="line"/>
			<point x="358.2278543277" y="257"/>
			<point x="359.2278543277" y="-17"/>
			<point x="535.2278543277" y="-17" type="curve" smooth="yes"/>
			<point x="665.2278543277" y="-17"/>
			<point x="704.2278543277" y="92"/>
			<point x="729.2278543277" y="242" type="curve" smooth="yes" identifier="MYFvnOtGX8"/>
			<point x="754.2278543277" y="391"/>
			<point x="746.2278543277" y="468"/>
			<point x="793.2278543277" y="597" type="curve" smooth="yes"/>
			<point x="810.2278543277" y="640"/>
			<point x="806.2278543277" y="715"/>
			<point x="722.2278543277" y="715" type="curve" smooth="yes"/>
			<point x="685.2278543277" y="715"/>
			<point x="660.2278543277" y="695"/>
			<point x="637.2278543277" y="643" type="curve" smooth="yes"/>
			<point x="579.2278543277" y="508"/>
			<point x="592.2278543277" y="388"/>
			<point x="565.2278543277" y="227" type="curve" smooth="yes" identifier="vUUTIQmxa1"/>
			<point x="550.2278543277" y="139"/>
			<point x="509.2278543277" y="116"/>
			<point x="485.2278543277" y="106" type="curve"/>
			<point x="591.2278543277" y="152" type="line"/>
			<point x="475.2278543277" y="236"/>
			<point x="455.2278543277" y="710"/>
			<point x="215.2278543277" y="710" type="curve" smooth="yes"/>
			<point x="163.2278543277" y="710"/>
			<point x="131.2278543277" y="678"/>
			<point x="124.2278543277" y="638" type="curve" smooth="yes" identifier="EikoXGJhg0"/>
			<point x="119.2278543277" y="605"/>
			<point x="110.2278543277" y="457"/>
			<point x="91.2278543277" y="342" type="curve" smooth="yes" identifier="jff5PPlTcM"/>
			<point x="56.2278543277" y="133"/>
			<point x="27.2278543277" y="102"/>
			<point x="18.2278543277" y="46" type="curve" smooth="yes" identifier="UtkkiEGGtd"/>
			<point x="12.2278543277" y="13"/>
			<point x="27.2278543277" y="-18"/>
		</contour>
	</outline>
	<anchor name="top" x="461.8653619814" y="700"/>
	<anchor name="bottom" x="345.2278543277" y="0"/>
</glyph>
<glyph name="O" format="2">
	<unicode hex="004F"/>
	<advance width="756"/>
	<outline>
		<contour>
			<point x="371.8788622567" y="486" type="curve" smooth="yes"/>
			<point x="267.8788622567" y="420"/>
			<point x="236.8788622567" y="365"/>
			<point x="223.8788622567" y="290" type="curve" smooth="yes" identifier="l5ZZUtwMcG"/>
			<point x="208.8788622567" y="199"/>
			<point x="264.8788622567" y="156"/>
			<point x="345.8788622567" y="156" type="curve" smooth="yes"/>
			<point x="438.8788622567" y="156"/>
			<point x="529.8788622567" y="220"/>
			<point x="542.8788622567" y="300" type="curve" smooth="yes" identifier="SfISeepySe"/>
			<point x="560.8788622567" y="411"/>
			<point x="506.8788622567" y="536"/>
			<point x="435.8788622567" y="536" type="curve" smooth="yes"/>
			<point x="424.8788622567" y="536"/>
			<point x="416.8788622567" y="528"/>
			<point x="413.8788622567" y="512" type="curve" smooth="yes" identifier="8svuJVa4y7"/>
			<point x="409.8788622567" y="484"/>
			<point x="390.8788622567" y="469"/>
			<point x="364.8788622567" y="469" type="curve" smooth="yes"/>
			<point x="310.8788622567" y="469"/>
			<point x="263.8788622567" y="515"/>
			<point x="278.8788622567" y="606" type="curve" smooth="yes" identifier="xU80xpgQ9F"/>
			<point x="287.8788622567" y="661"/>
			<point x="349.8788622567" y="711"/>
			<point x="444.8788622567" y="711" type="curve" smooth="yes"/>
			<point x="644.8788622567" y="711"/>
			<point x="752.8788622567" y="505"/>
			<point x="718.8788622567" y="300" type="curve" smooth="yes" identifier="k6FeYY8xg8"/>
			<point x="688.8788622567" y="123"/>
			<point x="506.8788622567" y="-10"/>
			<point x="317.8788622567" y="-10" type="curve" smooth="yes"/>
			<point x="139.8788622567" y="-10"/>
			<point x="19.8788622567" y="105"/>
			<point x="50.8788622567" y="290" type="curve" smooth="yes" identifier="sqgYkYSWML"/>
			<point x="82.8788622567" y="481"/>
			<point x="276.8788622567" y="619"/>
			<point x="342.8788622567" y="619" type="curve" smooth="yes"/>
			<point x="376.8788622567" y="619"/>
			<point x="392.8788622567" y="611"/>
			<point x="406.8788622567" y="584" type="curve" smooth="yes"/>
			<point x="429.8788622567" y="542"/>
			<point x="408.8788622567" y="509"/>
		</contour>
	</outline>
	<anchor name="top" x="441.3619098401" y="700"/>
	<anchor name="bottom" x="324.7244021864" y="0"/>
	<anchor name="ogonek" x="472.5565275035" y="29"/>
</glyph>
<glyph name="P" format="2">
	<unicode hex="0050"/>
	<advance width="642"/>
	<outline>
		<contour>
			<point x="58.8773292417" y="135" type="curve" smooth="yes" identifier="KSuvA6AqLX"/>
			<point x="41.8773292417" y="30"/>
			<point x="82.8773292417" y="-10"/>
			<point x="140.8773292417" y="-10" type="curve" smooth="yes"/>
			<point x="202.8773292417" y="-10"/>
			<point x="220.8773292417" y="34"/>
			<point x="230.8773292417" y="97" type="curve" smooth="yes" identifier="jZC0nScmYA"/>
			<point x="259.8773292417" y="270"/>
			<point x="231.8773292417" y="365"/>
			<point x="248.8773292417" y="466" type="curve" smooth="yes" identifier="nx7lP9I1Yz"/>
			<point x="255.8773292417" y="509"/>
			<point x="304.8773292417" y="533"/>
			<point x="393.8773292417" y="533" type="curve" smooth="yes"/>
			<point x="438.8773292417" y="533"/>
			<point x="478.8773292417" y="516"/>
			<point x="472.8773292417" y="480" type="curve" smooth="yes" identifier="aK05eT1qfa"/>
			<point x="462.8773292417" y="418"/>
			<point x="373.8773292417" y="348"/>
			<point x="298.8773292417" y="348" type="curve" smooth="yes"/>
			<point x="241.8773292417" y="348"/>
			<point x="232.8773292417" y="366"/>
			<point x="207.8773292417" y="366" type="curve" smooth="yes"/>
			<point x="172.8773292417" y="366"/>
			<point x="140.8773292417" y="344"/>
			<point x="133.8773292417" y="303" type="curve" smooth="yes" identifier="R52CF9UT8t"/>
			<point x="122.8773292417" y="236"/>
			<point x="182.8773292417" y="173"/>
			<point x="276.8773292417" y="173" type="curve" smooth="yes"/>
			<point x="449.8773292417" y="173"/>
			<point x="620.8773292417" y="331"/>
			<point x="645.8773292417" y="480" type="curve" smooth="yes" identifier="mEUGBkR68A"/>
			<point x="669.8773292417" y="625"/>
			<point x="565.8773292417" y="708"/>
			<point x="421.8773292417" y="708" type="curve" smooth="yes"/>
			<point x="197.8773292417" y="708"/>
			<point x="99.8773292417" y="612"/>
			<point x="75.8773292417" y="466" type="curve" smooth="yes" identifier="yXfdVeSZdq"/>
			<point x="57.8773292417" y="363"/>
			<point x="88.8773292417" y="311"/>
		</contour>
	</outline>
	<anchor name="top" x="412.3603768251" y="700"/>
	<anchor name="bottom" x="142.7228691715" y="0"/>
</glyph>
<glyph name="Q" format="2">
	<unicode hex="0051"/>
	<advance width="784"/>
	<outline>
		<contour>
			<point x="505.8634090834" y="257" type="curve" smooth="yes"/>
			<point x="524.8634090834" y="227"/>
			<point x="550.8634090834" y="134"/>
			<point x="586.8634090834" y="73" type="curve" smooth="yes"/>
			<point x="640.8634090834" y="-15"/>
			<point x="618.8634090834" y="-108"/>
			<point x="538.8634090834" y="-108" type="curve" smooth="yes"/>
			<point x="502.8634090834" y="-108"/>
			<point x="484.8634090834" y="-99"/>
			<point x="454.8634090834" y="-59" type="curve" smooth="yes"/>
			<point x="409.8634090834" y="2"/>
			<point x="376.8634090834" y="128"/>
			<point x="335.8634090834" y="200" type="curve" smooth="yes"/>
			<point x="296.8634090834" y="271"/>
			<point x="322.8634090834" y="324"/>
			<point x="396.8634090834" y="324" type="curve" smooth="yes"/>
			<point x="450.8634090834" y="324"/>
			<point x="477.8634090834" y="302"/>
		</contour>
		<contour>
			<point x="375.8634090834" y="510" type="curve" smooth="yes"/>
			<point x="294.8634090834" y="476"/>
			<point x="237.8634090834" y="392"/>
			<point x="224.8634090834" y="313" type="curve" smooth="yes" identifier="iDTL1F6bi5"/>
			<point x="211.8634090834" y="237"/>
			<point x="248.8634090834" y="166"/>
			<point x="379.8634090834" y="166" type="curve" smooth="yes"/>
			<point x="483.8634090834" y="166"/>
			<point x="560.8634090834" y="239"/>
			<point x="572.8634090834" y="315" type="curve" smooth="yes" identifier="AIgVHkFl5g"/>
			<point x="588.8634090834" y="410"/>
			<point x="543.8634090834" y="524"/>
			<point x="462.8634090834" y="524" type="curve" smooth="yes"/>
			<point x="417.8634090834" y="524"/>
			<point x="390.8634090834" y="500"/>
			<point x="360.8634090834" y="455" type="curve" smooth="yes"/>
			<point x="339.8634090834" y="424"/>
			<point x="322.8634090834" y="414"/>
			<point x="299.8634090834" y="414" type="curve" smooth="yes"/>
			<point x="245.8634090834" y="414"/>
			<point x="222.8634090834" y="438"/>
			<point x="232.8634090834" y="497" type="curve" smooth="yes" identifier="wAjRssr55s"/>
			<point x="247.8634090834" y="587"/>
			<point x="387.8634090834" y="709"/>
			<point x="508.8634090834" y="709" type="curve" smooth="yes"/>
			<point x="673.8634090834" y="709"/>
			<point x="786.8634090834" y="546"/>
			<point x="749.8634090834" y="327" type="curve" smooth="yes" identifier="i7pmfc52ew"/>
			<point x="721.8634090834" y="156"/>
			<point x="565.8634090834" y="-9"/>
			<point x="350.8634090834" y="-9" type="curve" smooth="yes"/>
			<point x="93.8634090834" y="-9"/>
			<point x="25.8634090834" y="144"/>
			<point x="53.8634090834" y="313" type="curve" smooth="yes" identifier="uu3RMVH8pU"/>
			<point x="84.8634090834" y="496"/>
			<point x="263.8634090834" y="656"/>
			<point x="353.8634090834" y="656" type="curve" smooth="yes"/>
			<point x="392.8634090834" y="656"/>
			<point x="444.8634090834" y="617"/>
			<point x="437.8634090834" y="574" type="curve" smooth="yes" identifier="6jEUwbke9g"/>
			<point x="432.8634090834" y="547"/>
			<point x="424.8634090834" y="531"/>
		</contour>
	</outline>
	<anchor name="top" x="507.5009167371" y="700"/>
	<anchor name="bottom" x="390.8634090834" y="0"/>
</glyph>
<glyph name="R" format="2">
	<unicode hex="0052"/>
	<advance width="756"/>
	<outline>
		<contour>
			<point x="186.9648893999" y="679" type="curve" smooth="yes"/>
			<point x="122.9648893999" y="679"/>
			<point x="96.9648893999" y="643"/>
			<point x="102.9648893999" y="588" type="curve" smooth="yes"/>
			<point x="113.9648893999" y="489"/>
			<point x="128.9648893999" y="422"/>
			<point x="107.9648893999" y="313" type="curve"/>
			<point x="60.9648893999" y="240"/>
			<point x="33.9648893999" y="175"/>
			<point x="25.9648893999" y="126" type="curve" smooth="yes" identifier="ERtu2XCEJK"/>
			<point x="10.9648893999" y="35"/>
			<point x="54.9648893999" y="-13"/>
			<point x="110.9648893999" y="-13" type="curve" smooth="yes"/>
			<point x="161.9648893999" y="-13"/>
			<point x="191.9648893999" y="15"/>
			<point x="200.9648893999" y="65" type="curve" smooth="yes" identifier="cenzQC3bwy"/>
			<point x="268.9648893999" y="473"/>
			<point x="525.9648893999" y="540"/>
			<point x="552.9648893999" y="540" type="curve" smooth="yes"/>
			<point x="566.9648893999" y="540"/>
			<point x="571.9648893999" y="534"/>
			<point x="569.9648893999" y="520" type="curve" smooth="yes" identifier="fcXTMMY3WV"/>
			<point x="562.9648893999" y="482"/>
			<point x="463.9648893999" y="371"/>
			<point x="220.9648893999" y="323" type="curve" smooth="yes"/>
			<point x="179.9648893999" y="315"/>
			<point x="151.9648893999" y="237"/>
			<point x="169.9648893999" y="206" type="curve" smooth="yes"/>
			<point x="231.9648893999" y="104"/>
			<point x="481.9648893999" y="-12"/>
			<point x="575.9648893999" y="-12" type="curve" smooth="yes"/>
			<point x="648.9648893999" y="-12"/>
			<point x="694.9648893999" y="22"/>
			<point x="703.9648893999" y="77" type="curve" smooth="yes" identifier="rbB16XgSa3"/>
			<point x="708.9648893999" y="111"/>
			<point x="693.9648893999" y="130"/>
			<point x="626.9648893999" y="146" type="curve" smooth="yes"/>
			<point x="553.9648893999" y="165"/>
			<point x="472.9648893999" y="193"/>
			<point x="398.9648893999" y="233" type="curve"/>
			<point x="582.9648893999" y="286"/>
			<point x="723.9648893999" y="400"/>
			<point x="744.9648893999" y="529" type="curve" smooth="yes" identifier="LQDX8x1GG3"/>
			<point x="761.9648893999" y="630"/>
			<point x="722.9648893999" y="710"/>
			<point x="594.9648893999" y="710" type="curve" smooth="yes"/>
			<point x="477.9648893999" y="710"/>
			<point x="356.9648893999" y="636"/>
			<point x="267.9648893999" y="528" type="curve"/>
			<point x="296.9648893999" y="524" type="line"/>
			<point x="290.9648893999" y="640"/>
			<point x="261.9648893999" y="679"/>
		</contour>
	</outline>
	<anchor name="top" x="442.4479369834" y="700"/>
	<anchor name="bottom" x="325.8104293297" y="0"/>
</glyph>
<glyph name="S" format="2">
	<unicode hex="0053"/>
	<advance width="578"/>
	<outline>
		<contour>
			<point x="208.519321086" y="-9" type="curve" smooth="yes"/>
			<point x="405.519321086" y="-9"/>
			<point x="511.519321086" y="46"/>
			<point x="531.519321086" y="168" type="curve" smooth="yes" identifier="zlze0KZGKw"/>
			<point x="563.519321086" y="362"/>
			<point x="237.519321086" y="385"/>
			<point x="248.519321086" y="451" type="curve" smooth="yes" identifier="P5iRrNovOm"/>
			<point x="253.519321086" y="481"/>
			<point x="364.519321086" y="518"/>
			<point x="518.519321086" y="546" type="curve" smooth="yes"/>
			<point x="556.519321086" y="553"/>
			<point x="578.519321086" y="581"/>
			<point x="583.519321086" y="615" type="curve" smooth="yes" identifier="HWvm64Ewxd"/>
			<point x="592.519321086" y="664"/>
			<point x="575.519321086" y="710"/>
			<point x="503.519321086" y="710" type="curve" smooth="yes"/>
			<point x="380.519321086" y="710"/>
			<point x="96.519321086" y="612"/>
			<point x="70.519321086" y="455" type="curve" smooth="yes" identifier="JrUKGAbkLz"/>
			<point x="37.519321086" y="257"/>
			<point x="328.519321086" y="236"/>
			<point x="351.519321086" y="172" type="curve"/>
			<point x="305.519321086" y="161"/>
			<point x="280.519321086" y="158"/>
			<point x="219.519321086" y="158" type="curve" smooth="yes"/>
			<point x="142.519321086" y="158"/>
			<point x="127.519321086" y="185"/>
			<point x="86.519321086" y="185" type="curve" smooth="yes"/>
			<point x="52.519321086" y="185"/>
			<point x="34.519321086" y="163"/>
			<point x="28.519321086" y="129" type="curve" smooth="yes" identifier="ZtFCGACtKZ"/>
			<point x="16.519321086" y="54"/>
			<point x="75.519321086" y="-9"/>
		</contour>
	</outline>
	<anchor name="top" x="367.0023686694" y="700"/>
	<anchor name="bottom" x="250.3648610157" y="0"/>
</glyph>
<glyph name="T" format="2">
	<unicode hex="0054"/>
	<advance width="625"/>
	<outline>
		<contour>
			<point x="269.6362771469" y="568" type="curve" smooth="yes"/>
			<point x="198.6362771469" y="286"/>
			<point x="179.6362771469" y="195"/>
			<point x="190.6362771469" y="85" type="curve" smooth="yes"/>
			<point x="200.6362771469" y="10"/>
			<point x="237.6362771469" y="-13"/>
			<point x="282.6362771469" y="-13" type="curve" smooth="yes"/>
			<point x="333.6362771469" y="-13"/>
			<point x="360.6362771469" y="6"/>
			<point x="369.6362771469" y="61" type="curve" smooth="yes" identifier="v1w2aqxFqs"/>
			<point x="381.6362771469" y="130"/>
			<point x="358.6362771469" y="173"/>
			<point x="437.6362771469" y="514" type="curve" smooth="yes"/>
			<point x="456.6362771469" y="602"/>
			<point x="436.6362771469" y="640"/>
			<point x="353.6362771469" y="640" type="curve" smooth="yes"/>
			<point x="312.6362771469" y="640"/>
			<point x="279.6362771469" y="610"/>
		</contour>
		<contour>
			<point x="170.6362771469" y="543" type="curve" smooth="yes"/>
			<point x="280.6362771469" y="532"/>
			<point x="384.6362771469" y="532"/>
			<point x="520.6362771469" y="532" type="curve" smooth="yes"/>
			<point x="588.6362771469" y="532"/>
			<point x="664.6362771469" y="566"/>
			<point x="678.6362771469" y="649" type="curve" smooth="yes" identifier="tORkmKLfR7"/>
			<point x="684.6362771469" y="686"/>
			<point x="668.6362771469" y="711"/>
			<point x="626.6362771469" y="711" type="curve" smooth="yes"/>
			<point x="543.6362771469" y="711"/>
			<point x="493.6362771469" y="700"/>
			<point x="429.6362771469" y="700" type="curve" smooth="yes"/>
			<point x="337.6362771469" y="700"/>
			<point x="253.6362771469" y="710"/>
			<point x="140.6362771469" y="710" type="curve" smooth="yes"/>
			<point x="102.6362771469" y="710"/>
			<point x="83.6362771469" y="683"/>
			<point x="77.6362771469" y="651" type="curve" smooth="yes" identifier="to2llQlpn1"/>
			<point x="66.6362771469" y="585"/>
			<point x="88.6362771469" y="551"/>
		</contour>
	</outline>
	<anchor name="top" x="393.2737848006" y="700"/>
	<anchor name="bottom" x="287.6362771469" y="0"/>
</glyph>
<glyph name="U" format="2">
	<unicode hex="0055"/>
	<advance width="689"/>
	<outline>
		<contour>
			<point x="320.1667114943" y="-13" type="curve" smooth="yes"/>
			<point x="512.1667114943" y="-13"/>
			<point x="619.1667114943" y="114"/>
			<point x="650.1667114943" y="298" type="curve" smooth="yes" identifier="rkRWukkJIV"/>
			<point x="664.1667114943" y="382"/>
			<point x="666.1667114943" y="448"/>
			<point x="678.1667114943" y="520" type="curve" smooth="yes" identifier="jHQNIsaW8X"/>
			<point x="687.1667114943" y="578"/>
			<point x="701.1667114943" y="605"/>
			<point x="706.1667114943" y="638" type="curve" smooth="yes" identifier="ejoAcDiJa7"/>
			<point x="714.1667114943" y="687"/>
			<point x="688.1667114943" y="712"/>
			<point x="638.1667114943" y="712" type="curve" smooth="yes"/>
			<point x="566.1667114943" y="712"/>
			<point x="524.1667114943" y="655"/>
			<point x="511.1667114943" y="574" type="curve" smooth="yes" identifier="WVPHKLqIUr"/>
			<point x="494.1667114943" y="472"/>
			<point x="490.1667114943" y="413"/>
			<point x="472.1667114943" y="305" type="curve" smooth="yes" identifier="8NwUb3U6a8"/>
			<point x="454.1667114943" y="198"/>
			<point x="412.1667114943" y="165"/>
			<point x="342.1667114943" y="165" type="curve" smooth="yes"/>
			<point x="263.1667114943" y="165"/>
			<point x="233.1667114943" y="194"/>
			<point x="256.1667114943" y="332" type="curve" smooth="yes" identifier="CWJOXRlFDN"/>
			<point x="267.1667114943" y="395"/>
			<point x="290.1667114943" y="483"/>
			<point x="301.1667114943" y="544" type="curve" smooth="yes" identifier="DcZmIm9TRD"/>
			<point x="323.1667114943" y="680"/>
			<point x="277.1667114943" y="716"/>
			<point x="209.1667114943" y="716" type="curve" smooth="yes"/>
			<point x="157.1667114943" y="716"/>
			<point x="124.1667114943" y="696"/>
			<point x="115.1667114943" y="645" type="curve" smooth="yes" identifier="fLjDzbxeHP"/>
			<point x="107.1667114943" y="595"/>
			<point x="119.1667114943" y="583"/>
			<point x="103.1667114943" y="486" type="curve" smooth="yes" identifier="S6mznWHvoj"/>
			<point x="97.1667114943" y="450"/>
			<point x="83.1667114943" y="396"/>
			<point x="74.1667114943" y="342" type="curve" smooth="yes" identifier="iGokmZ9DeS"/>
			<point x="37.1667114943" y="122"/>
			<point x="97.1667114943" y="-13"/>
		</contour>
	</outline>
	<anchor name="top" x="428.6497590777" y="700"/>
	<anchor name="bottom" x="312.0122514241" y="0"/>
	<anchor name="ogonek" x="440.8451265443" y="11"/>
</glyph>
<glyph name="V" format="2">
	<unicode hex="0056"/>
	<advance width="714"/>
	<outline>
		<contour>
			<point x="321.4936275383" y="-12" type="curve" smooth="yes"/>
			<point x="378.4936275383" y="-12"/>
			<point x="403.4936275383" y="17"/>
			<point x="428.4936275383" y="70" type="curve" smooth="yes"/>
			<point x="514.4936275383" y="244"/>
			<point x="599.4936275383" y="358"/>
			<point x="699.4936275383" y="487" type="curve" smooth="yes"/>
			<point x="744.4936275383" y="545"/>
			<point x="750.4936275383" y="555"/>
			<point x="759.4936275383" y="606" type="curve" smooth="yes" identifier="1CcpiQA6lv"/>
			<point x="769.4936275383" y="666"/>
			<point x="745.4936275383" y="715"/>
			<point x="692.4936275383" y="715" type="curve" smooth="yes"/>
			<point x="661.4936275383" y="715"/>
			<point x="635.4936275383" y="709"/>
			<point x="573.4936275383" y="633" type="curve" smooth="yes"/>
			<point x="469.4936275383" y="504"/>
			<point x="378.4936275383" y="366"/>
			<point x="306.4936275383" y="198" type="curve"/>
			<point x="362.4936275383" y="257" type="line"/>
			<point x="319.4936275383" y="337"/>
			<point x="326.4936275383" y="563"/>
			<point x="251.4936275383" y="669" type="curve" smooth="yes"/>
			<point x="227.4936275383" y="703"/>
			<point x="203.4936275383" y="712"/>
			<point x="172.4936275383" y="712" type="curve" smooth="yes"/>
			<point x="113.4936275383" y="712"/>
			<point x="80.4936275383" y="671"/>
			<point x="73.4936275383" y="629" type="curve" smooth="yes" identifier="k5gRfFoM5z"/>
			<point x="66.4936275383" y="586"/>
			<point x="85.4936275383" y="554"/>
			<point x="101.4936275383" y="524" type="curve" smooth="yes"/>
			<point x="157.4936275383" y="417"/>
			<point x="123.4936275383" y="315"/>
			<point x="210.4936275383" y="89" type="curve" smooth="yes"/>
			<point x="237.4936275383" y="15"/>
			<point x="261.4936275383" y="-12"/>
		</contour>
	</outline>
	<anchor name="top" x="433.131135192" y="700"/>
	<anchor name="bottom" x="316.4936275383" y="0"/>
</glyph>
<glyph name="W" format="2">
	<unicode hex="0057"/>
	<advance width="1005"/>
	<outline>
		<contour>
			<point x="287.1814331964" y="599" type="curve" smooth="yes"/>
			<point x="293.1814331964" y="660"/>
			<point x="266.1814331964" y="712"/>
			<point x="197.1814331964" y="712" type="curve" smooth="yes"/>
			<point x="130.1814331964" y="712"/>
			<point x="101.1814331964" y="676"/>
			<point x="96.1814331964" y="631" type="curve" smooth="yes"/>
			<point x="78.1814331964" y="450"/>
			<point x="95.1814331964" y="255"/>
			<point x="134.1814331964" y="84" type="curve" smooth="yes"/>
			<point x="152.1814331964" y="3"/>
			<point x="192.1814331964" y="-8"/>
			<point x="219.1814331964" y="-8" type="curve" smooth="yes"/>
			<point x="262.1814331964" y="-8"/>
			<point x="286.1814331964" y="13"/>
			<point x="308.1814331964" y="59" type="curve" smooth="yes"/>
			<point x="386.1814331964" y="222"/>
			<point x="464.1814331964" y="352"/>
			<point x="554.1814331964" y="441" type="curve"/>
			<point x="500.1814331964" y="460" type="line"/>
			<point x="549.1814331964" y="375"/>
			<point x="548.1814331964" y="166"/>
			<point x="615.1814331964" y="59" type="curve" smooth="yes"/>
			<point x="646.1814331964" y="10"/>
			<point x="674.1814331964" y="-12"/>
			<point x="727.1814331964" y="-12" type="curve" smooth="yes"/>
			<point x="752.1814331964" y="-12"/>
			<point x="780.1814331964" y="-1"/>
			<point x="805.1814331964" y="42" type="curve" smooth="yes"/>
			<point x="891.1814331964" y="193"/>
			<point x="946.1814331964" y="415"/>
			<point x="1010.1814331964" y="559" type="curve" smooth="yes"/>
			<point x="1044.1814331964" y="634"/>
			<point x="1041.1814331964" y="712"/>
			<point x="951.1814331964" y="712" type="curve" smooth="yes"/>
			<point x="907.1814331964" y="712"/>
			<point x="875.1814331964" y="692"/>
			<point x="848.1814331964" y="645" type="curve" smooth="yes"/>
			<point x="804.1814331964" y="570"/>
			<point x="761.1814331964" y="367"/>
			<point x="698.1814331964" y="242" type="curve"/>
			<point x="762.1814331964" y="245" type="line"/>
			<point x="711.1814331964" y="336"/>
			<point x="718.1814331964" y="498"/>
			<point x="689.1814331964" y="578" type="curve" smooth="yes"/>
			<point x="668.1814331964" y="635"/>
			<point x="644.1814331964" y="655"/>
			<point x="605.1814331964" y="655" type="curve" smooth="yes"/>
			<point x="547.1814331964" y="655"/>
			<point x="505.1814331964" y="630"/>
			<point x="463.1814331964" y="590" type="curve" smooth="yes"/>
			<point x="378.1814331964" y="509"/>
			<point x="306.1814331964" y="407"/>
			<point x="248.1814331964" y="280" type="curve"/>
			<point x="287.1814331964" y="294" type="line"/>
			<point x="273.1814331964" y="405"/>
			<point x="275.1814331964" y="475"/>
		</contour>
	</outline>
	<anchor name="top" x="590.8189408501" y="700"/>
	<anchor name="bottom" x="474.1814331964" y="0"/>
</glyph>
<glyph name="X" format="2">
	<unicode hex="0058"/>
	<advance width="672"/>
	<outline>
		<contour>
			<point x="284.7590285112" y="635" type="curve" smooth="yes"/>
			<point x="347.7590285112" y="392"/>
			<point x="517.7590285112" y="315"/>
			<point x="585.7590285112" y="180" type="curve" smooth="yes"/>
			<point x="642.7590285112" y="67"/>
			<point x="587.7590285112" y="-12"/>
			<point x="508.7590285112" y="-12" type="curve" smooth="yes"/>
			<point x="467.7590285112" y="-12"/>
			<point x="435.7590285112" y="8"/>
			<point x="412.7590285112" y="66" type="curve" smooth="yes"/>
			<point x="360.7590285112" y="193"/>
			<point x="129.7590285112" y="381"/>
			<point x="92.7590285112" y="546" type="curve" smooth="yes"/>
			<point x="69.7590285112" y="650"/>
			<point x="106.7590285112" y="711"/>
			<point x="193.7590285112" y="712" type="curve" smooth="yes"/>
			<point x="242.7590285112" y="713"/>
			<point x="270.7590285112" y="687"/>
		</contour>
		<contour>
			<point x="660.7590285112" y="536" type="curve" smooth="yes"/>
			<point x="511.7590285112" y="404"/>
			<point x="284.7590285112" y="205"/>
			<point x="172.7590285112" y="52" type="curve" smooth="yes"/>
			<point x="142.7590285112" y="11"/>
			<point x="121.7590285112" y="-5"/>
			<point x="81.7590285112" y="-5" type="curve" smooth="yes"/>
			<point x="16.7590285112" y="-5"/>
			<point x="-21.2409714888" y="87"/>
			<point x="60.7590285112" y="183" type="curve" smooth="yes"/>
			<point x="267.7590285112" y="423"/>
			<point x="445.7590285112" y="587"/>
			<point x="536.7590285112" y="663" type="curve" smooth="yes"/>
			<point x="573.7590285112" y="695"/>
			<point x="596.7590285112" y="707"/>
			<point x="630.7590285112" y="707" type="curve" smooth="yes"/>
			<point x="701.7590285112" y="706"/>
			<point x="744.7590285112" y="610"/>
		</contour>
	</outline>
	<anchor name="top" x="414.3965361649" y="700"/>
	<anchor name="bottom" x="297.7590285112" y="0"/>
</glyph>
<glyph name="Y" format="2">
	<unicode hex="0059"/>
	<advance width="626"/>
	<outline>
		<contour>
			<point x="608.0036629177" y="523" type="curve" smooth="yes"/>
			<point x="442.0036629177" y="398"/>
			<point x="325.0036629177" y="214"/>
			<point x="263.0036629177" y="52" type="curve" smooth="yes"/>
			<point x="242.0036629177" y="0"/>
			<point x="219.0036629177" y="-16"/>
			<point x="179.0036629177" y="-16" type="curve" smooth="yes"/>
			<point x="114.0036629177" y="-16"/>
			<point x="93.0036629177" y="45"/>
			<point x="125.0036629177" y="133" type="curve" smooth="yes"/>
			<point x="183.0036629177" y="295"/>
			<point x="359.0036629177" y="551"/>
			<point x="549.0036629177" y="683" type="curve" smooth="yes"/>
			<point x="582.0036629177" y="706"/>
			<point x="600.0036629177" y="713"/>
			<point x="622.0036629177" y="713" type="curve" smooth="yes"/>
			<point x="665.0036629177" y="713"/>
			<point x="685.0036629177" y="679"/>
			<point x="676.0036629177" y="625" type="curve" smooth="yes" identifier="NuE8l9bpxP"/>
			<point x="670.0036629177" y="588"/>
			<point x="654.0036629177" y="561"/>
		</contour>
		<contour>
			<point x="233.0036629177" y="661" type="curve" smooth="yes"/>
			<point x="283.0036629177" y="535"/>
			<point x="322.0036629177" y="531"/>
			<point x="375.0036629177" y="379" type="curve" smooth="yes"/>
			<point x="392.0036629177" y="329"/>
			<point x="351.0036629177" y="242"/>
			<point x="294.0036629177" y="242" type="curve" smooth="yes"/>
			<point x="268.0036629177" y="242"/>
			<point x="250.0036629177" y="253"/>
			<point x="242.0036629177" y="274" type="curve" smooth="yes"/>
			<point x="174.0036629177" y="430"/>
			<point x="144.0036629177" y="440"/>
			<point x="93.0036629177" y="532" type="curve" smooth="yes"/>
			<point x="78.0036629177" y="559"/>
			<point x="70.0036629177" y="586"/>
			<point x="76.0036629177" y="627" type="curve" smooth="yes" identifier="1YC6x7ANoe"/>
			<point x="85.0036629177" y="676"/>
			<point x="118.0036629177" y="710"/>
			<point x="158.0036629177" y="710" type="curve" smooth="yes"/>
			<point x="188.0036629177" y="710"/>
			<point x="216.0036629177" y="704"/>
		</contour>
	</outline>
	<anchor name="top" x="374.6411705713" y="700"/>
	<anchor name="bottom" x="200.0036629177" y="0"/>
</glyph>
<glyph name="Z" format="2">
	<unicode hex="005A"/>
	<advance width="650"/>
	<outline>
		<contour>
			<point x="169.4052554063" y="680" type="curve" smooth="yes"/>
			<point x="271.4052554063" y="697"/>
			<point x="363.4052554063" y="710"/>
			<point x="482.4052554063" y="710" type="curve" smooth="yes"/>
			<point x="619.4052554063" y="710"/>
			<point x="672.4052554063" y="654"/>
			<point x="656.4052554063" y="559" type="curve" smooth="yes" identifier="ykCQm1vwKf"/>
			<point x="639.4052554063" y="458"/>
			<point x="580.4052554063" y="390"/>
			<point x="408.4052554063" y="291" type="curve" smooth="yes"/>
			<point x="236.4052554063" y="192"/>
			<point x="218.4052554063" y="171"/>
			<point x="202.4052554063" y="108" type="curve"/>
			<point x="162.4052554063" y="178" type="line"/>
			<point x="184.4052554063" y="167"/>
			<point x="203.4052554063" y="162"/>
			<point x="243.4052554063" y="162" type="curve" smooth="yes"/>
			<point x="296.4052554063" y="162"/>
			<point x="368.4052554063" y="174"/>
			<point x="437.4052554063" y="174" type="curve" smooth="yes"/>
			<point x="551.4052554063" y="174"/>
			<point x="604.4052554063" y="136"/>
			<point x="592.4052554063" y="64" type="curve" smooth="yes" identifier="ePwPzZSrY1"/>
			<point x="584.4052554063" y="20"/>
			<point x="552.4052554063" y="-7"/>
			<point x="514.4052554063" y="-7" type="curve" smooth="yes"/>
			<point x="474.4052554063" y="-7"/>
			<point x="450.4052554063" y="0"/>
			<point x="387.4052554063" y="0" type="curve" smooth="yes"/>
			<point x="294.4052554063" y="0"/>
			<point x="207.4052554063" y="-11"/>
			<point x="132.4052554063" y="-11" type="curve" smooth="yes"/>
			<point x="35.4052554063" y="-11"/>
			<point x="10.4052554063" y="46"/>
			<point x="21.4052554063" y="115" type="curve" smooth="yes" identifier="mjzCvWqg4m"/>
			<point x="36.4052554063" y="206"/>
			<point x="79.4052554063" y="277"/>
			<point x="318.4052554063" y="413" type="curve" smooth="yes"/>
			<point x="462.4052554063" y="495"/>
			<point x="467.4052554063" y="516"/>
			<point x="478.4052554063" y="561" type="curve"/>
			<point x="503.4052554063" y="519" type="line"/>
			<point x="489.4052554063" y="531"/>
			<point x="486.4052554063" y="537"/>
			<point x="435.4052554063" y="537" type="curve" smooth="yes"/>
			<point x="326.4052554063" y="537"/>
			<point x="246.4052554063" y="511"/>
			<point x="185.4052554063" y="511" type="curve" smooth="yes"/>
			<point x="128.4052554063" y="511"/>
			<point x="85.4052554063" y="546"/>
			<point x="95.4052554063" y="606" type="curve" smooth="yes" identifier="M86FuyObTG"/>
			<point x="102.4052554063" y="645"/>
			<point x="130.4052554063" y="673"/>
		</contour>
	</outline>
	<anchor name="top" x="411.04276306" y="700"/>
	<anchor name="bottom" x="294.4052554063" y="0"/>
</glyph>
<glyph name="bracketleft" format="2">
	<unicode hex="005B"/>
	<advance width="513"/>
	<outline>
		<contour>
			<point x="455.9429462119" y="643"/>
			<point x="445.9429462119" y="645"/>
			<point x="432.9429462119" y="645" type="curve" smooth="yes"/>
			<point x="382.9429462119" y="645"/>
			<point x="291.9429462119" y="629"/>
			<point x="246.9429462119" y="629" type="curve"/>
			<point x="343.9429462119" y="701" type="line"/>
			<point x="300.9429462119" y="582"/>
			<point x="281.9429462119" y="335"/>
			<point x="259.9429462119" y="238" type="curve" smooth="yes"/>
			<point x="240.9429462119" y="152"/>
			<point x="173.9429462119" y="-40"/>
			<point x="218.9429462119" y="-133" type="curve"/>
			<point x="127.9429462119" y="-106" type="line"/>
			<point x="179.9429462119" y="-97"/>
			<point x="210.9429462119" y="-91"/>
			<point x="256.9429462119" y="-91" type="curve" smooth="yes"/>
			<point x="293.9429462119" y="-91"/>
			<point x="325.9429462119" y="-88"/>
			<point x="355.9429462119" y="-88" type="curve" smooth="yes"/>
			<point x="396.9429462119" y="-88"/>
			<point x="420.9429462119" y="-115"/>
			<point x="413.9429462119" y="-155" type="curve" smooth="yes" identifier="qVvWsfGdwr"/>
			<point x="402.9429462119" y="-220"/>
			<point x="359.9429462119" y="-259"/>
			<point x="284.9429462119" y="-259" type="curve" smooth="yes"/>
			<point x="253.9429462119" y="-259"/>
			<point x="229.9429462119" y="-259"/>
			<point x="205.9429462119" y="-262" type="curve" smooth="yes"/>
			<point x="171.9429462119" y="-265"/>
			<point x="146.9429462119" y="-270"/>
			<point x="122.9429462119" y="-270" type="curve" smooth="yes"/>
			<point x="93.9429462119" y="-270"/>
			<point x="65.9429462119" y="-254"/>
			<point x="54.9429462119" y="-229" type="curve" smooth="yes"/>
			<point x="-1.0570537881" y="-110"/>
			<point x="59.9429462119" y="134"/>
			<point x="84.9429462119" y="248" type="curve" smooth="yes"/>
			<point x="108.9429462119" y="351"/>
			<point x="131.9429462119" y="607"/>
			<point x="174.9429462119" y="733" type="curve" smooth="yes"/>
			<point x="189.9429462119" y="775"/>
			<point x="231.9429462119" y="805"/>
			<point x="274.9429462119" y="805" type="curve" smooth="yes"/>
			<point x="357.9429462119" y="805"/>
			<point x="439.9429462119" y="819"/>
			<point x="506.9429462119" y="819" type="curve" smooth="yes"/>
			<point x="558.9429462119" y="819"/>
			<point x="578.9429462119" y="788"/>
			<point x="572.9429462119" y="750" type="curve" smooth="yes" identifier="ous2smqX75"/>
			<point x="565.9429462119" y="706"/>
			<point x="528.9429462119" y="643"/>
			<point x="465.9429462119" y="643" type="curve" smooth="yes"/>
		</contour>
	</outline>
</glyph>
<glyph name="backslash" format="2">
	<unicode hex="005C"/>
	<advance width="455"/>
	<outline>
		<contour>
			<point x="321.1051193682" y="691" type="curve" smooth="yes"/>
			<point x="289.1051193682" y="417"/>
			<point x="300.1051193682" y="159"/>
			<point x="384.1051193682" y="-130" type="curve" smooth="yes"/>
			<point x="407.1051193682" y="-209"/>
			<point x="346.1051193682" y="-264"/>
			<point x="283.1051193682" y="-264" type="curve" smooth="yes"/>
			<point x="245.1051193682" y="-264"/>
			<point x="215.1051193682" y="-238"/>
			<point x="204.1051193682" y="-196" type="curve" smooth="yes"/>
			<point x="128.1051193682" y="95"/>
			<point x="104.1051193682" y="468"/>
			<point x="130.1051193682" y="678" type="curve" smooth="yes"/>
			<point x="141.1051193682" y="767"/>
			<point x="175.1051193682" y="813"/>
			<point x="238.1051193682" y="813" type="curve" smooth="yes"/>
			<point x="295.1051193682" y="813"/>
			<point x="330.1051193682" y="770"/>
		</contour>
	</outline>
</glyph>
<glyph name="bracketright" format="2">
	<unicode hex="005D"/>
	<advance width="513"/>
	<outline>
		<contour>
			<point x="38.8003617717" y="-94" type="curve" smooth="yes"/>
			<point x="88.8003617717" y="-93"/>
			<point x="202.8003617717" y="-77"/>
			<point x="253.8003617717" y="-62" type="curve"/>
			<point x="181.8003617717" y="-135" type="line"/>
			<point x="261.8003617717" y="98"/>
			<point x="229.8003617717" y="405"/>
			<point x="308.8003617717" y="729" type="curve"/>
			<point x="377.8003617717" y="609" type="line"/>
			<point x="331.8003617717" y="631"/>
			<point x="285.8003617717" y="634"/>
			<point x="188.8003617717" y="634" type="curve" smooth="yes"/>
			<point x="129.8003617717" y="634"/>
			<point x="90.8003617717" y="689"/>
			<point x="101.8003617717" y="749" type="curve" smooth="yes"/>
			<point x="108.8003617717" y="789"/>
			<point x="141.8003617717" y="811"/>
			<point x="191.8003617717" y="810" type="curve" smooth="yes"/>
			<point x="235.8003617717" y="809"/>
			<point x="292.8003617717" y="806"/>
			<point x="342.8003617717" y="806" type="curve" smooth="yes"/>
			<point x="362.8003617717" y="806"/>
			<point x="383.8003617717" y="811"/>
			<point x="401.8003617717" y="811" type="curve" smooth="yes"/>
			<point x="458.8003617717" y="811"/>
			<point x="496.8003617717" y="772"/>
			<point x="482.8003617717" y="715" type="curve" smooth="yes"/>
			<point x="400.8003617717" y="385"/>
			<point x="431.8003617717" y="71"/>
			<point x="349.8003617717" y="-167" type="curve" smooth="yes"/>
			<point x="338.8003617717" y="-199"/>
			<point x="311.8003617717" y="-225"/>
			<point x="278.8003617717" y="-235" type="curve" smooth="yes"/>
			<point x="227.8003617717" y="-250"/>
			<point x="111.8003617717" y="-269"/>
			<point x="61.8003617717" y="-270" type="curve" smooth="yes"/>
			<point x="-6.1996382283" y="-271"/>
			<point x="-59.1996382283" y="-227"/>
			<point x="-51.1996382283" y="-173" type="curve" smooth="yes"/>
			<point x="-45.1996382283" y="-131"/>
			<point x="-3.1996382283" y="-95"/>
		</contour>
	</outline>
</glyph>
<glyph name="asciicircum" format="2">
	<unicode hex="005E"/>
	<advance width="610"/>
	<outline>
		<contour>
			<point x="334.6410741767" y="688" type="curve"/>
			<point x="406.6410741767" y="686" type="line"/>
			<point x="232.6410741767" y="527"/>
			<point x="215.6410741767" y="515"/>
			<point x="176.6410741767" y="515" type="curve" smooth="yes"/>
			<point x="133.6410741767" y="515"/>
			<point x="96.6410741767" y="558"/>
			<point x="102.6410741767" y="594" type="curve" smooth="yes" identifier="L4AHs4TOwR"/>
			<point x="107.6410741767" y="627"/>
			<point x="123.6410741767" y="649"/>
			<point x="269.6410741767" y="756" type="curve" smooth="yes"/>
			<point x="336.6410741767" y="806"/>
			<point x="355.6410741767" y="814"/>
			<point x="412.6410741767" y="814" type="curve" smooth="yes"/>
			<point x="445.6410741767" y="814"/>
			<point x="466.6410741767" y="806"/>
			<point x="488.6410741767" y="766" type="curve" smooth="yes"/>
			<point x="562.6410741767" y="630"/>
			<point x="623.6410741767" y="621"/>
			<point x="616.6410741767" y="577" type="curve" smooth="yes" identifier="d7GttEiA8R"/>
			<point x="611.6410741767" y="545"/>
			<point x="573.6410741767" y="520"/>
			<point x="522.6410741767" y="520" type="curve" smooth="yes"/>
			<point x="458.6410741767" y="520"/>
			<point x="410.6410741767" y="561"/>
		</contour>
	</outline>
</glyph>
<glyph name="grave" format="2">
	<unicode hex="0060"/>
	<advance width="350"/>
	<outline>
		<contour>
			<point x="130.781445602" y="810"/>
			<point x="66.781445602" y="747"/>
			<point x="89.781445602" y="667" type="curve" smooth="yes"/>
			<point x="107.781445602" y="602"/>
			<point x="157.781445602" y="541"/>
			<point x="203.781445602" y="510" type="curve" smooth="yes"/>
			<point x="234.781445602" y="489"/>
			<point x="269.781445602" y="477"/>
			<point x="301.781445602" y="477" type="curve" smooth="yes"/>
			<point x="376.781445602" y="477"/>
			<point x="409.781445602" y="552"/>
			<point x="358.781445602" y="607" type="curve" smooth="yes"/>
			<point x="322.781445602" y="645"/>
			<point x="296.781445602" y="686"/>
			<point x="284.781445602" y="749" type="curve" smooth="yes"/>
			<point x="275.781445602" y="796"/>
			<point x="239.781445602" y="810"/>
			<point x="195.781445602" y="810" type="curve" smooth="yes"/>
		</contour>
	</outline>
</glyph>
<glyph name="a" format="2">
	<unicode hex="0061"/>
	<advance width="704"/>
	<outline>
		<contour>
			<point x="383.4372727225" y="392" type="curve" smooth="yes"/>
			<point x="335.4372727225" y="238"/>
			<point x="258.4372727225" y="158"/>
			<point x="196.4372727225" y="158" type="curve" smooth="yes"/>
			<point x="164.4372727225" y="158"/>
			<point x="143.4372727225" y="164"/>
			<point x="114.4372727225" y="187" type="curve"/>
			<point x="169.4372727225" y="73" type="line"/>
			<point x="166.4372727225" y="95"/>
			<point x="166.4372727225" y="108"/>
			<point x="169.4372727225" y="127" type="curve" smooth="yes" identifier="xzanTDGMJl"/>
			<point x="188.4372727225" y="242"/>
			<point x="297.4372727225" y="358"/>
			<point x="424.4372727225" y="381" type="curve" smooth="yes"/>
			<point x="442.4372727225" y="385"/>
			<point x="459.4372727225" y="397"/>
			<point x="463.4372727225" y="420" type="curve" smooth="yes" identifier="Q4qj5Cx8p9"/>
			<point x="474.4372727225" y="488"/>
			<point x="437.4372727225" y="526"/>
			<point x="381.4372727225" y="526" type="curve" smooth="yes"/>
			<point x="230.4372727225" y="526"/>
			<point x="34.4372727225" y="318"/>
			<point x="5.4372727225" y="143" type="curve" smooth="yes" identifier="DRTp62KLjy"/>
			<point x="-10.5627272775" y="51"/>
			<point x="53.4372727225" y="-10"/>
			<point x="161.4372727225" y="-10" type="curve" smooth="yes"/>
			<point x="269.4372727225" y="-10"/>
			<point x="388.4372727225" y="52"/>
			<point x="481.4372727225" y="255" type="curve"/>
			<point x="420.4372727225" y="249" type="line"/>
			<point x="441.4372727225" y="141"/>
			<point x="463.4372727225" y="87"/>
			<point x="510.4372727225" y="16" type="curve" smooth="yes"/>
			<point x="518.4372727225" y="4"/>
			<point x="532.4372727225" y="-7"/>
			<point x="557.4372727225" y="-7" type="curve" smooth="yes"/>
			<point x="633.4372727225" y="-7"/>
			<point x="689.4372727225" y="105"/>
			<point x="657.4372727225" y="147" type="curve" smooth="yes"/>
			<point x="599.4372727225" y="223"/>
			<point x="593.4372727225" y="285"/>
			<point x="568.4372727225" y="372" type="curve" smooth="yes"/>
			<point x="558.4372727225" y="413"/>
			<point x="519.4372727225" y="446"/>
			<point x="462.4372727225" y="446" type="curve" smooth="yes"/>
			<point x="429.4372727225" y="446"/>
			<point x="394.4372727225" y="426"/>
		</contour>
	</outline>
	<anchor name="top" x="379.9273152459" y="515"/>
	<anchor name="bottom" x="303.1154346149" y="0"/>
	<anchor name="ogonek" x="578.1154346149" y="0"/>
</glyph>
<glyph name="b" format="2">
	<unicode hex="0062"/>
	<advance width="635"/>
	<outline>
		<contour>
			<point x="286.3693073841" y="643" type="curve" smooth="yes" identifier="iMBjZcHhb3"/>
			<point x="280.3693073841" y="608"/>
			<point x="253.3693073841" y="545"/>
			<point x="242.3693073841" y="480" type="curve" smooth="yes" identifier="4JQhhmyZuI"/>
			<point x="233.3693073841" y="428"/>
			<point x="225.3693073841" y="396"/>
			<point x="224.3693073841" y="346" type="curve" smooth="yes"/>
			<point x="223.3693073841" y="318"/>
			<point x="167.3693073841" y="351"/>
			<point x="189.3693073841" y="387" type="curve" smooth="yes"/>
			<point x="228.3693073841" y="449"/>
			<point x="328.3693073841" y="527"/>
			<point x="431.3693073841" y="527" type="curve" smooth="yes"/>
			<point x="546.3693073841" y="527"/>
			<point x="631.3693073841" y="461"/>
			<point x="605.3693073841" y="305" type="curve" smooth="yes" identifier="sVeyDzIBXD"/>
			<point x="574.3693073841" y="121"/>
			<point x="365.3693073841" y="-10"/>
			<point x="175.3693073841" y="-10" type="curve" smooth="yes"/>
			<point x="90.3693073841" y="-10"/>
			<point x="-5.6306926159" y="20"/>
			<point x="8.3693073841" y="105" type="curve" smooth="yes" identifier="LKZR5usrNK"/>
			<point x="16.3693073841" y="150"/>
			<point x="53.3693073841" y="171"/>
			<point x="103.3693073841" y="171" type="curve" smooth="yes"/>
			<point x="128.3693073841" y="171"/>
			<point x="160.3693073841" y="163"/>
			<point x="192.3693073841" y="163" type="curve" smooth="yes"/>
			<point x="271.3693073841" y="163"/>
			<point x="411.3693073841" y="206"/>
			<point x="429.3693073841" y="314" type="curve" smooth="yes" identifier="luFZJ51Kdx"/>
			<point x="433.3693073841" y="339"/>
			<point x="427.3693073841" y="353"/>
			<point x="399.3693073841" y="353" type="curve" smooth="yes"/>
			<point x="306.3693073841" y="353"/>
			<point x="229.3693073841" y="273"/>
			<point x="186.3693073841" y="158" type="curve" smooth="yes"/>
			<point x="175.3693073841" y="129"/>
			<point x="155.3693073841" y="110"/>
			<point x="126.3693073841" y="110" type="curve" smooth="yes"/>
			<point x="88.3693073841" y="110"/>
			<point x="56.3693073841" y="139"/>
			<point x="56.3693073841" y="190" type="curve" smooth="yes"/>
			<point x="55.3693073841" y="292"/>
			<point x="62.3693073841" y="402"/>
			<point x="72.3693073841" y="464" type="curve" smooth="yes" identifier="AfRKQCiQKg"/>
			<point x="92.3693073841" y="582"/>
			<point x="120.3693073841" y="629"/>
			<point x="124.3693073841" y="690" type="curve" smooth="yes"/>
			<point x="127.3693073841" y="730"/>
			<point x="146.3693073841" y="761"/>
			<point x="197.3693073841" y="761" type="curve" smooth="yes"/>
			<point x="265.3693073841" y="761"/>
			<point x="300.3693073841" y="724"/>
		</contour>
	</outline>
	<anchor name="top" x="217.0162274769" y="750"/>
	<anchor name="bottom" x="269.0474692765" y="0"/>
</glyph>
<glyph name="c" format="2">
	<unicode hex="0063"/>
	<advance width="539"/>
	<outline>
		<contour>
			<point x="475.931175118" y="148" type="curve" smooth="yes" identifier="hshtT827H8"/>
			<point x="484.931175118" y="206"/>
			<point x="471.931175118" y="228"/>
			<point x="435.931175118" y="228" type="curve" smooth="yes"/>
			<point x="381.931175118" y="228"/>
			<point x="380.931175118" y="166"/>
			<point x="271.931175118" y="166" type="curve" smooth="yes"/>
			<point x="193.931175118" y="166"/>
			<point x="185.931175118" y="189"/>
			<point x="190.931175118" y="216" type="curve" smooth="yes" identifier="1TNbkuzfUV"/>
			<point x="201.931175118" y="284"/>
			<point x="282.931175118" y="353"/>
			<point x="376.931175118" y="353" type="curve" smooth="yes"/>
			<point x="406.931175118" y="353"/>
			<point x="402.931175118" y="324"/>
			<point x="423.931175118" y="324" type="curve" smooth="yes"/>
			<point x="469.931175118" y="324"/>
			<point x="500.931175118" y="368"/>
			<point x="510.931175118" y="424" type="curve" smooth="yes" identifier="Yc2pWpBrxW"/>
			<point x="523.931175118" y="506"/>
			<point x="470.931175118" y="525"/>
			<point x="414.931175118" y="525" type="curve" smooth="yes"/>
			<point x="228.931175118" y="525"/>
			<point x="47.931175118" y="390"/>
			<point x="19.931175118" y="220" type="curve" smooth="yes" identifier="AQ7gjWI1rs"/>
			<point x="-3.068824882" y="86"/>
			<point x="74.931175118" y="-9"/>
			<point x="251.931175118" y="-9" type="curve" smooth="yes"/>
			<point x="366.931175118" y="-9"/>
			<point x="458.931175118" y="49"/>
		</contour>
	</outline>
	<anchor name="top" x="337.4212176414" y="515"/>
	<anchor name="bottom" x="251.6093370104" y="0"/>
</glyph>
<glyph name="d" format="2">
	<unicode hex="0064"/>
	<advance width="708"/>
	<outline>
		<contour>
			<point x="249.2849563255" y="-9" type="curve" smooth="yes"/>
			<point x="325.2849563255" y="-9"/>
			<point x="445.2849563255" y="42"/>
			<point x="518.2849563255" y="192" type="curve"/>
			<point x="416.2849563255" y="163" type="line"/>
			<point x="400.2849563255" y="67"/>
			<point x="447.2849563255" y="-20"/>
			<point x="531.2849563255" y="-20" type="curve" smooth="yes"/>
			<point x="588.2849563255" y="-20"/>
			<point x="631.2849563255" y="15"/>
			<point x="641.2849563255" y="71" type="curve" smooth="yes" identifier="yjivCkfBXp"/>
			<point x="652.2849563255" y="138"/>
			<point x="569.2849563255" y="93"/>
			<point x="603.2849563255" y="294" type="curve" smooth="yes" identifier="jEmGqmjVBL"/>
			<point x="621.2849563255" y="401"/>
			<point x="664.2849563255" y="467"/>
			<point x="694.2849563255" y="593" type="curve" smooth="yes"/>
			<point x="718.2849563255" y="702"/>
			<point x="683.2849563255" y="760"/>
			<point x="596.2849563255" y="760" type="curve" smooth="yes"/>
			<point x="565.2849563255" y="760"/>
			<point x="539.2849563255" y="744"/>
			<point x="530.2849563255" y="691" type="curve" smooth="yes" identifier="cqJ8iRNLcc"/>
			<point x="474.2849563255" y="353"/>
			<point x="370.2849563255" y="166"/>
			<point x="273.2849563255" y="166" type="curve" smooth="yes"/>
			<point x="242.2849563255" y="166"/>
			<point x="209.2849563255" y="229"/>
			<point x="217.2849563255" y="279" type="curve" smooth="yes" identifier="uXzbyafa77"/>
			<point x="225.2849563255" y="326"/>
			<point x="275.2849563255" y="352"/>
			<point x="343.2849563255" y="352" type="curve" smooth="yes"/>
			<point x="404.2849563255" y="352"/>
			<point x="411.2849563255" y="333"/>
			<point x="438.2849563255" y="333" type="curve" smooth="yes"/>
			<point x="458.2849563255" y="333"/>
			<point x="478.2849563255" y="356"/>
			<point x="484.2849563255" y="389" type="curve" smooth="yes" identifier="ndqL1sA00Y"/>
			<point x="499.2849563255" y="480"/>
			<point x="438.2849563255" y="527"/>
			<point x="327.2849563255" y="527" type="curve" smooth="yes"/>
			<point x="176.2849563255" y="529"/>
			<point x="58.2849563255" y="429"/>
			<point x="33.2849563255" y="279" type="curve" smooth="yes" identifier="Vq0b029HD5"/>
			<point x="8.2849563255" y="124"/>
			<point x="94.2849563255" y="-9"/>
		</contour>
	</outline>
	<anchor name="top" x="609.9318764183" y="750"/>
	<anchor name="bottom" x="265.963118218" y="0"/>
</glyph>
<glyph name="e" format="2">
	<unicode hex="0065"/>
	<advance width="611"/>
	<outline>
		<contour>
			<point x="263.8275974833" y="186" type="curve" smooth="yes"/>
			<point x="403.8275974833" y="186"/>
			<point x="530.8275974833" y="234"/>
			<point x="549.8275974833" y="349" type="curve" smooth="yes" identifier="0VKF8Eb5pE"/>
			<point x="568.8275974833" y="464"/>
			<point x="495.8275974833" y="525"/>
			<point x="375.8275974833" y="525" type="curve" smooth="yes"/>
			<point x="193.8275974833" y="525"/>
			<point x="49.8275974833" y="357"/>
			<point x="25.8275974833" y="210" type="curve" smooth="yes" identifier="S0pr6RAs2B"/>
			<point x="4.8275974833" y="82"/>
			<point x="68.8275974833" y="-10"/>
			<point x="252.8275974833" y="-10" type="curve" smooth="yes"/>
			<point x="426.8275974833" y="-10"/>
			<point x="549.8275974833" y="69"/>
			<point x="562.8275974833" y="145" type="curve" smooth="yes" identifier="0t31TvqJ07"/>
			<point x="568.8275974833" y="181"/>
			<point x="557.8275974833" y="199"/>
			<point x="528.8275974833" y="199" type="curve" smooth="yes"/>
			<point x="474.8275974833" y="199"/>
			<point x="421.8275974833" y="132"/>
			<point x="263.8275974833" y="132" type="curve" smooth="yes"/>
			<point x="201.8275974833" y="132"/>
			<point x="184.8275974833" y="148"/>
			<point x="190.8275974833" y="187" type="curve" smooth="yes" identifier="dR9mFdgKdv"/>
			<point x="206.8275974833" y="281"/>
			<point x="276.8275974833" y="374"/>
			<point x="353.8275974833" y="374" type="curve" smooth="yes"/>
			<point x="382.8275974833" y="374"/>
			<point x="392.8275974833" y="362"/>
			<point x="388.8275974833" y="338" type="curve" smooth="yes" identifier="b76DKvU0c6"/>
			<point x="383.8275974833" y="305"/>
			<point x="315.8275974833" y="281"/>
			<point x="260.8275974833" y="281" type="curve" smooth="yes"/>
			<point x="228.8275974833" y="281"/>
			<point x="211.8275974833" y="286"/>
			<point x="197.8275974833" y="286" type="curve" smooth="yes"/>
			<point x="176.8275974833" y="286"/>
			<point x="165.8275974833" y="276"/>
			<point x="162.8275974833" y="256" type="curve" smooth="yes" identifier="6OUgcr7I8d"/>
			<point x="155.8275974833" y="219"/>
			<point x="193.8275974833" y="186"/>
		</contour>
	</outline>
	<anchor name="top" x="351.3176400067" y="515"/>
	<anchor name="bottom" x="265.5057593758" y="0"/>
	<anchor name="ogonek" x="468.337384824" y="41"/>
</glyph>
<glyph name="f" format="2">
	<unicode hex="0066"/>
	<advance width="417"/>
	<outline>
		<contour>
			<point x="363.8352303692" y="366" type="curve" smooth="yes"/>
			<point x="395.8352303692" y="369"/>
			<point x="415.8352303692" y="395"/>
			<point x="420.8352303692" y="424" type="curve" smooth="yes" identifier="W28kq4XKhj"/>
			<point x="430.8352303692" y="484"/>
			<point x="380.8352303692" y="516"/>
			<point x="339.8352303692" y="516" type="curve" smooth="yes"/>
			<point x="303.8352303692" y="516"/>
			<point x="257.8352303692" y="508"/>
			<point x="197.8352303692" y="488" type="curve" smooth="yes"/>
			<point x="147.8352303692" y="471"/>
			<point x="113.8352303692" y="428"/>
			<point x="105.8352303692" y="377" type="curve" smooth="yes" identifier="xswCDfZJCP"/>
			<point x="99.8352303692" y="340"/>
			<point x="132.8352303692" y="314"/>
			<point x="175.8352303692" y="314" type="curve" smooth="yes"/>
			<point x="205.8352303692" y="314"/>
			<point x="239.8352303692" y="355"/>
		</contour>
		<contour>
			<point x="134.8352303692" y="-10" type="curve" smooth="yes"/>
			<point x="182.8352303692" y="-10"/>
			<point x="209.8352303692" y="14"/>
			<point x="224.8352303692" y="104" type="curve" smooth="yes" identifier="6YXpkCLNZ2"/>
			<point x="246.8352303692" y="236"/>
			<point x="229.8352303692" y="310"/>
			<point x="242.8352303692" y="390" type="curve" smooth="yes" identifier="UBbYw2ziyg"/>
			<point x="265.8352303692" y="530"/>
			<point x="289.8352303692" y="562"/>
			<point x="417.8352303692" y="606" type="curve" smooth="yes"/>
			<point x="449.8352303692" y="617"/>
			<point x="469.8352303692" y="638"/>
			<point x="475.8352303692" y="673" type="curve" smooth="yes" identifier="MzMwPD1QMW"/>
			<point x="486.8352303692" y="736"/>
			<point x="444.8352303692" y="760"/>
			<point x="395.8352303692" y="760" type="curve" smooth="yes"/>
			<point x="263.8352303692" y="760"/>
			<point x="112.8352303692" y="626"/>
			<point x="79.8352303692" y="424" type="curve" smooth="yes" identifier="MQp386UsYy"/>
			<point x="60.8352303692" y="314"/>
			<point x="78.8352303692" y="271"/>
			<point x="57.8352303692" y="145" type="curve" smooth="yes" identifier="pKYwEJ6MDy"/>
			<point x="40.8352303692" y="45"/>
			<point x="82.8352303692" y="-10"/>
		</contour>
	</outline>
	<anchor name="top" x="370.8039885696" y="750"/>
	<anchor name="bottom" x="128.8352303692" y="0"/>
</glyph>
<glyph name="g" format="2">
	<unicode hex="0067"/>
	<advance width="660"/>
	<outline>
		<contour>
			<point x="506.639428064" y="467" type="curve" smooth="yes"/>
			<point x="577.639428064" y="467"/>
			<point x="602.639428064" y="425"/>
			<point x="598.639428064" y="385" type="curve" smooth="yes"/>
			<point x="585.639428064" y="229"/>
			<point x="619.639428064" y="162"/>
			<point x="588.639428064" y="-23" type="curve" smooth="yes" identifier="KG9M8AR1O7"/>
			<point x="564.639428064" y="-170"/>
			<point x="462.639428064" y="-260"/>
			<point x="309.639428064" y="-260" type="curve" smooth="yes"/>
			<point x="61.639428064" y="-260"/>
			<point x="36.639428064" y="-175"/>
			<point x="46.639428064" y="-115" type="curve" smooth="yes" identifier="k8TdeJxbFV"/>
			<point x="55.639428064" y="-57"/>
			<point x="97.639428064" y="-12"/>
			<point x="152.639428064" y="-12" type="curve" smooth="yes"/>
			<point x="189.639428064" y="-12"/>
			<point x="201.639428064" y="-27"/>
			<point x="197.639428064" y="-51" type="curve" smooth="yes" identifier="w0PZgG7psN"/>
			<point x="193.639428064" y="-74"/>
			<point x="216.639428064" y="-93"/>
			<point x="327.639428064" y="-93" type="curve" smooth="yes"/>
			<point x="385.639428064" y="-93"/>
			<point x="408.639428064" y="-66"/>
			<point x="416.639428064" y="-16" type="curve" smooth="yes" identifier="ZYdeFmoInW"/>
			<point x="431.639428064" y="71"/>
			<point x="413.639428064" y="113"/>
			<point x="417.639428064" y="212" type="curve"/>
			<point x="480.639428064" y="205" type="line"/>
			<point x="420.639428064" y="76"/>
			<point x="290.639428064" y="41"/>
			<point x="206.639428064" y="41" type="curve" smooth="yes"/>
			<point x="72.639428064" y="41"/>
			<point x="1.639428064" y="116"/>
			<point x="22.639428064" y="242" type="curve" smooth="yes" identifier="676aFtmNAn"/>
			<point x="49.639428064" y="405"/>
			<point x="204.639428064" y="530"/>
			<point x="353.639428064" y="530" type="curve" smooth="yes"/>
			<point x="464.639428064" y="530"/>
			<point x="491.639428064" y="460"/>
			<point x="480.639428064" y="395" type="curve" smooth="yes" identifier="989C0IQK6k"/>
			<point x="473.639428064" y="356"/>
			<point x="449.639428064" y="332"/>
			<point x="432.639428064" y="332" type="curve" smooth="yes"/>
			<point x="397.639428064" y="332"/>
			<point x="396.639428064" y="366"/>
			<point x="351.639428064" y="366" type="curve" smooth="yes"/>
			<point x="291.639428064" y="366"/>
			<point x="206.639428064" y="307"/>
			<point x="198.639428064" y="256" type="curve" smooth="yes" identifier="yc6biMYmBQ"/>
			<point x="193.639428064" y="230"/>
			<point x="205.639428064" y="216"/>
			<point x="236.639428064" y="216" type="curve" smooth="yes"/>
			<point x="341.639428064" y="216"/>
			<point x="429.639428064" y="281"/>
			<point x="449.639428064" y="404" type="curve" smooth="yes" identifier="GLjKxdABrw"/>
			<point x="457.639428064" y="448"/>
			<point x="471.639428064" y="467"/>
		</contour>
	</outline>
	<anchor name="top" x="350.1294705874" y="515"/>
	<anchor name="bottom" x="283.661337223" y="-250"/>
</glyph>
<glyph name="h" format="2">
	<unicode hex="0068"/>
	<advance width="693"/>
	<outline>
		<contour>
			<point x="538.9651766698" y="-12" type="curve" smooth="yes"/>
			<point x="588.9651766698" y="-12"/>
			<point x="622.9651766698" y="10"/>
			<point x="627.9651766698" y="45" type="curve" smooth="yes" identifier="kuYdIkejPC"/>
			<point x="630.9651766698" y="61"/>
			<point x="628.9651766698" y="78"/>
			<point x="622.9651766698" y="93" type="curve" smooth="yes"/>
			<point x="610.9651766698" y="124"/>
			<point x="596.9651766698" y="156"/>
			<point x="601.9651766698" y="267" type="curve" smooth="yes"/>
			<point x="610.9651766698" y="434"/>
			<point x="595.9651766698" y="532"/>
			<point x="475.9651766698" y="532" type="curve" smooth="yes"/>
			<point x="392.9651766698" y="532"/>
			<point x="298.9651766698" y="455"/>
			<point x="200.9651766698" y="297" type="curve"/>
			<point x="224.9651766698" y="224" type="line"/>
			<point x="257.9651766698" y="419"/>
			<point x="293.9651766698" y="506"/>
			<point x="305.9651766698" y="577" type="curve" smooth="yes" identifier="Wz5j1pyGVa"/>
			<point x="329.9651766698" y="720"/>
			<point x="272.9651766698" y="760"/>
			<point x="220.9651766698" y="760" type="curve" smooth="yes"/>
			<point x="166.9651766698" y="760"/>
			<point x="142.9651766698" y="731"/>
			<point x="137.9651766698" y="701" type="curve" smooth="yes" identifier="N1gJmB7e1y"/>
			<point x="130.9651766698" y="660"/>
			<point x="140.9651766698" y="632"/>
			<point x="127.9651766698" y="555" type="curve" smooth="yes" identifier="QCgedrUTqA"/>
			<point x="110.9651766698" y="451"/>
			<point x="66.9651766698" y="324"/>
			<point x="34.9651766698" y="135" type="curve" smooth="yes" identifier="Yd85w1ysKP"/>
			<point x="21.9651766698" y="53"/>
			<point x="51.9651766698" y="-6"/>
			<point x="119.9651766698" y="-6" type="curve" smooth="yes"/>
			<point x="153.9651766698" y="-6"/>
			<point x="173.9651766698" y="3"/>
			<point x="197.9651766698" y="41" type="curve" smooth="yes"/>
			<point x="300.9651766698" y="210"/>
			<point x="387.9651766698" y="308"/>
			<point x="426.9651766698" y="321" type="curve"/>
			<point x="428.9651766698" y="289"/>
			<point x="427.9651766698" y="251"/>
			<point x="421.9651766698" y="143" type="curve" smooth="yes"/>
			<point x="417.9651766698" y="50"/>
			<point x="446.9651766698" y="-12"/>
		</contour>
	</outline>
	<anchor name="top" x="225.9339348702" y="750"/>
	<anchor name="bottom" x="307.9651766698" y="0"/>
</glyph>
<glyph name="k" format="2">
	<unicode hex="006B"/>
	<advance width="678"/>
	<outline>
		<contour>
			<point x="510.5006897703" y="-7" type="curve" smooth="yes"/>
			<point x="557.5006897703" y="-7"/>
			<point x="586.5006897703" y="21"/>
			<point x="594.5006897703" y="65" type="curve" smooth="yes" identifier="wxIJ8QdSKZ"/>
			<point x="602.5006897703" y="114"/>
			<point x="585.5006897703" y="166"/>
			<point x="519.5006897703" y="180" type="curve" smooth="yes"/>
			<point x="396.5006897703" y="211"/>
			<point x="358.5006897703" y="233"/>
			<point x="360.5006897703" y="249" type="curve" smooth="yes" identifier="QwLsdiElHG"/>
			<point x="364.5006897703" y="270"/>
			<point x="443.5006897703" y="322"/>
			<point x="560.5006897703" y="355" type="curve" smooth="yes"/>
			<point x="630.5006897703" y="375"/>
			<point x="651.5006897703" y="396"/>
			<point x="657.5006897703" y="432" type="curve" smooth="yes" identifier="R5B1fZoN1y"/>
			<point x="667.5006897703" y="493"/>
			<point x="635.5006897703" y="527"/>
			<point x="577.5006897703" y="527" type="curve" smooth="yes"/>
			<point x="466.5006897703" y="527"/>
			<point x="191.5006897703" y="376"/>
			<point x="166.5006897703" y="229" type="curve" smooth="yes" identifier="AfiBR6DaWX"/>
			<point x="151.5006897703" y="138"/>
			<point x="369.5006897703" y="-7"/>
		</contour>
		<contour>
			<point x="222.5006897703" y="760" type="curve" smooth="yes"/>
			<point x="177.5006897703" y="760"/>
			<point x="152.5006897703" y="736"/>
			<point x="144.5006897703" y="691" type="curve" smooth="yes" identifier="OKdkOJa2sD"/>
			<point x="138.5006897703" y="655"/>
			<point x="142.5006897703" y="624"/>
			<point x="129.5006897703" y="544" type="curve" smooth="yes" identifier="hfQ0ByfqeI"/>
			<point x="101.5006897703" y="376"/>
			<point x="47.5006897703" y="214"/>
			<point x="34.5006897703" y="137" type="curve" smooth="yes" identifier="SJFQ44cqFV"/>
			<point x="14.5006897703" y="19"/>
			<point x="64.5006897703" y="-10"/>
			<point x="118.5006897703" y="-10" type="curve" smooth="yes"/>
			<point x="160.5006897703" y="-10"/>
			<point x="186.5006897703" y="9"/>
			<point x="194.5006897703" y="53" type="curve" smooth="yes" identifier="7C1Rl5Tg7S"/>
			<point x="202.5006897703" y="102"/>
			<point x="204.5006897703" y="145"/>
			<point x="215.5006897703" y="209" type="curve" smooth="yes" identifier="trMjSTVU1u"/>
			<point x="232.5006897703" y="310"/>
			<point x="287.5006897703" y="421"/>
			<point x="308.5006897703" y="546" type="curve" smooth="yes" identifier="CZH70dO6bw"/>
			<point x="334.5006897703" y="702"/>
			<point x="304.5006897703" y="760"/>
		</contour>
	</outline>
	<anchor name="top" x="243.4694479707" y="750"/>
	<anchor name="bottom" x="288.5006897703" y="0"/>
</glyph>
<glyph name="l" format="2">
	<unicode hex="006C"/>
	<advance width="373"/>
	<outline>
		<contour>
			<point x="312.3726883423" y="625" type="curve" smooth="yes" identifier="MMAChRHHKm"/>
			<point x="298.3726883423" y="542"/>
			<point x="260.3726883423" y="446"/>
			<point x="235.3726883423" y="297" type="curve" smooth="yes" identifier="xG5PW1dZgY"/>
			<point x="214.3726883423" y="167"/>
			<point x="234.3726883423" y="163"/>
			<point x="258.3726883423" y="163" type="curve" smooth="yes"/>
			<point x="278.3726883423" y="163"/>
			<point x="290.3726883423" y="168"/>
			<point x="303.3726883423" y="168" type="curve" smooth="yes"/>
			<point x="337.3726883423" y="168"/>
			<point x="343.3726883423" y="138"/>
			<point x="336.3726883423" y="97" type="curve" smooth="yes" identifier="vH3Dp3OK8Q"/>
			<point x="325.3726883423" y="30"/>
			<point x="264.3726883423" y="-11"/>
			<point x="186.3726883423" y="-11" type="curve" smooth="yes"/>
			<point x="121.3726883423" y="-11"/>
			<point x="13.3726883423" y="21"/>
			<point x="62.3726883423" y="317" type="curve" smooth="yes" identifier="m6UttbVxWg"/>
			<point x="86.3726883423" y="463"/>
			<point x="116.3726883423" y="581"/>
			<point x="156.3726883423" y="696" type="curve" smooth="yes"/>
			<point x="171.3726883423" y="741"/>
			<point x="198.3726883423" y="760"/>
			<point x="241.3726883423" y="760" type="curve" smooth="yes"/>
			<point x="301.3726883423" y="760"/>
			<point x="328.3726883423" y="720"/>
		</contour>
	</outline>
	<anchor name="top" x="246.3414465427" y="750"/>
	<anchor name="bottom" x="190.3726883423" y="0"/>
</glyph>
<glyph name="m" format="2">
	<unicode hex="006D"/>
	<advance width="962"/>
	<outline>
		<contour>
			<point x="241.658796418" y="401" type="curve" smooth="yes" identifier="7QZ7YJnO32"/>
			<point x="222.658796418" y="291"/>
			<point x="166.658796418" y="318"/>
			<point x="207.658796418" y="398" type="curve" smooth="yes"/>
			<point x="243.658796418" y="466"/>
			<point x="312.658796418" y="526"/>
			<point x="397.658796418" y="526" type="curve" smooth="yes"/>
			<point x="479.658796418" y="526"/>
			<point x="501.658796418" y="482"/>
			<point x="509.658796418" y="403" type="curve" smooth="yes"/>
			<point x="514.658796418" y="349"/>
			<point x="511.658796418" y="300"/>
			<point x="507.658796418" y="269" type="curve" smooth="yes"/>
			<point x="497.658796418" y="192"/>
			<point x="436.658796418" y="194"/>
			<point x="471.658796418" y="280" type="curve" smooth="yes"/>
			<point x="536.658796418" y="443"/>
			<point x="639.658796418" y="526"/>
			<point x="728.658796418" y="526" type="curve" smooth="yes"/>
			<point x="854.658796418" y="526"/>
			<point x="893.658796418" y="440"/>
			<point x="881.658796418" y="275" type="curve" smooth="yes"/>
			<point x="869.658796418" y="114"/>
			<point x="908.658796418" y="104"/>
			<point x="900.658796418" y="55" type="curve" smooth="yes" identifier="hYBYGI6ERu"/>
			<point x="895.658796418" y="24"/>
			<point x="865.658796418" y="-9"/>
			<point x="813.658796418" y="-9" type="curve" smooth="yes"/>
			<point x="732.658796418" y="-9"/>
			<point x="692.658796418" y="25"/>
			<point x="697.658796418" y="154" type="curve" smooth="yes"/>
			<point x="702.658796418" y="292"/>
			<point x="697.658796418" y="321"/>
			<point x="684.658796418" y="366" type="curve" smooth="yes"/>
			<point x="668.658796418" y="419"/>
			<point x="800.658796418" y="412"/>
			<point x="718.658796418" y="349" type="curve" smooth="yes"/>
			<point x="639.658796418" y="289"/>
			<point x="587.658796418" y="183"/>
			<point x="529.658796418" y="50" type="curve" smooth="yes"/>
			<point x="514.658796418" y="11"/>
			<point x="482.658796418" y="-9"/>
			<point x="443.658796418" y="-9" type="curve" smooth="yes"/>
			<point x="360.658796418" y="-9"/>
			<point x="337.658796418" y="41"/>
			<point x="342.658796418" y="152" type="curve" smooth="yes"/>
			<point x="348.658796418" y="277"/>
			<point x="346.658796418" y="327"/>
			<point x="322.658796418" y="369" type="curve" smooth="yes"/>
			<point x="308.658796418" y="394"/>
			<point x="382.658796418" y="364"/>
			<point x="354.658796418" y="334" type="curve" smooth="yes"/>
			<point x="270.658796418" y="247"/>
			<point x="237.658796418" y="152"/>
			<point x="207.658796418" y="42" type="curve" smooth="yes"/>
			<point x="197.658796418" y="9"/>
			<point x="173.658796418" y="-9"/>
			<point x="127.658796418" y="-9" type="curve" smooth="yes"/>
			<point x="34.658796418" y="-9"/>
			<point x="23.658796418" y="90"/>
			<point x="40.658796418" y="190" type="curve" smooth="yes" identifier="Xvn0YzzITd"/>
			<point x="49.658796418" y="247"/>
			<point x="70.658796418" y="310"/>
			<point x="79.658796418" y="367" type="curve" smooth="yes" identifier="xmhxTXA2o2"/>
			<point x="84.658796418" y="395"/>
			<point x="83.658796418" y="420"/>
			<point x="87.658796418" y="444" type="curve" smooth="yes" identifier="zKf88QNkke"/>
			<point x="91.658796418" y="471"/>
			<point x="114.658796418" y="495"/>
			<point x="152.658796418" y="495" type="curve" smooth="yes"/>
			<point x="226.658796418" y="495"/>
			<point x="246.658796418" y="434"/>
		</contour>
	</outline>
	<anchor name="top" x="550.1488389414" y="515"/>
	<anchor name="bottom" x="438.3369583105" y="0"/>
</glyph>
<glyph name="n" format="2">
	<unicode hex="006E"/>
	<advance width="692"/>
	<outline>
		<contour>
			<point x="540.8036281626" y="-10" type="curve" smooth="yes"/>
			<point x="592.8036281626" y="-10"/>
			<point x="631.8036281626" y="21"/>
			<point x="639.8036281626" y="65" type="curve" smooth="yes" identifier="KR20hgMY6b"/>
			<point x="644.8036281626" y="98"/>
			<point x="636.8036281626" y="117"/>
			<point x="620.8036281626" y="137" type="curve" smooth="yes"/>
			<point x="592.8036281626" y="170"/>
			<point x="590.8036281626" y="233"/>
			<point x="613.8036281626" y="370" type="curve" smooth="yes" identifier="L2ZNlUDNE4"/>
			<point x="628.8036281626" y="463"/>
			<point x="591.8036281626" y="524"/>
			<point x="491.8036281626" y="524" type="curve" smooth="yes"/>
			<point x="393.8036281626" y="524"/>
			<point x="263.8036281626" y="431"/>
			<point x="164.8036281626" y="242" type="curve"/>
			<point x="205.8036281626" y="186" type="line"/>
			<point x="228.8036281626" y="325"/>
			<point x="258.8036281626" y="341"/>
			<point x="270.8036281626" y="412" type="curve" smooth="yes" identifier="W2uEGjkT7j"/>
			<point x="281.8036281626" y="478"/>
			<point x="245.8036281626" y="516"/>
			<point x="197.8036281626" y="516" type="curve" smooth="yes"/>
			<point x="151.8036281626" y="516"/>
			<point x="123.8036281626" y="494"/>
			<point x="115.8036281626" y="447" type="curve" smooth="yes" identifier="OUEwlcHvKo"/>
			<point x="97.8036281626" y="338"/>
			<point x="60.8036281626" y="286"/>
			<point x="37.8036281626" y="151" type="curve" smooth="yes" identifier="hAPxV7nL8I"/>
			<point x="22.8036281626" y="58"/>
			<point x="41.8036281626" y="-9"/>
			<point x="110.8036281626" y="-9" type="curve" smooth="yes"/>
			<point x="151.8036281626" y="-9"/>
			<point x="174.8036281626" y="6"/>
			<point x="199.8036281626" y="59" type="curve" smooth="yes"/>
			<point x="277.8036281626" y="227"/>
			<point x="390.8036281626" y="357"/>
			<point x="441.8036281626" y="357" type="curve" smooth="yes"/>
			<point x="459.8036281626" y="357"/>
			<point x="473.8036281626" y="347"/>
			<point x="493.8036281626" y="317" type="curve"/>
			<point x="507.8036281626" y="374"/>
			<point x="477.8036281626" y="376"/>
			<point x="424.8036281626" y="379" type="curve"/>
			<point x="451.8036281626" y="363"/>
			<point x="452.8036281626" y="341"/>
			<point x="445.8036281626" y="299" type="curve" smooth="yes" identifier="Wm83OFKRp5"/>
			<point x="411.8036281626" y="95"/>
			<point x="448.8036281626" y="-10"/>
		</contour>
	</outline>
	<anchor name="top" x="390.293670686" y="515"/>
	<anchor name="bottom" x="304.4817900551" y="0"/>
</glyph>
<glyph name="o" format="2">
	<unicode hex="006F"/>
	<advance width="664"/>
	<outline>
		<contour>
			<point x="302.0290463415" y="-12" type="curve" smooth="yes"/>
			<point x="461.0290463415" y="-12"/>
			<point x="602.0290463415" y="108"/>
			<point x="628.0290463415" y="266" type="curve" smooth="yes" identifier="zJyFLXhfYp"/>
			<point x="654.0290463415" y="420"/>
			<point x="566.0290463415" y="516"/>
			<point x="386.0290463415" y="516" type="curve" smooth="yes"/>
			<point x="301.0290463415" y="516"/>
			<point x="191.0290463415" y="428"/>
			<point x="177.0290463415" y="345" type="curve" smooth="yes" identifier="TmcUWovmOY"/>
			<point x="167.0290463415" y="285"/>
			<point x="190.0290463415" y="269"/>
			<point x="215.0290463415" y="269" type="curve" smooth="yes"/>
			<point x="247.0290463415" y="269"/>
			<point x="265.0290463415" y="279"/>
			<point x="298.0290463415" y="307" type="curve" smooth="yes"/>
			<point x="330.0290463415" y="334"/>
			<point x="347.0290463415" y="351"/>
			<point x="374.0290463415" y="351" type="curve" smooth="yes"/>
			<point x="431.0290463415" y="351"/>
			<point x="464.0290463415" y="314"/>
			<point x="455.0290463415" y="258" type="curve" smooth="yes" identifier="J4hXVjeORt"/>
			<point x="444.0290463415" y="193"/>
			<point x="390.0290463415" y="149"/>
			<point x="324.0290463415" y="149" type="curve" smooth="yes"/>
			<point x="244.0290463415" y="149"/>
			<point x="201.0290463415" y="193"/>
			<point x="212.0290463415" y="259" type="curve" smooth="yes" identifier="vxkWJkPylO"/>
			<point x="219.0290463415" y="300"/>
			<point x="266.0290463415" y="341"/>
			<point x="305.0290463415" y="352" type="curve" smooth="yes"/>
			<point x="376.0290463415" y="373"/>
			<point x="400.0290463415" y="416"/>
			<point x="409.0290463415" y="470" type="curve" smooth="yes" identifier="zfKSTCCsjN"/>
			<point x="417.0290463415" y="515"/>
			<point x="382.0290463415" y="533"/>
			<point x="343.0290463415" y="533" type="curve" smooth="yes"/>
			<point x="217.0290463415" y="533"/>
			<point x="60.0290463415" y="397"/>
			<point x="38.0290463415" y="266" type="curve" smooth="yes" identifier="yt06hSVHUC"/>
			<point x="11.0290463415" y="104"/>
			<point x="122.0290463415" y="-12"/>
		</contour>
	</outline>
	<anchor name="top" x="388.5190888648" y="515"/>
	<anchor name="bottom" x="302.7072082339" y="0"/>
	<anchor name="ogonek" x="464.8723336384" y="37"/>
</glyph>
<glyph name="p" format="2">
	<unicode hex="0070"/>
	<advance width="610"/>
	<outline>
		<contour>
			<point x="228.2393734592" y="358" type="curve" smooth="yes" identifier="3mnduh9N4H"/>
			<point x="202.2393734592" y="207"/>
			<point x="229.2393734592" y="92"/>
			<point x="206.2393734592" y="-46" type="curve" smooth="yes" identifier="h86Ja6cPVc"/>
			<point x="190.2393734592" y="-144"/>
			<point x="164.2393734592" y="-261"/>
			<point x="71.2393734592" y="-261" type="curve" smooth="yes"/>
			<point x="28.2393734592" y="-261"/>
			<point x="-17.7606265408" y="-226"/>
			<point x="-4.7606265408" y="-151" type="curve" smooth="yes" identifier="gVWExISIzA"/>
			<point x="5.2393734592" y="-88"/>
			<point x="21.2393734592" y="-64"/>
			<point x="32.2393734592" y="2" type="curve" smooth="yes" identifier="tk7QCavBul"/>
			<point x="57.2393734592" y="153"/>
			<point x="37.2393734592" y="266"/>
			<point x="50.2393734592" y="406" type="curve" smooth="yes"/>
			<point x="52.2393734592" y="435"/>
			<point x="79.2393734592" y="456"/>
			<point x="113.2393734592" y="456" type="curve" smooth="yes"/>
			<point x="178.2393734592" y="456"/>
			<point x="236.2393734592" y="411"/>
		</contour>
		<contour>
			<point x="278.2393734592" y="528" type="curve" smooth="yes"/>
			<point x="467.2393734592" y="528"/>
			<point x="609.2393734592" y="411"/>
			<point x="574.2393734592" y="200" type="curve" smooth="yes" identifier="75aV0y9uWM"/>
			<point x="558.2393734592" y="103"/>
			<point x="449.2393734592" y="-10"/>
			<point x="297.2393734592" y="-10" type="curve" smooth="yes"/>
			<point x="174.2393734592" y="-10"/>
			<point x="94.2393734592" y="69"/>
			<point x="110.2393734592" y="161" type="curve" smooth="yes" identifier="064CRj7Qqx"/>
			<point x="114.2393734592" y="186"/>
			<point x="142.2393734592" y="212"/>
			<point x="166.2393734592" y="212" type="curve" smooth="yes"/>
			<point x="211.2393734592" y="212"/>
			<point x="233.2393734592" y="159"/>
			<point x="296.2393734592" y="159" type="curve" smooth="yes"/>
			<point x="349.2393734592" y="159"/>
			<point x="389.2393734592" y="178"/>
			<point x="397.2393734592" y="227" type="curve" smooth="yes" identifier="1kf2m1beA1"/>
			<point x="411.2393734592" y="310"/>
			<point x="314.2393734592" y="353"/>
			<point x="242.2393734592" y="353" type="curve" smooth="yes"/>
			<point x="229.2393734592" y="353"/>
			<point x="220.2393734592" y="348"/>
			<point x="193.2393734592" y="348" type="curve" smooth="yes"/>
			<point x="148.2393734592" y="348"/>
			<point x="106.2393734592" y="388"/>
			<point x="114.2393734592" y="437" type="curve" smooth="yes" identifier="7uEgQYgqSF"/>
			<point x="126.2393734592" y="509"/>
			<point x="180.2393734592" y="528"/>
		</contour>
	</outline>
	<anchor name="top" x="341.7294159825" y="515"/>
	<anchor name="bottom" x="68.2612826181" y="-250"/>
</glyph>
<glyph name="q" format="2">
	<unicode hex="0071"/>
	<advance width="630"/>
	<outline>
		<contour>
			<point x="189.5143708269" y="-10" type="curve" smooth="yes"/>
			<point x="273.5143708269" y="-10"/>
			<point x="331.5143708269" y="13"/>
			<point x="402.5143708269" y="57" type="curve"/>
			<point x="374.5143708269" y="71" type="line"/>
			<point x="355.5143708269" y="-16"/>
			<point x="345.5143708269" y="-99"/>
			<point x="339.5143708269" y="-168" type="curve" smooth="yes"/>
			<point x="336.5143708269" y="-202"/>
			<point x="364.5143708269" y="-260"/>
			<point x="418.5143708269" y="-260" type="curve" smooth="yes"/>
			<point x="468.5143708269" y="-260"/>
			<point x="525.5143708269" y="-233"/>
			<point x="579.5143708269" y="-192" type="curve" smooth="yes"/>
			<point x="602.5143708269" y="-173"/>
			<point x="619.5143708269" y="-143"/>
			<point x="625.5143708269" y="-110" type="curve" smooth="yes" identifier="gwZjwpq1yd"/>
			<point x="632.5143708269" y="-68"/>
			<point x="610.5143708269" y="-34"/>
			<point x="574.5143708269" y="-34" type="curve" smooth="yes"/>
			<point x="551.5143708269" y="-34"/>
			<point x="530.5143708269" y="-48"/>
			<point x="502.5143708269" y="-64" type="curve"/>
			<point x="519.5143708269" y="-78" type="line"/>
			<point x="531.5143708269" y="32"/>
			<point x="542.5143708269" y="89"/>
			<point x="553.5143708269" y="151" type="curve"/>
			<point x="561.5143708269" y="171"/>
			<point x="594.5143708269" y="218"/>
			<point x="605.5143708269" y="284" type="curve" smooth="yes" identifier="LJtMqiI0od"/>
			<point x="613.5143708269" y="332"/>
			<point x="578.5143708269" y="368"/>
			<point x="511.5143708269" y="368" type="curve" smooth="yes"/>
			<point x="489.5143708269" y="368"/>
			<point x="475.5143708269" y="356"/>
			<point x="466.5143708269" y="337" type="curve" smooth="yes"/>
			<point x="412.5143708269" y="232"/>
			<point x="319.5143708269" y="160"/>
			<point x="218.5143708269" y="160" type="curve" smooth="yes"/>
			<point x="191.5143708269" y="160"/>
			<point x="177.5143708269" y="174"/>
			<point x="181.5143708269" y="199" type="curve" smooth="yes" identifier="T9sfVzAuOy"/>
			<point x="191.5143708269" y="259"/>
			<point x="300.5143708269" y="354"/>
			<point x="354.5143708269" y="354" type="curve" smooth="yes"/>
			<point x="377.5143708269" y="354"/>
			<point x="387.5143708269" y="348"/>
			<point x="393.5143708269" y="333" type="curve" smooth="yes"/>
			<point x="402.5143708269" y="312"/>
			<point x="415.5143708269" y="305"/>
			<point x="430.5143708269" y="305" type="curve" smooth="yes"/>
			<point x="473.5143708269" y="305"/>
			<point x="512.5143708269" y="338"/>
			<point x="518.5143708269" y="375" type="curve" smooth="yes" identifier="HnHkvxDC88"/>
			<point x="531.5143708269" y="453"/>
			<point x="480.5143708269" y="525"/>
			<point x="382.5143708269" y="525" type="curve" smooth="yes"/>
			<point x="222.5143708269" y="525"/>
			<point x="31.5143708269" y="360"/>
			<point x="6.5143708269" y="208" type="curve" smooth="yes" identifier="55nwvAzWga"/>
			<point x="-15.4856291731" y="77"/>
			<point x="42.5143708269" y="-10"/>
		</contour>
	</outline>
	<anchor name="top" x="380.0044133503" y="515"/>
	<anchor name="bottom" x="417.5362799859" y="-250"/>
</glyph>
<glyph name="r" format="2">
	<unicode hex="0072"/>
	<advance width="558"/>
	<outline>
		<contour>
			<point x="138.4880556198" y="-12" type="curve" smooth="yes"/>
			<point x="184.4880556198" y="-12"/>
			<point x="199.4880556198" y="12"/>
			<point x="228.4880556198" y="96" type="curve" smooth="yes"/>
			<point x="264.4880556198" y="202"/>
			<point x="314.4880556198" y="265"/>
			<point x="490.4880556198" y="332" type="curve" smooth="yes"/>
			<point x="539.4880556198" y="351"/>
			<point x="552.4880556198" y="380"/>
			<point x="557.4880556198" y="410" type="curve" smooth="yes" identifier="zsEOO0HhNA"/>
			<point x="568.4880556198" y="477"/>
			<point x="559.4880556198" y="521"/>
			<point x="509.4880556198" y="521" type="curve" smooth="yes"/>
			<point x="404.4880556198" y="521"/>
			<point x="260.4880556198" y="418"/>
			<point x="175.4880556198" y="265" type="curve"/>
			<point x="252.4880556198" y="303" type="line"/>
			<point x="252.4880556198" y="461"/>
			<point x="219.4880556198" y="511"/>
			<point x="120.4880556198" y="511" type="curve" smooth="yes"/>
			<point x="88.4880556198" y="511"/>
			<point x="60.4880556198" y="494"/>
			<point x="56.4880556198" y="468" type="curve" smooth="yes" identifier="YPK0bZUpe1"/>
			<point x="53.4880556198" y="449"/>
			<point x="54.4880556198" y="437"/>
			<point x="64.4880556198" y="403" type="curve" smooth="yes"/>
			<point x="84.4880556198" y="336"/>
			<point x="80.4880556198" y="254"/>
			<point x="57.4880556198" y="115" type="curve" smooth="yes" identifier="l7gYlI6Lmk"/>
			<point x="45.4880556198" y="45"/>
			<point x="86.4880556198" y="-12"/>
		</contour>
	</outline>
	<anchor name="top" x="333.2999362507" y="515"/>
	<anchor name="bottom" x="133.4880556198" y="0"/>
</glyph>
<glyph name="s" format="2">
	<unicode hex="0073"/>
	<advance width="537"/>
	<outline>
		<contour>
			<point x="168.6405174466" y="-10" type="curve" smooth="yes"/>
			<point x="341.6405174466" y="-10"/>
			<point x="476.6405174466" y="44"/>
			<point x="498.6405174466" y="176" type="curve" smooth="yes" identifier="DqEpEYRDEV"/>
			<point x="524.6405174466" y="329"/>
			<point x="245.6405174466" y="287"/>
			<point x="217.6405174466" y="332" type="curve"/>
			<point x="243.6405174466" y="348"/>
			<point x="285.6405174466" y="358"/>
			<point x="342.6405174466" y="358" type="curve" smooth="yes"/>
			<point x="386.6405174466" y="358"/>
			<point x="393.6405174466" y="352"/>
			<point x="428.6405174466" y="352" type="curve" smooth="yes"/>
			<point x="460.6405174466" y="352"/>
			<point x="483.6405174466" y="376"/>
			<point x="489.6405174466" y="415" type="curve" smooth="yes" identifier="ZbcUALiltc"/>
			<point x="499.6405174466" y="475"/>
			<point x="467.6405174466" y="524"/>
			<point x="374.6405174466" y="525" type="curve" smooth="yes"/>
			<point x="243.6405174466" y="526"/>
			<point x="79.6405174466" y="480"/>
			<point x="56.6405174466" y="344" type="curve" smooth="yes" identifier="jJHXpAyAEz"/>
			<point x="29.6405174466" y="181"/>
			<point x="290.6405174466" y="224"/>
			<point x="327.6405174466" y="181" type="curve"/>
			<point x="304.6405174466" y="162"/>
			<point x="266.6405174466" y="148"/>
			<point x="197.6405174466" y="148" type="curve" smooth="yes"/>
			<point x="139.6405174466" y="148"/>
			<point x="107.6405174466" y="177"/>
			<point x="68.6405174466" y="177" type="curve" smooth="yes"/>
			<point x="28.6405174466" y="177"/>
			<point x="5.6405174466" y="155"/>
			<point x="-0.3594825534" y="122" type="curve" smooth="yes" identifier="4H2yv4hkA5"/>
			<point x="-11.3594825534" y="52"/>
			<point x="31.6405174466" y="-10"/>
		</contour>
	</outline>
	<anchor name="top" x="305.1305599699" y="515"/>
	<anchor name="bottom" x="219.318679339" y="0"/>
</glyph>
<glyph name="t" format="2">
	<unicode hex="0074"/>
	<advance width="503"/>
	<outline>
		<contour>
			<point x="230.6476785089" y="298" type="curve" smooth="yes" identifier="Kjdhwwp7Hb"/>
			<point x="249.6476785089" y="412"/>
			<point x="282.6476785089" y="490"/>
			<point x="293.6476785089" y="558" type="curve" smooth="yes" identifier="AlAU3G3vYH"/>
			<point x="312.6476785089" y="675"/>
			<point x="273.6476785089" y="716"/>
			<point x="201.6476785089" y="716" type="curve" smooth="yes"/>
			<point x="149.6476785089" y="716"/>
			<point x="125.6476785089" y="693"/>
			<point x="119.6476785089" y="654" type="curve" smooth="yes" identifier="TUdDXnyqmD"/>
			<point x="113.6476785089" y="619"/>
			<point x="122.6476785089" y="588"/>
			<point x="112.6476785089" y="530" type="curve" smooth="yes" identifier="mLt9qoJP6e"/>
			<point x="98.6476785089" y="446"/>
			<point x="72.6476785089" y="389"/>
			<point x="56.6476785089" y="292" type="curve" smooth="yes" identifier="imcRzBHYS5"/>
			<point x="25.6476785089" y="109"/>
			<point x="73.6476785089" y="-13"/>
			<point x="271.6476785089" y="-13" type="curve" smooth="yes"/>
			<point x="371.6476785089" y="-13"/>
			<point x="433.6476785089" y="40"/>
			<point x="445.6476785089" y="116" type="curve" smooth="yes" identifier="VgVfxCrtpE"/>
			<point x="453.6476785089" y="160"/>
			<point x="441.6476785089" y="181"/>
			<point x="412.6476785089" y="181" type="curve" smooth="yes"/>
			<point x="383.6476785089" y="181"/>
			<point x="363.6476785089" y="161"/>
			<point x="316.6476785089" y="161" type="curve" smooth="yes"/>
			<point x="244.6476785089" y="161"/>
			<point x="213.6476785089" y="196"/>
		</contour>
		<contour>
			<point x="210.6476785089" y="327" type="curve" smooth="yes"/>
			<point x="294.6476785089" y="358"/>
			<point x="355.6476785089" y="368"/>
			<point x="459.6476785089" y="374" type="curve" smooth="yes"/>
			<point x="486.6476785089" y="376"/>
			<point x="504.6476785089" y="398"/>
			<point x="508.6476785089" y="422" type="curve" smooth="yes" identifier="XwhTB1BKuM"/>
			<point x="517.6476785089" y="477"/>
			<point x="470.6476785089" y="525"/>
			<point x="400.6476785089" y="525" type="curve" smooth="yes"/>
			<point x="343.6476785089" y="525"/>
			<point x="268.6476785089" y="512"/>
			<point x="209.6476785089" y="492" type="curve" smooth="yes"/>
			<point x="143.6476785089" y="469"/>
			<point x="131.6476785089" y="433"/>
			<point x="124.6476785089" y="391" type="curve" smooth="yes" identifier="oNird8GyJl"/>
			<point x="115.6476785089" y="338"/>
			<point x="145.6476785089" y="302"/>
		</contour>
	</outline>
	<anchor name="top" x="225.2851861625" y="700"/>
	<anchor name="bottom" x="229.6476785089" y="0"/>
</glyph>
